<svg xmlns="http://www.w3.org/2000/svg" viewBox="0 0 640 640" width="640" height="640"><metadata><rdf:RDF xmlns:rdf="http://www.w3.org/1999/02/22-rdf-syntax-ns#" xmlns:dc="http://purl.org/dc/elements/1.1/"><rdf:Description><dc:creator>RealFaviconGenerator</dc:creator><dc:source>https://realfavicongenerator.net</dc:source></rdf:Description></rdf:RDF></metadata><path fill="#295f72" d="M381 198.5c1 1.1 2 2 2.3 2s-.3-.9-1.3-2-2-2-2.3-2 .3.9 1.3 2m-15 1c-.3.6.1.7.9.4 1.8-.7 2.1-1.4.7-1.4-.6 0-1.3.4-1.6 1m.7 3.5c-5.2 3.7-11.3 18.8-11.1 27.3.2 4.4.2 4.2 1-1.8 1.7-14.4 9.3-27.6 14.6-25.6 1.2.5 1.4 1.7 1 5.3-.3 2.8-.1 4 .4 3.2 1-1.6 1.2-6 .3-8.3-.8-2-3.3-2-6.2-.1m9.2 4.3c0 3.6.2 4.9.7 3.7 1-2.6 1.1-8.3.2-8.8-.5-.3-.8 2-.9 5.1m-8.8 12.2c-2.9 4.5-3.2 6-1.2 6 1.3 0 7.6-6.4 7.6-7.7 0-.3-1.5 1.1-3.4 3.3-3.8 4.3-5.9 4.1-2.9-.3 2.7-3.8 3.5-5.3 3-5.3-.2 0-1.6 1.8-3.1 4m15.6 0c0 1.4.2 1.9.5 1.2.2-.6.2-1.8 0-2.5-.3-.6-.5-.1-.5 1.3m2.9 2.6c0 1.1.3 1.4.6.6.3-.7.2-1.6-.1-1.9-.3-.4-.6.2-.5 1.3m-4 2c0 1.1.3 1.4.6.6.3-.7.2-1.6-.1-1.9-.3-.4-.6.2-.5 1.3m-254.2 1.5c2.1 1.3 3.7 1.7 4.3 1.1s-.3-1.4-2.3-2.1c-4.9-1.7-5.8-1.3-2 1m225.2.5c0 1.1.3 1.4.6.6.3-.7.2-1.6-.1-1.9-.3-.4-.6.2-.5 1.3M135 228.5c-.3.6.1.7.9.4 1.8-.7 2.1-1.4.7-1.4-.6 0-1.3.4-1.6 1m242.8 5.1c-1.2 2.1-1.7 3.7-1.2 3.3 1.1-.6 4.2-6.4 3.7-6.9-.2-.2-1.3 1.4-2.5 3.6m-228.4 3.6c3.2 2.3 16.1 9.5 16.1 8.9 0-.4-5-3.3-15-8.8-3-1.7-3.2-1.7-1.1-.1m5.1-.3c0 .3.9 1 2 1.6s2 .8 2 .6c0-.3-.9-1-2-1.6s-2-.8-2-.6m203.9 3.3c1.2 2.4 4.9 4.8 5.9 3.9.3-.3 0-.6-.7-.6-.6 0-2.4-1.2-3.8-2.8-2.1-2.2-2.4-2.3-1.4-.5m13.6.8c-1.6 1.3-3.8 2.6-5 2.8l-2 .4 2 .2c1.2 0 3.6-1.2 5.5-2.9 4.2-3.5 3.8-4-.5-.5m-137.5-.1c0 .2.8 1 1.8 1.7 1.5 1.3 1.6 1.2.3-.4s-2.1-2.1-2.1-1.3m158.8.3c1.8.2 4.5.2 6 0s0-.4-3.3-.4-4.5.2-2.7.4m3.2 3.3c3.6.4 7.4 1 8.5 1.4 1.1.3.7 0-1-.8-1.6-.8-5.5-1.5-8.5-1.4l-5.5.1zm-228 .4c0 .3.9 1 2 1.6s2 .8 2 .6c0-.3-.9-1-2-1.6s-2-.8-2-.6m81 .9c1 1.4 1 2.1.2 2.9-.7.7-1.2 1.7-1.2 2.2 0 .6.7 0 1.6-1.3 1.5-2.1 1.5-2.4-.2-3.9-1.7-1.6-1.7-1.6-.4.1m34.8-.6c.7.3 1.6.2 1.9-.1.4-.3-.2-.6-1.3-.5-1.1 0-1.4.3-.6.6m101.2.8c-1.4.8-2 1.4-1.5 1.4.6 0 2.1-.6 3.5-1.4s2.1-1.4 1.5-1.4c-.5 0-2.1.6-3.5 1.4m-145.9-.2c.2.1 1.5 1.1 2.9 2.2l2.5 2-1.9-2.3c-1.1-1.2-2.4-2.2-2.9-2.2q-.9 0-.6.3m-73.1 1.1c0 .2 2.4 1.9 5.3 3.6 10.8 6.6 15.6 9.8 32.2 20.9 9.4 6.3 19.1 13 21.8 15 22 16.7 31.8 24.6 38.8 31.2 4.9 4.8 5.9 5.4 6.4 3.9 1-3-6.9-9.7-40.5-34.4-5.2-3.8-12-8.7-15-11-3-2.2-6.4-4.7-7.4-5.6-1.4-1.1-1.7-1.1-1.1-.1q.75 1.35-.6.9c-.8-.3-1.3-1-1.2-1.6.2-.6-2.5-3-5.9-5.3-3.3-2.3-5.8-3.7-5.4-3 1.1 1.8-2 1.3-3.5-.6-1.2-1.5-1.2-1.6.5-1 2.9 1.1.4-1.4-3.6-3.6-2.7-1.5-2.9-1.5-1.3-.2 2 1.7 1.9 1.7-.5 1-1.4-.5-4.1-1.8-6-3-6.9-4.2-13-7.6-13-7.1m22.5 11.6c.3.5.1 1-.4 1-.6 0-1.1-.5-1.1-1 0-.6.2-1 .4-1 .3 0 .8.4 1.1 1m15.1 10.7c-.5.5-9.6-5.4-9.6-6.2 0-.3 2.3.9 5.1 2.6 2.7 1.7 4.8 3.3 4.5 3.6m15.5-21.1c0 1.1.3 1.4.6.6.3-.7.2-1.6-.1-1.9-.3-.4-.6.2-.5 1.3m103 2.9c-12.3 13.3-16.3 41-7.5 51.5 1.4 1.6 3 3 3.6 3 .5 0-.3-1.3-1.9-2.9-9.6-9.6-5.6-38.4 7.2-51.7 2.3-2.4 3.8-4.4 3.5-4.4-.4 0-2.6 2-4.9 4.5m53.3-2.3L374 251l2.3-1.9c2.1-1.8 2.7-2.6 1.9-2.6-.2 0-1.2 1-2.3 2.2m34.6 1.3c1.9 2.2 3.9 4.4 4.4 5 .5.5.4.1-.2-1s-2.5-3.3-4.4-5l-3.3-3zm2-3.1c0 .2.8 1 1.8 1.7 1.5 1.3 1.6 1.2.3-.4s-2.1-2.1-2.1-1.3M282 249.2c-7.9 4.1-11.2 10.2-11.8 21.4-.3 4.1-.2 6.9 0 6.2s1.1-.9 1.9-.6c1.1.4 1.4-.6 1.4-5.2 0-7.1 2.3-7.2 2.8-.1.8 12.8-5.2 21.6-18.1 26.5l-2.8 1.1 8.3 7.1c4.6 3.9 8.8 7.7 9.3 8.4.8 1 2.9.7 10.2-1.5 15.8-4.7 18.3-7.7 16.4-20.1-1.3-8.7-.9-13.2 2.5-24.2 3.9-12.6 3.2-16.4-3.6-19.1-5.1-2-12.6-2-16.5.1m14.6.4c7.6 2.6 8.5 5.9 4.4 17.8-3.3 9.8-4 17.5-2.4 25.6 2.1 10.5-.9 14-15.2 18l-8.4 2.4-3-2.7c-1.6-1.5-4-3.8-5.2-5.2l-2.3-2.5 2.9-.8c2.7-.7 5.2-3.7 3-3.7-.6 0-.8-1-.4-2.3s.3-1.7-.2-1c-1.1 1.5-7.6 4.3-10 4.3-1 0 .4-1.1 3-2.4 11.2-5.5 15.5-13.9 14.8-29.4-.1-2.7-.5-3.2-2.6-3.2-2.9 0-3-.8-1-5.7 3.3-8 13.7-12.2 22.6-9.2m-24.4 21.1c-.3.8-.6.5-.6-.6-.1-1.1.2-1.7.5-1.3.3.3.4 1.2.1 1.9m1.3 38.8c0 .6.7 1 1.5 1s1.5-.2 1.5-.4-.7-.6-1.5-1c-.8-.3-1.5-.1-1.5.4m45.9-60.3c-1.3 1.6-1.2 1.7.4.4.9-.7 1.7-1.5 1.7-1.7 0-.8-.8-.3-2.1 1.3m-143.2.4c1.2 1.5 7.3 5.3 7.3 4.6 0-.2-1.9-1.7-4.2-3.2-2.4-1.6-3.8-2.2-3.1-1.4m60.5.9c0 1.4.2 1.9.5 1.2.2-.6.2-1.8 0-2.5-.3-.6-.5-.1-.5 1.3m3 0c0 1.4.2 1.9.5 1.2.2-.6.2-1.8 0-2.5-.3-.6-.5-.1-.5 1.3m33.7.7L271 254l2.8-2.4c2.5-2.3 3.2-3.1 2.4-3.1-.2 0-1.4 1.2-2.8 2.7m109.6.9c-3.3 1.8-5.6 3.4-5.2 3.4 1.3 0 10.5-4.9 11.2-6 .8-1.3.9-1.4-6 2.6m7.9-2.8c.4.7.2 2.1-.5 3-1.2 1.5-1.1 1.5.6 0 1.6-1.5 1.7-2 .6-3-1.1-1.1-1.3-1-.7 0m-13.5 1.9c-1.3 1.6-1.2 1.7.4.4.9-.7 1.7-1.5 1.7-1.7 0-.8-.8-.3-2.1 1.3M244 256.4c-2.2 4.9-3.6 6.2-10.4 10l-5.3 2.9 3.8 4.2c15.4 17.1 28.8 3.2 16.4-16.8l-2.7-4.3zm129.3-.2c.6.2 1.8.2 2.5 0 .6-.3.1-.5-1.3-.5s-1.9.2-1.2.5m9.2.8c-1.4.8-2 1.4-1.4 1.5.5 0 1.9-.7 3-1.5 2.4-1.8 1.6-1.9-1.6 0m-162.9 1.1c0 1.1.3 1.4.6.6.3-.7.2-1.6-.1-1.9-.3-.4-.6.2-.5 1.3m148.2-.9c.9.2 2.3.2 3 0 .6-.3-.1-.5-1.8-.5-1.6 0-2.2.2-1.2.5m-4.1 2.5c.7.4 4 .7 7.3.7 7.3-.1 6.2-.6-2.3-1.1-3.4-.3-5.7-.1-5 .4m-57 1.8c0 1.4.2 1.9.5 1.2.2-.6.2-1.8 0-2.5-.3-.6-.5-.1-.5 1.3m109.9-.4c0 1.1.3 1.4.6.6.3-.7.2-1.6-.1-1.9-.3-.4-.6.2-.5 1.3m-149 2c0 1.1.3 1.4.6.6.3-.7.2-1.6-.1-1.9-.3-.4-.6.2-.5 1.3m150.1 2.4c0 1.4.2 1.9.5 1.2.2-.6.2-1.8 0-2.5-.3-.6-.5-.1-.5 1.3m-161 6c0 1.9.2 2.7.5 1.7.2-.9.2-2.5 0-3.5-.3-.9-.5-.1-.5 1.8m158.7-1.3c-1.3 1.6-1.2 1.7.4.4s2.1-2.1 1.3-2.1c-.2 0-1 .8-1.7 1.7m-107.8 6.9c0 1.1.3 1.4.6.6.3-.7.2-1.6-.1-1.9-.3-.4-.6.2-.5 1.3m89.6 1.9c-2 1.4-3.7 2.8-3.7 3.1 0 .2 1.8-.8 4-2.2 3.5-2.3 4.7-3.4 3.7-3.4-.1 0-1.9 1.1-4 2.5m-34.3 1.7c-1.9 2.3-1.9 2.3.2.5 3.1-2.6 4.3-2.1 6.4 2.5 1.1 2.4 2 3.6 2 2.8 0-2.3-3.8-8-5.3-8-.8 0-2.2 1-3.3 2.2m-91.3.4c0 1.1.3 1.4.6.6.3-.7.2-1.6-.1-1.9-.3-.4-.6.2-.5 1.3m30.1.9c0 1.6.2 2.2.5 1.2.2-.9.2-2.3 0-3-.3-.6-.5.1-.5 1.8m-49.3.2c-1.3 1.6-1.2 1.7.4.4.9-.7 1.7-1.5 1.7-1.7 0-.8-.8-.3-2.1 1.3m132.1 7.8c-4.1 4.1-7.2 7.5-6.9 7.5.2 0 3.8-3.4 7.9-7.5s7.2-7.5 6.9-7.5c-.2 0-3.8 3.4-7.9 7.5m33.8-6.8c.7.3 1.6.2 1.9-.1.4-.3-.2-.6-1.3-.5-1.1 0-1.4.3-.6.6m14.2-.3c0 .2.7.7 1.6 1 .8.3 1.2.2.9-.4-.6-1-2.5-1.4-2.5-.6m77.8 1.3c.6.2 1.8.2 2.5 0 .6-.3.1-.5-1.3-.5s-1.9.2-1.2.5M360.8 289c0 2.7.2 3.8.4 2.2.2-1.5.2-3.7 0-5-.2-1.2-.4 0-.4 2.8m-59.1-1c0 1.6.2 2.2.5 1.2.2-.9.2-2.3 0-3-.3-.6-.5.1-.5 1.8m85.8 4.2L381 299l6.8-6.5c3.7-3.5 6.7-6.6 6.7-6.7 0-.8-1 .2-7 6.4m30.8-6c.6.2 1.8.2 2.5 0 .6-.3.1-.5-1.3-.5s-1.9.2-1.2.5m14 0c.7.3 1.6.2 1.9-.1.4-.3-.2-.6-1.3-.5-1.1 0-1.4.3-.6.6m48.2-.4c0 .2 1.5 1.6 3.3 3.3l3.2 2.9-2.9-3.3c-2.8-3-3.6-3.7-3.6-2.9m4 .1c0 .2.8 1 1.8 1.7 1.5 1.3 1.6 1.2.3-.4s-2.1-2.1-2.1-1.3m13.9 1.3c-1.3 1.6-1.2 1.7.4.4s2.1-2.1 1.3-2.1c-.2 0-1 .8-1.7 1.7m-231 1c-1.3 1.6-1.2 1.7.4.4.9-.7 1.7-1.5 1.7-1.7 0-.8-.8-.3-2.1 1.3m145.1-.7c-1.8 1.2-.2 1.2 2.5 0 1.3-.6 1.5-.9.5-.9-.8 0-2.2.4-3 .9m96.6-.1c-.4.5.4.7 1.5.4 1.5-.4 2.7 0 3.5 1.2.8 1.1 1.4 1.4 1.4.9 0-2.6-5.1-4.6-6.4-2.5m8.6 2.1c0 1.4.2 1.9.5 1.2.2-.6.2-1.8 0-2.5-.3-.6-.5-.1-.5 1.3M371.8 292c0 2.2.2 3 .4 1.7.2-1.2.2-3 0-4-.3-.9-.5.1-.4 2.3m34.5-1.9c-3.9 2.1-3.5 2.8.5.8 3.7-1.9 4.4-2.4 3.1-2.4-.5.1-2.1.8-3.6 1.6m99.2.9c-1.6 1.9-.6 4.5 1.7 4.4 1.7-.1 1.7-.2.1-.6-2.1-.5-2.3-2.4-.6-4.1.7-.7.9-1.2.6-1.2s-1.1.7-1.8 1.5m-28.7.1c1.9.6 2.3 2 .7 2.7-.6.3-.5.4.2.3 2.1-.4 1.5-3.1-.7-3.3-1.6-.1-1.6-.1-.2.3m-81.4 3.1L393 297l2.8-2.4c1.5-1.4 2.7-2.6 2.7-2.8 0-.8-.8-.1-3.1 2.4m105.7-1c-.6 1.4-.5 1.5.5.6.7-.7 1-1.5.7-1.8s-.9.2-1.2 1.2m-102.7 3L395 300l3.8-3.4c3.4-3.3 4.2-4.1 3.4-4.1-.2 0-1.9 1.7-3.8 3.7m117-2c-1.3 1.6-1.2 1.7.4.4s2.1-2.1 1.3-2.1c-.2 0-1 .8-1.7 1.7m-262.2 1c-.4.3-.7 1.1-.7 1.7 0 .7.3.7.8 0 .4-.7 1.6-1.4 2.7-1.7 1.9-.5 1.9-.5-.1-.6-1.1 0-2.4.2-2.7.6m217.7 2.5L468 301l3.5-3c1.9-1.7 3.7-3.1 3.9-3.3.2-.1 0-.2-.5-.2-.6 0-2.3 1.5-4 3.2m-100.3.1c-.1 1-1.1 2.2-2.3 2.7-1.6.6-1.8.9-.7.9 2.1.1 4.3-2.4 3.6-4.1-.3-.8-.6-.6-.6.5m-8.1.1c0 .2.8 1 1.8 1.7 1.5 1.3 1.6 1.2.3-.4s-2.1-2.1-2.1-1.3m28.6 2.1c-.3.9-.5 3.1-.5 4.8.1 2.7.3 2.4.9-1.3.8-4.8.6-6.1-.4-3.5m125.4-.1c0 .2.8 1 1.8 1.7 1.5 1.3 1.6 1.2.3-.4s-2.1-2.1-2.1-1.3m-187.9 3.2c-3.7 2.6-3.6 3 .3 1.3 1.4-.7 2.7-1.8 3-2.5.6-1.7.9-1.8-3.3 1.2m5.5-1.3c.3 1 .9 1.5 1.2 1.2s0-1.1-.7-1.8c-1-.9-1.1-.8-.5.6m60.5.3c0 1.1.3 1.4.6.6.3-.7.2-1.6-.1-1.9-.3-.4-.6.2-.5 1.3m53.5-.8c-.2.4-.1 1.4.4 2.2.7 1.1.9.9.7-.8-.1-2.4-.3-2.6-1.1-1.4m66.9 1.2c1 1.1 2 2 2.3 2s-.3-.9-1.3-2-2-2-2.3-2 .3.9 1.3 2m-48 .1c-.4.6-.5 1.2-.2 1.5.2.3.7-.2 1-1.1.7-1.7.1-2-.8-.4m43.3.6c.7.3 1.6.2 1.9-.1.4-.3-.2-.6-1.3-.5-1.1 0-1.4.3-.6.6m-198.8.7c0 .2.8 1 1.8 1.7 1.5 1.3 1.6 1.2.3-.4s-2.1-2.1-2.1-1.3m-77.5 4.9c-3.4 18 26.7 56.5 36.4 46.8 1.3-1.3 2.7-1.9 3.4-1.4.8.5.8.2-.1-.9-.7-.9-1.1-2.7-.9-4 .2-1.2.2-1.7 0-1-.7 2-2.3.3-2.3-2.4 0-3.4-2.4-7.8-7.2-13-2.3-2.5-3.9-4.7-3.6-4.9.8-.8-17.2-17.9-21.4-20.4l-3.7-2.2zm33.5 32c-.1.6-.7 2.3-1.6 3.7l-1.4 2.5.1-2.5c.2-4.8-.1-5.9-3.6-10.4-5-6.5-4.3-6.5 1.5-.1 2.8 3 5 6.1 5 6.8m.7 4.9c-.3.8-.6.5-.6-.6-.1-1.1.2-1.7.5-1.3.3.3.4 1.2.1 1.9m-11.6 3.5c1.3 1.6 1.2 1.7-.3.4-1-.7-1.8-1.5-1.8-1.7 0-.8.8-.3 2.1 1.3m13.5 4.8c-.4 1.2-7.4 1.1-8.6-.1-.5-.5 1.2-.9 4.1-.9 2.8 0 4.8.4 4.5 1m51.2-47.8c.6.2 1.8.2 2.5 0 .6-.3.1-.5-1.3-.5s-1.9.2-1.2.5m73.3.9c0 1.1.3 1.4.6.6.3-.7.2-1.6-.1-1.9-.3-.4-.6.2-.5 1.3m68 0c0 1.1.3 1.4.6.6.3-.7.2-1.6-.1-1.9-.3-.4-.6.2-.5 1.3m3.2 1.9c0 2.2.2 3 .4 1.7.2-1.2.2-3 0-4-.3-.9-.5.1-.4 2.3m45.4-1.4c.4 1.3.8 1.8 1.1 1 .2-.7-.1-1.8-.6-2.3-.8-.8-.9-.4-.5 1.3m3.5-.1c0 1.4.2 1.9.5 1.2.2-.6.2-1.8 0-2.5-.3-.6-.5-.1-.5 1.3m6 1.5c0 1.6.2 2.2.5 1.2.2-.9.2-2.3 0-3-.3-.6-.5.1-.5 1.8m-290 1.5c0 1.9.2 2.7.5 1.7.2-.9.2-2.5 0-3.5-.3-.9-.5-.1-.5 1.8m156.9-1.4c0 1.1.3 1.4.6.6.3-.7.2-1.6-.1-1.9-.3-.4-.6.2-.5 1.3m29.3 1.6L414 314l3.3-2.9c1.7-1.7 3.2-3.1 3.2-3.3 0-.8-.8-.1-3.6 2.9m-96.1-1.5c.9.2 2.5.2 3.5 0 .9-.3.1-.5-1.8-.5s-2.7.2-1.7.5m63.8.9c0 1.1.3 1.4.6.6.3-.7.2-1.6-.1-1.9-.3-.4-.6.2-.5 1.3m6.9-.9c0 1.6 2.8 3.6 4 2.8.5-.3 1-1.2 1-1.8 0-.7-.4-.6-1 .3-.9 1.3-1.2 1.2-2.5-.4-.8-1.1-1.5-1.5-1.5-.9m54.1 2.9c0 1.1.3 1.4.6.6.3-.7.2-1.6-.1-1.9-.3-.4-.6.2-.5 1.3m16.9 0c0 1 .5 2.6 1 3.4.8 1.1.9.7.4-1.5-.8-3.7-1.4-4.5-1.4-1.9m39.4.6c-1.9 2.3-1.9 2.3.1.7 1.1-.9 2.7-1.9 3.5-2.2 1.3-.5 1.3-.6-.1-.6-.9-.1-2.4.9-3.5 2.1m-113.4-.6c0 1.7 4 6.4 5.3 6.3.8 0 .7-.3-.1-.6s-2.2-1.9-3.3-3.7c-1-1.7-1.9-2.6-1.9-2m30.4 1.6L417 316l2.3-1.9c2.1-1.8 2.7-2.6 1.9-2.6-.2 0-1.2 1-2.3 2.2m-132.8.7c-.4.5.3.7 1.4.4 2.3-.6 2.6-1.3.6-1.3-.8 0-1.7.4-2 .9m-55.4 2.1c0 1.4.2 1.9.5 1.2.2-.6.2-1.8 0-2.5-.3-.6-.5-.1-.5 1.3m286.7-.3c-1.3 1.6-1.2 1.7.4.4s2.1-2.1 1.3-2.1c-.2 0-1 .8-1.7 1.7m-29.4 1.4c-2.2 1-3.4 1.9-2.7 1.9 1.5 0 7.2-2.8 7.2-3.5 0-.6.3-.7-4.5 1.6m-16.1 1.3c1.3 1.1 3.7 1.5 7 1.5l5.1-.2-5.5-.6c-3-.3-6.2-1-7-1.4-.8-.5-.6-.1.4.7m-74.6.3c1.2.2 3.2.2 4.5 0 1.2-.2.2-.4-2.3-.4s-3.5.2-2.2.4m6.2 1.9c-1.7.9-2 1.4-.9 1.4.9 0 2.2-.7 2.9-1.5 1.5-1.8 1.3-1.8-2 .1m-109.8 2.4c0 1.4.2 1.9.5 1.2.2-.6.2-1.8 0-2.5-.3-.6-.5-.1-.5 1.3m102.6-1.3c.7.3 1.6.2 1.9-.1.4-.3-.2-.6-1.3-.5-1.1 0-1.4.3-.6.6m80.5 1c1.5.2 3.7.2 5 0 1.2-.2 0-.4-2.8-.4-2.7 0-3.8.2-2.2.4m12.1 2.5L487 328l2.3-1.9c2.1-1.8 2.7-2.6 1.9-2.6-.2 0-1.2 1-2.3 2.2m-194.4 1.7c0 .6.4 1.3 1 1.6s.7-.1.4-.9c-.7-1.8-1.4-2.1-1.4-.7m168 1.1c.8.5 2 1 2.5 1 .6 0 .3-.5-.5-1s-1.9-1-2.5-1c-.5 0-.3.5.5 1m-195 5.6c2.5 2.7 4.7 4.9 5 4.7.2-.2-1.8-2.5-4.5-5.1l-4.9-4.7zm42.1-3c0 1.1.3 1.4.6.6.3-.7.2-1.6-.1-1.9-.3-.4-.6.2-.5 1.3m-13.1-.2c0 .2.8 1 1.8 1.7 1.5 1.3 1.6 1.2.3-.4s-2.1-2.1-2.1-1.3m-79.7 1.3c.9.2 2.5.2 3.5 0 .9-.3.1-.5-1.8-.5s-2.7.2-1.7.5m219 0c.9.2 2.3.2 3 0 .6-.3-.1-.5-1.8-.5-1.6 0-2.2.2-1.2.5m-7.8 4.3c-1.6 1.6-2.7 3.1-2.4 3.3.2.2 1.7-1.1 3.2-3 3.6-4.1 3.1-4.3-.8-.3m54-1c1 1.1 2 2 2.3 2s-.3-.9-1.3-2-2-2-2.3-2 .3.9 1.3 2m-276.1 2.2L203 341l3.3-2.9c3-2.8 3.7-3.6 2.9-3.6-.2 0-1.6 1.5-3.3 3.2m272.1-1.2c1 1.1 2 2 2.3 2s-.3-.9-1.3-2-2-2-2.3-2 .3.9 1.3 2m-265.2.6c-5.2 2.6-8.6 10.5-8.1 19.1.2 5.4 0 6.8-1.1 6.8-2.1 0-3.3-5.2-2.7-12.2.4-4.7.2-6.1-.7-5.7-.8.3-1.4 3-1.5 7.3-.4 9.2 2.2 14.2 12.7 24.6 9 8.8 12.1 14 12.1 20.2 0 3.8-1.1 6.4-7.6 18-3.1 5.6-3 6.5.8 10.8 6.6 7.6 20.7 11.2 36.3 9.3 7.5-.9 20.8-4.9 18.8-5.5-.7-.3-1.3-1.5-1.3-2.8v-2.4l-2.5 2.3c-3 2.8-8.4 4.4-15.5 4.6-7.7.2-8 .2-8-1.5 0-1.1 1.3-1.5 5.3-1.5 11 0 20-4.7 17.6-9.1-.5-1-3.7-3.8-7.2-6.3-12.4-8.9-15-14.5-11.2-24.6 5-13.5 5-13.5 3.1-18.4-1-2.6-4-6.9-7-9.8-2.8-2.9-8.7-9.4-12.9-14.5-9.6-11.2-12-12.3-19.4-8.7m52.7 81.9c1.7 2.1.4 4.4-3 5.7l-2.5.9 2.3-2.1c2.3-2.1 2.2-3-.7-6.4-1.5-1.8-1.5-1.8.5-.8 1.1.6 2.7 1.8 3.4 2.7m2.6 11c-1.1.8-2.7 1.5-3.5 1.5q-1.5-.15.9-1.5c3.3-1.9 5-1.8 2.6 0m-40.6-94.2c0 .2 1.5 1.6 3.3 3.3l3.2 2.9-2.9-3.3c-2.8-3-3.6-3.7-3.6-2.9m208.5 6.4c-2.2 1.9-3.1 3.1-2 2.5 1.9-.9 7.4-6.3 6.4-6.2-.2.1-2.2 1.7-4.4 3.7m-163.4.9c0 1.1.3 1.4.6.6.3-.7.2-1.6-.1-1.9-.3-.4-.6.2-.5 1.3m-30.1-.2c0 .2.8 1 1.8 1.7 1.5 1.3 1.6 1.2.3-.4s-2.1-2.1-2.1-1.3m243.1 3.1c.1 1.9 1.8 5.1 1.8 3.5 0-.8-.4-2.2-.9-3s-.9-1.1-.9-.5m-246.1 4c1.3 1.4 2.6 2.5 2.8 2.5.3 0-.5-1.1-1.8-2.5s-2.6-2.5-2.8-2.5c-.3 0 .5 1.1 1.8 2.5m250.1-.9c0 1.1.3 1.4.6.6.3-.7.2-1.6-.1-1.9-.3-.4-.6.2-.5 1.3M194.7 354c0 1.6.2 2.2.5 1.2.2-.9.2-2.3 0-3-.3-.6-.5.1-.5 1.8m231.6 1.2c1.3 1.3 2.8 2.3 3.5 2.3s.3-.6-.8-1.2-2.7-1.6-3.5-2.2c-.9-.6-.5-.1.8 1.1m-4.8-.3c0 .2.8 1 1.8 1.7 1.5 1.3 1.6 1.2.3-.4s-2.1-2.1-2.1-1.3m-149.9 3.6c-1.3 1.1-1.9 2-1.4 2 .6 0 1.8-.9 2.8-2 2.3-2.5 1.7-2.5-1.4 0m126.4-1c-.3.6.1.7.9.4 1.8-.7 2.1-1.4.7-1.4-.6 0-1.3.4-1.6 1m37.8 1.7c.9.2 2.3.2 3 0 .6-.3-.1-.5-1.8-.5-1.6 0-2.2.2-1.2.5m50.8 0c-.1.6-.4 2-.7 3-.5 1.7-.5 1.7.6 0 .6-1 .9-2.3.6-3-.3-.9-.5-.9-.5 0m3 .9c0 1.1.3 1.4.6.6.3-.7.2-1.6-.1-1.9-.3-.4-.6.2-.5 1.3m-294 1c0 1.1.3 1.4.6.6.3-.7.2-1.6-.1-1.9-.3-.4-.6.2-.5 1.3m211.8.1c-1.3 1.6-1.2 1.7.4.4s2.1-2.1 1.3-2.1c-.2 0-1 .8-1.7 1.7m34.9-1c.6.2 1.8.2 2.5 0 .6-.3.1-.5-1.3-.5s-1.9.2-1.2.5m6 1c.6.2 1.8.2 2.5 0 .6-.3.1-.5-1.3-.5s-1.9.2-1.2.5m-13 1c.6.2 1.8.2 2.5 0 .6-.3.1-.5-1.3-.5s-1.9.2-1.2.5m-27.1 3.5c-.8 2.9-.1 3.6.8.9.8-2.6 2-2.7 3.5-.4 1.1 1.7 1.1 1.7.6 0-.3-1-.6-2.1-.6-2.3 0-1.6-3.9 0-4.3 1.8m50.4-1.8c.2.2 1.5.9 2.9 1.5 2.4 1.1 2.4 1.1.6-.3-1.6-1.3-4.9-2.4-3.5-1.2m-30.3 3.3c.7.3 1.6.2 1.9-.1.4-.3-.2-.6-1.3-.5-1.1 0-1.4.3-.6.6m11.5 0c.9.2 2.3.2 3 0 .6-.3-.1-.5-1.8-.5-1.6 0-2.2.2-1.2.5m41.6 2L479 372l2.8-2.4c2.5-2.3 3.2-3.1 2.4-3.1-.2 0-1.4 1.2-2.8 2.7m-64.8-.1c0 1.1.3 1.4.6.6.3-.7.2-1.6-.1-1.9-.3-.4-.6.2-.5 1.3m-2.9 1.4c0 1.4.2 1.9.5 1.2.2-.6.2-1.8 0-2.5-.3-.6-.5-.1-.5 1.3m54.5.1c.4 1.3.8 1.8 1.1 1 .2-.7-.1-1.8-.6-2.3-.8-.8-.9-.4-.5 1.3m-61.5 1.4c0 1.6.2 2.2.5 1.2.2-.9.2-2.3 0-3-.3-.6-.5.1-.5 1.8m20.6-1.8c.7.3 1.6.2 1.9-.1.4-.3-.2-.6-1.3-.5-1.1 0-1.4.3-.6.6m13 0c.6.2 1.8.2 2.5 0 .6-.3.1-.5-1.3-.5s-1.9.2-1.2.5m5.7 1.3c1.1.5 2.7.9 3.5.9.9 0 .8-.4-.5-.9-1.1-.5-2.7-.9-3.5-.9-.9 0-.8.4.5.9M202.5 374c1.3 1.4 2.6 2.5 2.8 2.5.3 0-.5-1.1-1.8-2.5s-2.6-2.5-2.8-2.5c-.3 0 .5 1.1 1.8 2.5m53.3 1c0 2.2.2 3 .4 1.7.2-1.2.2-3 0-4-.3-.9-.5.1-.4 2.3m136.8-1.9c0 1.1.3 1.4.6.6.3-.7.2-1.6-.1-1.9-.3-.4-.6.2-.5 1.3m82.9-.1c-1.4.8-2 1.4-1.4 1.5.5 0 1.9-.7 3-1.5 2.4-1.8 1.6-1.9-1.6 0m-50 .5c-1.1.8-.7.9 1.5.4 3.7-.8 4.5-1.4 1.9-1.4-1 0-2.6.5-3.4 1m13.3-.3c.9.2 2.5.2 3.5 0 .9-.3.1-.5-1.8-.5s-2.7.2-1.7.5m-43.2 1.9c0 1.1.3 1.4.6.6.3-.7.2-1.6-.1-1.9-.3-.4-.6.2-.5 1.3m49.5-.3c.3 1 .9 1.5 1.2 1.2s0-1.1-.7-1.8c-1-.9-1.1-.8-.5.6m8.4-.9c0 .2.7.7 1.6 1 .8.3 1.2.2.9-.4-.6-1-2.5-1.4-2.5-.6m-279.7 1.3c2 .2 5.4.2 7.5 0 2-.2.3-.4-3.8-.4s-5.8.2-3.7.4m100.7.8c.7.9 1.5 1.3 1.7 1.1.7-.7-.7-2.6-1.9-2.6-.6 0-.6.6.2 1.5m4-.5c0 .5.5 1 1.1 1 .5 0 .7-.5.4-1-.3-.6-.8-1-1.1-1-.2 0-.4.4-.4 1m4.3-.3c.9.2 2.3.2 3 0 .6-.3-.1-.5-1.8-.5-1.6 0-2.2.2-1.2.5m120 7.3c0 4.7.2 6.6.4 4.2.2-2.3.2-6.1 0-8.5-.2-2.3-.4-.4-.4 4.3m12.1 1c0 5.2.1 7.4.3 4.7.2-2.6.2-6.8 0-9.5-.2-2.6-.3-.4-.3 4.8m3 0c0 5.2.1 7.4.3 4.7.2-2.6.2-6.8 0-9.5-.2-2.6-.3-.4-.3 4.8m-252.6-7.3c.7.3 1.6.2 1.9-.1.4-.3-.2-.6-1.3-.5-1.1 0-1.4.3-.6.6m122.7 2.5c-2 2.2-2.4 3-1.2 2.5 1-.4 2.4-.7 3-.7.7 0 2-1.2 3-2.5 2.8-3.9-1-3.3-4.8.7m117.8 4.3c0 4.4.2 6.1.4 3.7.2-2.3.2-5.9 0-8-.2-2-.4-.1-.4 4.3m23.5-6.8c.6.2 1.8.2 2.5 0 .6-.3.1-.5-1.3-.5s-1.9.2-1.2.5m9.5 0c.9.2 2.3.2 3 0 .6-.3-.1-.5-1.8-.5-1.6 0-2.2.2-1.2.5m28.2 3.3c2.1 2.2 4.1 4 4.4 4s-1.3-1.8-3.4-4-4.1-4-4.4-4 1.3 1.8 3.4 4m-42-2c-.3.6.1.7.9.4 1.8-.7 2.1-1.4.7-1.4-.6 0-1.3.4-1.6 1m34.5-.7c0 .2 1.9 1.9 4.3 3.7 2.3 1.9 3.6 2.6 2.8 1.7-1.5-1.9-7.1-6.1-7.1-5.4m-193.4 4.9c-1.2 8.6 4.3 32.3 7.6 32.3 3.6 0 1-26.3-3.3-33.4-2.5-4.2-3.6-3.9-4.3 1.1m5.4 5.6c2.5 7.9 4 26.2 2.2 26.2-.7 0-1.2-1.1-1.2-2.5 0-1.3-.9-4.7-2-7.6-2.4-6-4.1-24.7-2.2-23.5.6.4 2.1 3.7 3.2 7.4m-1.8 1.2c0 1.4.2 1.9.5 1.2.2-.6.2-1.8 0-2.5-.3-.6-.5-.1-.5 1.3m.3 7c-.4 1.2-.5 2.4-.2 2.7.3.2.8-.5 1.2-1.7s.5-2.4.2-2.7c-.3-.2-.8.5-1.2 1.7M420.8 381c0 2.2.2 3 .4 1.7.2-1.2.2-3 0-4-.3-.9-.5.1-.4 2.3m-254.7-.7c-7.8 2.2-7.9 3.5-.7 7.2 7.3 3.6 8.7 3.7 9.5.5 1.4-5.5 7.7-5 12.5 1.1s1.6 8.5-3.4 2.6c-1.8-2-3.5-3.5-3.7-3.2-.1.3-1 1.8-1.9 3.5-2 3.9-8.2 4-15.9.1l-5.1-2.6.7 2.3c3.8 12.8 34.1 15.2 43.9 3.5 9.5-11.2-14.2-21.1-35.9-15m228.7 4.7c0 3.8.2 5.3.4 3.2.2-2 .2-5.2 0-7-.2-1.7-.4-.1-.4 3.8m-132.1-3c0 1.6.2 2.2.5 1.2.2-.9.2-2.3 0-3-.3-.6-.5.1-.5 1.8m161 0c0 1.6.2 2.2.5 1.2.2-.9.2-2.3 0-3-.3-.6-.5.1-.5 1.8m-128.9-.1c-1.9.9-3.2 2.6-2 2.6.8 0 6.7-3.2 6.7-3.6 0-.7-2.4-.2-4.7 1m97 4.1c0 3.3.2 4.5.4 2.7s.2-4.5 0-6-.4 0-.4 3.3M213 383.5c1 1.1 2 2 2.3 2s-.3-.9-1.3-2-2-2-2.3-2 .3.9 1.3 2m256.8 4.9c1.2 2.2 2.3 3.8 2.5 3.6.5-.5-2.6-6.3-3.7-6.9-.5-.4 0 1.2 1.2 3.3m-207 .6c0 2.2.2 3 .4 1.7.2-1.2.2-3 0-4-.3-.9-.5.1-.4 2.3m-108.1-.5c0 1.4.2 1.9.5 1.2.2-.6.2-1.8 0-2.5-.3-.6-.5-.1-.5 1.3m131.8.1c-1.9 1-2.9 1.9-2.2 1.9 2.2 0 9.2-2.5 9.2-3.2 0-1.4-3.4-.7-7 1.3m-9.9 2.5c0 1.1.3 1.4.6.6.3-.7.2-1.6-.1-1.9-.3-.4-.6.2-.5 1.3m21.4 1.5c-.5 1.6-1 1.8-2.1.8-1.1-.9-1.4-.8-1.4.2 0 1.5-6.2 6.9-7.9 6.9-.6 0-1.1.5-1.1 1 0 1.4 5.4-1.5 8-4.3 1.2-1.2 2.6-2.2 3.2-2.2s1.7-1 2.6-2.3c.8-1.2 1-2.2.4-2.2s-1.4.9-1.7 2.1m-142.4.5c0 1.1.3 1.4.6.6.3-.7.2-1.6-.1-1.9-.3-.4-.6.2-.5 1.3m52.1.4c0 1.4.2 1.9.5 1.2.2-.6.2-1.8 0-2.5-.3-.6-.5-.1-.5 1.3m199 1c0 1.4.2 1.9.5 1.2.2-.6.2-1.8 0-2.5-.3-.6-.5-.1-.5 1.3m7 1c0 1.4.2 1.9.5 1.2.2-.6.2-1.8 0-2.5-.3-.6-.5-.1-.5 1.3m13.9-1.5c.1 1.9 1.8 5.1 1.8 3.5 0-.8-.4-2.2-.9-3s-.9-1.1-.9-.5m-178 2.1c0 1.1.3 1.4.6.6.3-.7.2-1.6-.1-1.9-.3-.4-.6.2-.5 1.3m28.1.4c0 1.4.2 1.9.5 1.2.2-.6.2-1.8 0-2.5-.3-.6-.5-.1-.5 1.3m117.9-.4c0 1.1.3 1.4.6.6.3-.7.2-1.6-.1-1.9-.3-.4-.6.2-.5 1.3m-132 1c0 1.1.3 1.4.6.6.3-.7.2-1.6-.1-1.9-.3-.4-.6.2-.5 1.3m129 0c0 1.1.3 1.4.6.6.3-.7.2-1.6-.1-1.9-.3-.4-.6.2-.5 1.3m24 0c0 1.1.3 1.4.6.6.3-.7.2-1.6-.1-1.9-.3-.4-.6.2-.5 1.3m-211.7 1.6L203 401l2.3-1.9c2.1-1.8 2.7-2.6 1.9-2.6-.2 0-1.2 1-2.3 2.2m268.7.4c0 1.1.3 1.4.6.6.3-.7.2-1.6-.1-1.9-.3-.4-.6.2-.5 1.3m-223.1.3c0 .6.4 1.3 1 1.6s.7-.1.4-.9c-.7-1.8-1.4-2.1-1.4-.7m161.5 1c-.7 2.3-2 2.7-2.8 1.1-.3-.6-.4-.5-.3.2.4 2.1 2.4 2 3.6-.2.6-1.2.9-2.4.7-2.7-.3-.2-.8.5-1.2 1.6m-113.3 2.1c-2.4 3.2-1.5 4.2 1 1.2 2.2-2.6 3-4.2 2-4.2-.4 0-1.8 1.3-3 3m130.9 0c0 1.9-1.2 5.4-2.6 7.8-1.3 2.3-2 4-1.4 3.7 2.1-1.3 5-8.7 4.6-11.8l-.4-3.2zm-2.9 0c0 1.4.2 1.9.5 1.2.2-.6.2-1.8 0-2.5-.3-.6-.5-.1-.5 1.3M278.8 406c0 2.7.2 3.8.4 2.2.2-1.5.2-3.7 0-5-.2-1.2-.4 0-.4 2.8m-24.8-1.5c1 1.1 2 2 2.3 2s-.3-.9-1.3-2-2-2-2.3-2 .3.9 1.3 2m-81.7 1.7c.7.3 1.6.2 1.9-.1.4-.3-.2-.6-1.3-.5-1.1 0-1.4.3-.6.6m15 0c.7.3 1.6.2 1.9-.1.4-.3-.2-.6-1.3-.5-1.1 0-1.4.3-.6.6m102.7 1.3c-3.3 2.2-2.9 2.6 1 .8 1.4-.6 2.5-1.5 2.5-2 0-1.1-.1-1.1-3.5 1.2m108.6-.4c0 1.1.3 1.4.6.6.3-.7.2-1.6-.1-1.9-.3-.4-.6.2-.5 1.3m70.3 2.6L467 412l2.3-1.9c1.2-1.1 2.2-2.1 2.2-2.3 0-.8-.8-.2-2.6 1.9m-6.9 7-4 4.3 4.3-4c3.9-3.6 4.7-4.5 3.9-4.5-.2 0-2.1 1.9-4.2 4.2m-194.8-2.1c.7.7 1.5 1 1.8.7s-.2-.9-1.2-1.2c-1.4-.6-1.5-.5-.6.5m14.8-.1c-1.3.5-1.4.9-.5.9.8 0 2.4-.4 3.5-.9 1.3-.5 1.4-.9.5-.9-.8 0-2.4.4-3.5.9m138.9 4.5c-1.5 2-2.5 3.7-2.3 3.9s1.6-1.4 3.1-3.5c3.5-4.9 2.8-5.1-.8-.4m45-1.3L464 420l2.3-1.9c2.1-1.8 2.7-2.6 1.9-2.6-.2 0-1.2 1-2.3 2.2m37.4-1.5c.7.3 1.6.2 1.9-.1.4-.3-.2-.6-1.3-.5-1.1 0-1.4.3-.6.6m-232 1c.7.3 1.6.2 1.9-.1.4-.3-.2-.6-1.3-.5-1.1 0-1.4.3-.6.6m226.7 3.4c-.4.6-.5 1.2-.2 1.5.2.3.7-.2 1-1.1.7-1.7.1-2-.8-.4m-36.6 1.6c-1.3 1.6-1.2 1.7.4.4s2.1-2.1 1.3-2.1c-.2 0-1 .8-1.7 1.7m23.4 1c.9.2 2.5.2 3.5 0 .9-.3.1-.5-1.8-.5s-2.7.2-1.7.5m28.4 1.4c.4 1.3.8 1.8 1.1 1 .2-.7-.1-1.8-.6-2.3-.8-.8-.9-.4-.5 1.3m3.4-.5c0 1.1.3 1.4.6.6.3-.7.2-1.6-.1-1.9-.3-.4-.6.2-.5 1.3m-24.9.8c.7.8 1.5 1.2 1.7 1.1.5-.6-1-2.5-2-2.5-.5 0-.4.6.3 1.4m-6.9 1.3c.9.2 2.5.2 3.5 0 .9-.3.1-.5-1.8-.5s-2.7.2-1.7.5m11.9 2.3c0 1.9.2 2.7.5 1.7.2-.9.2-2.5 0-3.5-.3-.9-.5-.1-.5 1.8m3 0c0 1.9.2 2.7.5 1.7.2-.9.2-2.5 0-3.5-.3-.9-.5-.1-.5 1.8m-125.4-1.3c.7.3 1.6.2 1.9-.1.4-.3-.2-.6-1.3-.5-1.1 0-1.4.3-.6.6m39.5 3.3c0 2.5.2 3.5.4 2.2.2-1.2.2-3.2 0-4.5-.2-1.2-.4-.2-.4 2.3m2.9 0c0 1.9.2 2.7.5 1.7.2-.9.2-2.5 0-3.5-.3-.9-.5-.1-.5 1.8m58.2.2L472 434l3.5-3c1.9-1.7 3.7-3.1 3.9-3.3.2-.1 0-.2-.5-.2-.6 0-2.3 1.5-4 3.2m-113.4-.2c-.8.5-1 1-.5 1 .6 0 1.7-.5 2.5-1s1.1-1 .5-1c-.5 0-1.7.5-2.5 1m12.8-.3c.7.3 1.6.2 1.9-.1.4-.3-.2-.6-1.3-.5-1.1 0-1.4.3-.6.6m83.3 1.9c0 1.1.3 1.4.6.6.3-.7.2-1.6-.1-1.9-.3-.4-.6.2-.5 1.3m52.8.1c-1.3 1.6-1.2 1.7.4.4s2.1-2.1 1.3-2.1c-.2 0-1 .8-1.7 1.7m0 4L508 439l2.8-2.4c1.5-1.4 2.7-2.6 2.7-2.8 0-.8-.8-.1-3.1 2.4m-152.5-.1c-1.8 1.4-1.8 1.5.4.4 1.2-.6 2.2-1.3 2.2-1.5 0-.8-.5-.6-2.6 1.1m59.6-1.2c0 1.3 4 8.5 5.1 9.2.6.4-.1-1.5-1.7-4.2-3.2-5.7-3.4-6-3.4-5m38.1 2.2c0 1.1.3 1.4.6.6.3-.7.2-1.6-.1-1.9-.3-.4-.6.2-.5 1.3m60.9-.2c0 .2.8 1 1.8 1.7 1.5 1.3 1.6 1.2.3-.4s-2.1-2.1-2.1-1.3m-285.2 1.3c.7.3 1.6.2 1.9-.1.4-.3-.2-.6-1.3-.5-1.1 0-1.4.3-.6.6m156.8.3c.7.8 1.4 2.4 1.7 3.5.4 1.9.5 1.9.6-.1a5 5 0 0 0-1.6-3.5c-1.6-1.2-1.7-1.2-.7.1m-148.8.7c1.2.2 3 .2 4 0 .9-.3-.1-.5-2.3-.4-2.2 0-3 .2-1.7.4m10 0c.6.2 1.8.2 2.5 0 .6-.3.1-.5-1.3-.5s-1.9.2-1.2.5m145.6 1.5L393 443l2.3-1.9c1.2-1.1 2.2-2.1 2.2-2.3 0-.8-.8-.2-2.6 1.9m-125.6-.5c.7.3 1.6.2 1.9-.1.4-.3-.2-.6-1.3-.5-1.1 0-1.4.3-.6.6m78.9 3c-3.1 3.2-3.9 3.5-4.7 2.3-.6-.9-1-1-1-.3 0 3.6 3.4 2.5 7.5-2.5 3.6-4.3 2.8-4.1-1.8.5m22.9-2.1c-2.6.9-4.6 1.7-4.4 1.9s2.6-.2 5.3-1c5.7-1.8 13.1-2 14-.4.4.6-.3 2.3-1.6 3.7l-2.3 2.7 2.7-2.6c5.9-5.4-1.9-7.9-13.7-4.3m26.1 2.2c-2 2.1-3.7 4-3.7 4.4 0 .3 1.8-1.2 4-3.4 3.3-3.3 4.5-3.9 6.9-3.6 1.7.2 2.8.1 2.5-.4-1.3-2.1-6.1-.6-9.7 3m74.4-1.7c-.1.8.6 2.4 1.5 3.5 1.5 1.9 1.5 1.9.6-.1-.5-1.1-1.2-2.7-1.5-3.5-.5-1.3-.6-1.3-.6.1m-213.3.6c.7.3 1.6.2 1.9-.1.4-.3-.2-.6-1.3-.5-1.1 0-1.4.3-.6.6m152.6 2.5c1.6 2.1 3.9 6.4 5.2 9.5 1.3 3.2 2.4 5.1 2.4 4.2 0-2.4-5.7-13.4-8.2-15.5-1.6-1.4-1.5-1 .6 1.8m-149.4-.1c-11.5 2.3-20.6 2.9-20.3 1.3.1-.7-1.3-1.4-3.2-1.6-1.8-.2-3.2-.1-2.9.3.2.4-.7 2.7-2.1 5.1-6.9 12.4-3.5 24.1 8.9 30.6 4.7 2.4 6.3 2.7 21.6 3.2 18.3.6 19.8 1 27 7.9 3.9 3.7 5.1 6.1 2.9 6.1-.6 0-2.4-1.4-4.1-3-4.1-4.2-8.4-6.5-4.9-2.7 2.1 2.3 2.2 2.9 1 4.4-.7 1-.9 1.5-.5 1.1.5-.4 3 1.2 5.6 3.6 10 9.4 19.8 7.7 32.6-5.6 12-12.5 18-29.2 12.4-34.8-2.7-2.7-4.3-2.6-20.3 1.2-14.1 3.4-17 5.3-7.9 5.3 7.4 0 6.9 1.9-.5 2.3-12.5.6-18.7-3-19.8-11.4-1.3-10.5-1.6-11.4-4.1-13.1-3.7-2.4-10.6-2.4-21.4-.2m20.9 1.6c1.6 1.4 2.3 3.6 3 9.2 1.4 10.7 5.1 14.1 17.1 15.5 6.4.8 11.5-.5 11.5-2.9 0-1.7-.6-2-4.5-1.7-7 .5-3.7-1.2 8.2-4.2 12.6-3.1 14.5-3.2 17-.9 5 4.5-1 21.7-11.5 32.9-11.9 12.8-25 14.9-33 5.5-3.3-4-3.6-6.3-.4-3.3 6.6 6.3 7.5.4.9-6.1-6.3-6.2-12.8-8.7-22.9-8.7-8.4 0-9.7-.8-1.8-1.1 6.3-.2 9.5-.9 9.5-2 0-.5-.8-.9-1.9-.9-2.6 0-3.2-4.2-3-18.7l.1-11.7-5.8.1-5.9.1 6-1.3c8.8-1.9 14.9-1.8 17.4.2m-37.6-2c.9.2 2.5.2 3.5 0 .9-.3.1-.5-1.8-.5s-2.7.2-1.7.5m117.1.9c-1.8 1.4-1.8 1.4.6.3 3.1-1.4 3.6-1.9 2.4-1.9-.6 0-1.9.7-3 1.6m37.2.3c-.4.5.3.7 1.4.4 2.3-.6 2.6-1.3.6-1.3-.8 0-1.7.4-2 .9m59.4.6c0 .5.5 1.7 1 2.5s1 1 1 .5c0-.6-.5-1.7-1-2.5s-1-1.1-1-.5m63.2 2.5c0 1.9.2 2.7.5 1.7.2-.9.2-2.5 0-3.5-.3-.9-.5-.1-.5 1.8m-166.4 1c-2.9 3-3.3 5.2-1 5.6.7.1.8 0 .2-.3-1.6-.8-1.2-1.9 2.2-5.2 1.7-1.7 2.8-3.1 2.4-3.1s-2.1 1.4-3.8 3m43.4 2.1c-1.8 2.7-3 4.9-2.8 4.9.7 0 6.9-9.1 6.4-9.5-.1-.2-1.8 1.9-3.6 4.6m-21.7-1.5c-2.2 1.3-3.5 2.4-3 2.4 1.2 0 7.5-3.8 7.5-4.5 0-.6.2-.7-4.5 2.1m8.4-.9c-1.3 1.6-1.2 1.7.4.4s2.1-2.1 1.3-2.1c-.2 0-1 .8-1.7 1.7m11 0c-1.3 1.6-1.2 1.7.4.4s2.1-2.1 1.3-2.1c-.2 0-1 .8-1.7 1.7m78.9-.2c.6 1.1 2.1 2.9 3.4 4 2.2 1.9 2.2 1.9-.2-1-4-4.8-4.3-5.1-3.2-3m-186.7 1.1c0 1.1.3 1.4.6.6.3-.7.2-1.6-.1-1.9-.3-.4-.6.2-.5 1.3m103.4.5c-.4.6-.5 1.2-.2 1.5.2.3.7-.2 1-1.1.7-1.7.1-2-.8-.4m-3.2 1.3c.1 1.1.9 2.1 1.7 2.3 1 .3 1.1.2.4-.4-.6-.4-1.4-1.5-1.7-2.3-.5-1.1-.6-.9-.4.4m2.7 3.8c-1.9 2.4-2.6 3.7-1.7 2.9 1.9-1.5 6.1-7.1 5.4-7.1-.2 0-1.9 1.9-3.7 4.2m108.8-3.5c.7.3 1.6.2 1.9-.1.4-.3-.2-.6-1.3-.5-1.1 0-1.4.3-.6.6m-72.7.3c0 .3.6 2.5 1.3 5 .8 2.5 1.5 3.6 1.5 2.5 0-1.7-2.6-8.8-2.8-7.5m-63.1 2c-2 .6-2.1.8-.5.8 1.1 0 2.9-.3 4-.8 2.5-1.1-.1-1.1-3.5 0m96.9 2.2c-.3 2.2-.1 3.4.4 2.9s.7-2.1.5-3.7c-.3-2.7-.4-2.6-.9.8m3.3-.2c0 1.9.2 2.7.5 1.7.2-.9.2-2.5 0-3.5-.3-.9-.5-.1-.5 1.8m18.7-.1c1.3 1.2 2.8 2.1 3.4 2.1 1.2 0 1.1 0-2.8-2.4l-3-1.7zm-160.1-.2c.7.3 1.6.2 1.9-.1.4-.3-.2-.6-1.3-.5-1.1 0-1.4.3-.6.6m34.5 0c.9.2 2.3.2 3 0 .6-.3-.1-.5-1.8-.5-1.6 0-2.2.2-1.2.5m147.9 1.8c0 1.6.2 2.2.5 1.2.2-.9.2-2.3 0-3-.3-.6-.5.1-.5 1.8m-216.1.1c0 1.1.3 1.4.6.6.3-.7.2-1.6-.1-1.9-.3-.4-.6.2-.5 1.3m205.6.3c-.4 1.7-.3 2.1.5 1.3.5-.5.8-1.6.6-2.3-.3-.8-.7-.3-1.1 1m7.4-.3c0 1.1.3 1.4.6.6.3-.7.2-1.6-.1-1.9-.3-.4-.6.2-.5 1.3m-136.3.1c.7.3 1.6.2 1.9-.1.4-.3-.2-.6-1.3-.5-1.1 0-1.4.3-.6.6m-10 1c1.2.2 3.2.2 4.5 0 1.2-.2.2-.4-2.3-.4s-3.5.2-2.2.4m65.3.9c0 1.1.3 1.4.6.6.3-.7.2-1.6-.1-1.9-.3-.4-.6.2-.5 1.3m76.9.5c0 .5.9.9 2 .9s2-.2 2-.4-.9-.6-2-.9-2-.1-2 .4m-113.1 2.6L383 466l2.8-2.4c2.5-2.3 3.2-3.1 2.4-3.1-.2 0-1.4 1.2-2.8 2.7m3.6 1.5-4 4.3 4.3-4c2.3-2.1 4.2-4 4.2-4.2 0-.8-.9 0-4.5 3.9m29.6-2.6c0 1.1.3 1.4.6.6.3-.7.2-1.6-.1-1.9-.3-.4-.6.2-.5 1.3m-118.8.1c.9.2 2.3.2 3 0 .6-.3-.1-.5-1.8-.5-1.6 0-2.2.2-1.2.5m157.3.8c-1.1.8-1.5 1.5-.9 1.5s1.6-.7 2.3-1.5c1.6-1.9 1.1-1.9-1.4 0m4.8.7L460 466l2.3-1.9c2.1-1.8 2.7-2.6 1.9-2.6-.2 0-1.2 1-2.3 2.2m-31.2 1.3c0 1.6.2 2.2.5 1.2.2-.9.2-2.3 0-3-.3-.6-.5.1-.5 1.8m64-.1c.7.8 1.5 1.2 1.7 1.1.5-.6-1-2.5-2-2.5-.5 0-.4.6.3 1.4m-75 1.6c0 1.4.2 1.9.5 1.2.2-.6.2-1.8 0-2.5-.3-.6-.5-.1-.5 1.3m31.6-1.3c.6.2 1.8.2 2.5 0 .6-.3.1-.5-1.3-.5s-1.9.2-1.2.5m61.4 2.3c0 1.9.2 2.7.5 1.7.2-.9.2-2.5 0-3.5-.3-.9-.5-.1-.5 1.8m-85.1-.4c0 1.1.3 1.4.6.6.3-.7.2-1.6-.1-1.9-.3-.4-.6.2-.5 1.3m16.3.4c.1 1 1.3 1.5 4.1 1.6l4 .1-3.7-.4c-2-.2-3.9-1-4.1-1.6-.2-.7-.3-.5-.3.3m13.6-1c-.9.6-1 1-.3 1 .6 0 1.5-.5 1.8-1 .8-1.2.4-1.2-1.5 0m58.2 1c0 1.4.2 1.9.5 1.2.2-.6.2-1.8 0-2.5-.3-.6-.5-.1-.5 1.3m-157.4-.3c1.2.2 3.2.2 4.5 0 1.2-.2.2-.4-2.3-.4s-3.5.2-2.2.4m16 1c.7.3 1.6.2 1.9-.1.4-.3-.2-.6-1.3-.5-1.1 0-1.4.3-.6.6m-24.4 2.5L348 473l2.3-1.9c2.1-1.8 2.7-2.6 1.9-2.6-.2 0-1.2 1-2.3 2.2m33.2-1.5c-.4.4-4.9 1.1-9.9 1.4l-9.2.7 9.2-.2c5.9 0 9.7-.6 10.5-1.4.6-.6 1-1.2.7-1.2s-.9.3-1.3.7m78.4-.3c0 .2.7.7 1.6 1 .8.3 1.2.2.9-.4-.6-1-2.5-1.4-2.5-.6m-105.6 2c-3.1 1.4-7.4 6-7.4 8 0 .6.9-.3 2-2.1 2.2-3.6 4.2-4.9 9.7-6.2 2.7-.7 3.1-.9 1.3-1a18 18 0 0 0-5.6 1.3m64.9 3.6c0 3 .2 4.3.4 2.7.2-1.5.2-3.9 0-5.5-.2-1.5-.4-.2-.4 2.8m10.7-4.1c0 .9 5.9 6.6 6.3 6 .1-.2-1.2-1.8-3-3.6-1.8-1.7-3.3-2.8-3.3-2.4m-7.7 4.6c0 2.7.2 3.8.4 2.2.2-1.5.2-3.7 0-5-.2-1.2-.4 0-.4 2.8m79.5-2.8c.7.3 1.6.2 1.9-.1.4-.3-.2-.6-1.3-.5-1.1 0-1.4.3-.6.6m-49.3 2.4c-1.6 1-2.5 1.9-1.9 1.9.7 0 2.2-.9 3.5-2 3-2.4 2.3-2.4-1.6.1m-23 .9c1 1.1 2 2 2.3 2s-.3-.9-1.3-2-2-2-2.3-2 .3.9 1.3 2m-201.5.4c0 .2.8 1 1.8 1.7 1.5 1.3 1.6 1.2.3-.4s-2.1-2.1-2.1-1.3m210.8 1.3c.7.3 1.6.2 1.9-.1.4-.3-.2-.6-1.3-.5-1.1 0-1.4.3-.6.6m7 0c.7.3 1.6.2 1.9-.1.4-.3-.2-.6-1.3-.5-1.1 0-1.4.3-.6.6m-101.7 11c-2.9 9.9-6.1 15.5-10.7 18.4-3 1.8-3.8 2-4.6.8s-.9-1.2-.6 0c1 3.5 7.5.2 11.6-5.9 2.3-3.4 7.8-19.7 7-20.5-.3-.3-1.5 3-2.7 7.2m74.1-5.7c0 1.4.2 1.9.5 1.2.2-.6.2-1.8 0-2.5-.3-.6-.5-.1-.5 1.3m-4 9.6c-1.2 1.9-2 3.4-1.8 3.4.7 0 4.9-6.1 4.4-6.5-.2-.2-1.3 1.2-2.6 3.1m-43.8.3c-3.9 1.8-7.4 5.3-7.4 7.6 0 .5.9-.4 1.9-2.1 1.7-2.9 4-4.1 12.1-6.8 1-.3.9-.5-.5-.5-1.1 0-3.9.8-6.1 1.8m12.6.6c4.6 1.8 6.4 1.7 2.5 0-1.6-.8-3.7-1.4-4.5-1.4s.1.7 2 1.4m-127.6 1.6c-4.3 1.2-18 13.9-14.4 13.3 3.3-.6 8.7 2.8 10.2 6.3.7 1.6 1.3 2.9 1.4 3.1s1.6-.4 3.3-1.2c1.6-.9 4.8-1.6 7-1.6 9 0 9.6-14.8.9-19.6-2.7-1.5-4.1-1.6-8.4-.3m12.1 6.9c1.7 3.7 1.7 4.3.3 7.3l-1.5 3.2.1-5.8c.1-5-.2-6.2-2.1-7.7-2.8-2.2-3-3.5-.5-2.1 1 .5 2.7 2.8 3.7 5.1m.5-7.6c0 .2.8 1 1.8 1.7 1.5 1.3 1.6 1.2.3-.4s-2.1-2.1-2.1-1.3m-22.1 2.3c-1.3 1.6-1.2 1.7.4.4s2.1-2.1 1.3-2.1c-.2 0-1 .8-1.7 1.7m128.9-1c.6.2 1 .9.6 1.4-.3.5-.1.9.5.9.5 0 1.1.6 1.4 1.2.2.7.2.3.1-.9-.3-1.4.2-2.3 1.3-2.6 1-.3.2-.5-1.7-.5s-2.9.2-2.2.5m16.7.8c1.7.8 3.7 1.4 4.5 1.4s-.1-.7-2-1.4c-4.6-1.8-6.4-1.7-2.5 0m-22.6 2.4c-2.4 2.4-2.9 3.7-2.8 7.3l.2 4.3.6-4.9c.6-3.7 1.4-5.4 3.7-7.2 1.6-1.3 2.5-2.4 2.1-2.4-.5 0-2.2 1.3-3.8 2.9m40.1-1.9c-.9.6-1 1-.3 1 .6 0 1.5-.5 1.8-1 .8-1.2.4-1.2-1.5 0m-10.2 1.7c.6.2 1.8.2 2.5 0 .6-.3.1-.5-1.3-.5s-1.9.2-1.2.5m-26.7 5.2c-2.9 6.9-2.6 7.8.5 1.2 1.3-3 2.3-5.6 2-5.8-.2-.2-1.3 1.9-2.5 4.6m-86.1-.4c1.3 1.4 2.6 2.5 2.8 2.5.3 0-.5-1.1-1.8-2.5s-2.6-2.5-2.8-2.5c-.3 0 .5 1.1 1.8 2.5m111.8-1.8c.7.3 1.6.2 1.9-.1.4-.3-.2-.6-1.3-.5-1.1 0-1.4.3-.6.6m9 0c.7.3 1.6.2 1.9-.1.4-.3-.2-.6-1.3-.5-1.1 0-1.4.3-.6.6m-44.4 5.3c.1 3.5.5 4.5 1.9 4.6q1.65.15.3-.3c-.9-.2-1.6-2.1-1.9-4.6l-.4-4.2zm-62.6 3.7c1.2.2 3 .2 4 0 .9-.3-.1-.5-2.3-.4-2.2 0-3 .2-1.7.4m23.5 1.8c-.3.9-.3 1.9.1 2.2.3.4.6-.1.6-1 0-3 1.7-1.8 3.4 2.2 4.1 10.5 15.8 17.4 23.9 14.2 1-.4-.8-.7-4.1-.6-8.3 0-13.5-3.6-17.7-12.2-3-6.1-5-7.7-6.2-4.8m44.2 2.4c-2 4.5-6.5 9.5-11 12.3-1.6 1-2.5 1.8-1.9 1.8 3.9 0 17.3-15.5 15.1-17.6-.2-.2-1.2 1.4-2.2 3.5m18.3-2.2c1.2.2 3 .2 4 0 .9-.3-.1-.5-2.3-.4-2.2 0-3 .2-1.7.4m-155.9 2c-1.3 1.6-1.2 1.7.4.4s2.1-2.1 1.3-2.1c-.2 0-1 .8-1.7 1.7m168.1 2.8c1.3 1.4 2.6 2.5 2.8 2.5.3 0-.5-1.1-1.8-2.5s-2.6-2.5-2.8-2.5c-.3 0 .5 1.1 1.8 2.5m-17.9 1.7c-1.7 1.7-3.1 3.6-3.1 4 0 .5 1.4-.7 3-2.6 1.7-1.9 4.1-3.7 5.3-3.9 2.2-.4 2.2-.4.1-.6-1.2 0-3.5 1.3-5.3 3.1m10.5-2.1c3.6 1 8.4 6.1 11 11.4.9 2 1.8 3.4 2.1 3.2 2.1-2.1-10.1-15.8-14-15.6-1.7.1-1.5.3.9 1m-149.4 3.3c.7.8 1.5 1.2 1.7 1.1.5-.6-1-2.5-2-2.5-.5 0-.4.6.3 1.4m-3.8.7c-.3.6-.2 1.5.3 2s.9.1.9-1.1c0-2.3-.2-2.4-1.2-.9m27.9-.4c.9.2 2.3.2 3 0 .6-.3-.1-.5-1.8-.5-1.6 0-2.2.2-1.2.5m-20.4 2c-1.3 1.6-1.2 1.7.4.4s2.1-2.1 1.3-2.1c-.2 0-1 .8-1.7 1.7m24.9 0c.6.2 1.8.2 2.5 0 .6-.3.1-.5-1.3-.5s-1.9.2-1.2.5m-41.7 1.9c0 1.1.3 1.4.6.6.3-.7.2-1.6-.1-1.9-.3-.4-.6.2-.5 1.3m31.4.4c-.3.6.1.7.9.4 1.8-.7 2.1-1.4.7-1.4-.6 0-1.3.4-1.6 1m70.5 1.5c1.3 1.4 2.6 2.5 2.8 2.5.3 0-.5-1.1-1.8-2.5s-2.6-2.5-2.8-2.5c-.3 0 .5 1.1 1.8 2.5m-95.7.2c.9.2 2.3.2 3 0 .6-.3-.1-.5-1.8-.5-1.6 0-2.2.2-1.2.5m20.7.8c0 .8 1 1.9 2.3 2.5 2.1 1 2.1 1 .3-.4-1-.8-1.5-1.9-1.1-2.5.3-.6.1-1.1-.4-1.1-.6 0-1.1.7-1.1 1.5m117.3 4.5c0 2.5.2 3.5.4 2.2.2-1.2.2-3.2 0-4.5-.2-1.2-.4-.2-.4 2.3m-128.3-2c-.9.6-1 1-.3 1 .6 0 1.5-.5 1.8-1 .8-1.2.4-1.2-1.5 0m131.2 2c0 1.9.2 2.7.5 1.7.2-.9.2-2.5 0-3.5-.3-.9-.5-.1-.5 1.8m-122.3-.1c1.3.8 1.3 1.2.1 2.8-1.3 1.7-1.3 1.7.4.1 1.9-1.6 1.5-3.8-.7-3.8-.8 0-.7.4.2.9m-25.9 1c0 .6.4 1.3 1 1.6s.7-.1.4-.9c-.7-1.8-1.4-2.1-1.4-.7m7.8-.2c.7.3 1.6.2 1.9-.1.4-.3-.2-.6-1.3-.5-1.1 0-1.4.3-.6.6m110 1c1.2.2 3 .2 4 0 .9-.3-.1-.5-2.3-.4-2.2 0-3 .2-1.7.4m-110 2c.7.3 1.6.2 1.9-.1.4-.3-.2-.6-1.3-.5-1.1 0-1.4.3-.6.6m141.3 1.9c-.1 2.1 1.9 8.8 2.4 8.2.2-.2-.3-2.6-1-5.3-.8-2.8-1.4-4.1-1.4-2.9m-123.2 1.1c-1.3 1.6-1.2 1.7.4.4s2.1-2.1 1.3-2.1c-.2 0-1 .8-1.7 1.7m138 1L390 542l2.6-2.3c2.9-2.5 4.9-2.8 6.9-1 1.2 1.1 1.2 1 .1-.5-1.9-2.5-4.4-2.1-7.2 1m14.2-1.1c0 1.1.3 1.4.6.6.3-.7.2-1.6-.1-1.9-.3-.4-.6.2-.5 1.3m3 0c0 1.1.3 1.4.6.6.3-.7.2-1.6-.1-1.9-.3-.4-.6.2-.5 1.3m-169 1c0 1.1.3 1.4.6.6.3-.7.2-1.6-.1-1.9-.3-.4-.6.2-.5 1.3m162 0c0 1.1.3 1.4.6.6.3-.7.2-1.6-.1-1.9-.3-.4-.6.2-.5 1.3m-28 1c0 1.1.3 1.4.6.6.3-.7.2-1.6-.1-1.9-.3-.4-.6.2-.5 1.3m28.1 5.4c0 1.4.2 1.9.5 1.2.2-.6.2-1.8 0-2.5-.3-.6-.5-.1-.5 1.3m-14.2.3c0 1 .8 1.7 1.8 1.7.9 0 1.3-.4.7-.8-.5-.4-1.3-1.1-1.7-1.6-.5-.5-.8-.2-.8.7m18.1 1.3c0 1.1.3 1.4.6.6.3-.7.2-1.6-.1-1.9-.3-.4-.6.2-.5 1.3m3.1.4c0 1.4.2 1.9.5 1.2.2-.6.2-1.8 0-2.5-.3-.6-.5-.1-.5 1.3m-26.4 4.7c.7.3 1.6.2 1.9-.1.4-.3-.2-.6-1.3-.5-1.1 0-1.4.3-.6.6m20.8 3c-.6 1.4-.5 1.5.5.6.7-.7 1-1.5.7-1.8s-.9.2-1.2 1.2m-9.3 6c.9.2 2.3.2 3 0 .6-.3-.1-.5-1.8-.5-1.6 0-2.2.2-1.2.5m0 3c.9.2 2.5.2 3.5 0 .9-.3.1-.5-1.8-.5s-2.7.2-1.7.5"></path><path fill="#488699" d="M299.6 99.5c0 .8.4 2.2.9 3 1.2 1.8 1.2.2 0-2.5-.6-1.3-.9-1.5-.9-.5m1.9 5.6c0 .4 2.2 8.8 4.9 18.8 5.1 18.5 14.1 55.2 18.1 73.1 1.2 5.5 2.6 11.3 3 13 .5 1.6 3.2 14.7 6 29 7.2 37.1 7.1 36.8 8 35.9 1.8-1.8-9-59.1-17.8-94.9-9.3-37.6-22.2-81.2-22.2-74.9m67.8 93.1c.6.2 1.8.2 2.5 0 .6-.3.1-.5-1.3-.5s-1.9.2-1.2.5m4.2.7c0 .2.8 1 1.8 1.7 1.5 1.3 1.6 1.2.3-.4s-2.1-2.1-2.1-1.3m-11.1 3.3L360 205l2.8-2.4c2.5-2.3 3.2-3.1 2.4-3.1-.2 0-1.4 1.2-2.8 2.7m15.1-2.3c0 .2.8 1 1.8 1.7 1.5 1.3 1.6 1.2.3-.4s-2.1-2.1-2.1-1.3m-11.5 5c-12.6 12.6-11.9 41.5 1 38.8 3-.6 4-2 1.1-1.5-4.2.8-7.3-.5-8.4-3.4-1.8-4.7-2.3-8.3-1.2-8.3.5 0 1 1 1 2.2 0 7.1 5.1 10 10.5 6.1 1.9-1.4 1.9-1.5-.3-.8l-2.3.7 2-3.5c1.3-2.4 1.6-3.8.9-5.1s-.4-2.1 1.4-3.6c1.3-1.1 1.9-1.9 1.4-2-.4 0-2.2 1.1-3.8 2.5s-3.4 2.3-3.9 1.9c-1.4-.8-1.1-2.4.6-2.4 2.9 0 11.5-12.1 11.5-16.2 0-.7-1.2 1.2-2.6 4.2-2.7 5.9-6.9 11-9.1 11-1.6 0-1.7-2.2 0-3.9 1-1.2.9-1.3-.7-.7-1.6.5-1.7.4-.6-.8.6-.9 1.7-1.4 2.2-1.3 2.9.6 7.5-14.1 5-15.7-.4-.2-.6 1.1-.4 2.9.3 2.2-.4 5.1-1.8 8-2.9 6-3.5 5.2-1.5-2 .9-3.1 1.5-5.8 1.3-6.1-1.7-1.7-8.3 11.3-9.4 18.8-.4 2.1-1.1 3.8-1.5 3.8-.5 0-.7-1.2-.3-2.8 2.6-11.7 4.1-15.1 8.7-20 3.5-3.7 2.8-4.4-.8-.8m1.1 7.3c-1 1-1.9-.5-1-1.8.6-1.1.8-1.1 1.2 0 .2.7.1 1.5-.2 1.8m10.6-6.2c0 1.6.2 2.2.5 1.2.2-.9.2-2.3 0-3-.3-.6-.5.1-.5 1.8m3.9.1c0 1.1.3 1.4.6.6.3-.7.2-1.6-.1-1.9-.3-.4-.6.2-.5 1.3m1.1 5.4c-.1 1.9-.4 5.3-.7 7.5l-.5 4 1.1-4c.5-2.2.8-5.6.6-7.5l-.4-3.5zm4.1 3c0 3 .2 4.3.4 2.7.2-1.5.2-3.9 0-5.5-.2-1.5-.4-.2-.4 2.8m-7.1 12.7c-1.5 4.8-.8 5.5.8.8.7-2 1-3.8.8-4.1-.3-.2-1 1.3-1.6 3.3m-5.1 10c-1.9 2.7-2.5 4-1.5 3.1 1.8-1.6 5.9-7.8 5.1-7.8-.2 0-1.8 2.1-3.6 4.7m-146.3 2c.6.2 1.8.2 2.5 0 .6-.3.1-.5-1.3-.5s-1.9.2-1.2.5m147.6 3.5L373 246l3.3-2.9c3-2.8 3.7-3.6 2.9-3.6-.2 0-1.6 1.5-3.3 3.2m-147.6.5c.6.2 1.8.2 2.5 0 .6-.3.1-.5-1.3-.5s-1.9.2-1.2.5m128.7 1.3c1 1.1 2 2 2.3 2s-.3-.9-1.3-2-2-2-2.3-2 .3.9 1.3 2m-124.5-.6c0 .2.8 1 1.8 1.7 1.5 1.3 1.6 1.2.3-.4s-2.1-2.1-2.1-1.3m54.8.3c.7.3 1.6.2 1.9-.1.4-.3-.2-.6-1.3-.5-1.1 0-1.4.3-.6.6m5 0c.7.3 1.6.2 1.9-.1.4-.3-.2-.6-1.3-.5-1.1 0-1.4.3-.6.6m98 1c.7.3 1.6.2 1.9-.1.4-.3-.2-.6-1.3-.5-1.1 0-1.4.3-.6.6m9 0c.7.3 1.6.2 1.9-.1.4-.3-.2-.6-1.3-.5-1.1 0-1.4.3-.6.6m-75 5.3c-18.8 19.9-16.1 63.5 3.3 53.5 1.6-.9 2.7-2 2.4-2.6-.4-.5-.3-.9.2-.8 3.2.5 4.3-.2 3.3-2-1.7-3.3-1.2-12.3.9-15.4 1.8-2.8 1.8-3.1-.1-11.5-1-4.8-2.7-12.6-3.6-17.4l-1.8-8.7zm21.6-2.7c-.2.7.4 5.3 1.6 10.1 1.1 4.8 2 10 2 11.6 0 2.8.3 3 3.8 3 2 0 5.5.9 7.7 1.9 7.3 3.2 9.1 3.4 10.3.6.6-1.4.9-3.2.6-4-.4-.8-.1-2.2.6-3 1.4-1.7.6-4.7-1.2-4.3-2.9.5-9.7-1.6-15.4-4.7-6.4-3.6-10.8-7.6-6.9-6.2 1.6.6 1.6.4-.4-1.2-1.5-1.2-2.2-2.4-1.8-3.5.4-.9.4-1.6.1-1.6-.2 0-.7.6-1 1.3m22.6 25.7c0 1.3-1.1 1.3-3 0-1.2-.8-1.1-1 .8-1 1.2 0 2.2.4 2.2 1m37.1-26.7c.2.1 1.5 1.1 2.9 2.2l2.5 2-1.9-2.3c-1.1-1.2-2.4-2.2-2.9-2.2q-.9 0-.6.3m-102.1 1.1c0 .2.8 1 1.8 1.7 1.5 1.3 1.6 1.2.3-.4s-2.1-2.1-2.1-1.3m60.3.3c.9.2 2.5.2 3.5 0 .9-.3.1-.5-1.8-.5s-2.7.2-1.7.5m15.3 2.3c-2.2 1.7-3.3 3-2.5 3.1.8 0 .6.4-.6.9-2.3 1-.5 1.3 2 .4 1.2-.5 1.3-.9.5-1.4s0-1.6 2.6-3.4c2.1-1.4 3.4-2.6 2.9-2.6-.6 0-2.8 1.4-4.9 3m9.1-2.3c-.3.5.6.8 1.9.8s2.4-.3 2.4-.8c0-.4-.9-.7-1.9-.7-1.1 0-2.2.3-2.4.7m-105.3 2.1c-5.5 3.1-7.3 4.8-8.9 8.5-2 4.9-1.9 5.7 1 5.7 2.1 0 2.5.5 2.6 3.2.7 15.5-3.6 23.9-14.8 29.4-2.6 1.3-4 2.4-3 2.4 2.4 0 8.9-2.8 10-4.3.5-.7.6-.3.2 1s-.2 2.3.4 2.3c2.2 0-.3 3-3 3.7l-2.9.8 2.3 2.5c1.2 1.4 3.6 3.7 5.2 5.2l3 2.7 8.4-2.4c14.3-4 17.3-7.5 15.2-18-1.6-8.1-.9-15.8 2.4-25.6 4.1-11.9 3.2-15.2-4.4-17.8-4.8-1.6-10.1-1.3-13.7.7m-6.4 59.8c0 .2-.7.4-1.5.4s-1.5-.4-1.5-1c0-.5.7-.7 1.5-.4.8.4 1.5.8 1.5 1M218.8 253c0 2.2.2 3 .4 1.7.2-1.2.2-3 0-4-.3-.9-.5.1-.4 2.3m25.8.1c0 1.1.3 1.4.6.6.3-.7.2-1.6-.1-1.9-.3-.4-.6.2-.5 1.3m144.1.8c-4.6 3.3-5.3 4.3-1.4 2 1.9-1 3.8-2.5 4.4-3.2 1.5-1.7.8-1.4-3 1.2m-81 2.6c0 1.9.2 2.7.5 1.7.2-.9.2-2.5 0-3.5-.3-.9-.5-.1-.5 1.8m106.4-.7c.3 1 .9 1.5 1.2 1.2s0-1.1-.7-1.8c-1-.9-1.1-.8-.5.6m-182.7 3.4c-1.3 1.6-1.2 1.7.4.4s2.1-2.1 1.3-2.1c-.2 0-1 .8-1.7 1.7m148.1-.1c-3.3 1.3-3.3 1.4-.5.8 1.7-.3 3.4-1 4-1.5 1.1-1.1.8-1.1-3.5.7m-145.6 2.6L232 264l2.3-1.9c2.1-1.8 2.7-2.6 1.9-2.6-.2 0-1.2 1-2.3 2.2m6 0L238 264l2.3-1.9c2.1-1.8 2.7-2.6 1.9-2.6-.2 0-1.2 1-2.3 2.2m124.5-.9c.4.5 3.2.7 6.2.5l5.4-.3-6.2-.5c-3.4-.3-5.8-.1-5.4.3m56.3 3.7c0 1.9.2 2.7.5 1.7.2-.9.2-2.5 0-3.5-.3-.9-.5-.1-.5 1.8m-4.1.7c0 2-.9 3.7-2.3 4.7-1.2.9-1.8 1.6-1.2 1.6 2.2 0 4.6-3.8 4.1-6.7-.4-2.8-.4-2.8-.6.4m-149.8 4.3c0 3 .2 4.3.4 2.7.2-1.5.2-3.9 0-5.5-.2-1.5-.4-.2-.4 2.8m-39.5-1.8c.5.5 1.6.8 2.3.6.8-.3.3-.7-1-1.1-1.7-.4-2.1-.3-1.3.5m44.3 2.4c0 1.1.3 1.4.6.6.3-.7.2-1.6-.1-1.9-.3-.4-.6.2-.5 1.3m131.7 4.5c-2.1 1.1-3.8 2.2-3.8 2.4 0 .5 7.9-3.2 8.9-4.1 1.2-1.1-1.8-.1-5.1 1.7M216 276.5c1 1.1 2 2 2.3 2s-.3-.9-1.3-2-2-2-2.3-2 .3.9 1.3 2m13 0c1 1.1 2 2 2.3 2s-.3-.9-1.3-2-2-2-2.3-2 .3.9 1.3 2m41.5-.3c.1 1.8 2 3.9 2 2.1 0-.9-.4-2-1-2.3-.5-.3-1-.3-1 .2m97.5 3.7c4.4 4.4 5.7 16 2.3 20.6-.7.9-.4.8.8-.3 4.2-3.9.7-22.7-4.2-22.7-.8 0-.3 1 1.1 2.4m-61.2 5.1c0 3.3.2 4.5.4 2.7s.2-4.5 0-6-.4 0-.4 3.3m78.5 3.2c-10.9 10.1-11.8 11.2-11.7 13.2 0 1.1.3 1 .8-.4.8-1.9 13.3-14.6 19.1-19.4 1.4-1.1 2.2-2 1.8-2.1-.4 0-4.9 3.9-10 8.7m113.6-6.5L497 284l2.3-1.9c2.1-1.8 2.7-2.6 1.9-2.6-.2 0-1.2 1-2.3 2.2m-276.4-.8c0 .2.8 1 1.8 1.7 1.5 1.3 1.6 1.2.3-.4s-2.1-2.1-2.1-1.3m255.5.7c-.4.6-.5 1.2-.2 1.5.2.3.7-.2 1-1.1.7-1.7.1-2-.8-.4m24.4 1.6L500 286l2.8-2.4c2.5-2.3 3.2-3.1 2.4-3.1-.2 0-1.4 1.2-2.8 2.7m-78.6-1c1.5.2 3.9.2 5.5 0 1.5-.2.2-.4-2.8-.4s-4.3.2-2.7.4m58.2 1.3c1 1.1 2 2 2.3 2s-.3-.9-1.3-2-2-2-2.3-2 .3.9 1.3 2m-261.5-.6c0 .2.8 1 1.8 1.7 1.5 1.3 1.6 1.2.3-.4s-2.1-2.1-2.1-1.3m154 1.6c0 .8.5 2.2 1 3 .9 1.3 1 1.3 1 0 0-.8-.5-2.2-1-3-.9-1.3-1-1.3-1 0m104 .4c0 .2.8 1 1.8 1.7 1.5 1.3 1.6 1.2.3-.4s-2.1-2.1-2.1-1.3m-54.7 1.3c1.5.2 3.9.2 5.5 0 1.5-.2.2-.4-2.8-.4s-4.3.2-2.7.4m-6.5 1c.7.3 1.6.2 1.9-.1.4-.3-.2-.6-1.3-.5-1.1 0-1.4.3-.6.6m-187.8 2.6c0 .2 1.5 1.4 3.3 2.7 2 1.5 2.7 1.7 1.8.6-1.3-1.6-5.1-4.1-5.1-3.3m5 .1c0 .2.8 1 1.8 1.7 1.5 1.3 1.6 1.2.3-.4s-2.1-2.1-2.1-1.3m141.1 2.2c0 1.1.3 1.4.6.6.3-.7.2-1.6-.1-1.9-.3-.4-.6.2-.5 1.3m136.8.1c-1.3 1.6-1.2 1.7.4.4s2.1-2.1 1.3-2.1c-.2 0-1 .8-1.7 1.7M399 296.5c-2.1 2.2-3.7 4.1-3.4 4.3.2.2 2.1-1.6 4.3-4 4.9-5.4 4.3-5.6-.9-.3m-162.5-1.6c0 .2.8 1 1.8 1.7 1.5 1.3 1.6 1.2.3-.4s-2.1-2.1-2.1-1.3m5 0c0 .2.8 1 1.8 1.7 1.5 1.3 1.6 1.2.3-.4s-2.1-2.1-2.1-1.3m185.6 1.3c.5.5 1.2 1.2 1.6 1.8s.8.2.8-.8c0-.9-.7-1.7-1.7-1.7-.9 0-1.2.3-.7.7m-123.4 2.3c0 1.4.2 1.9.5 1.2.2-.6.2-1.8 0-2.5-.3-.6-.5-.1-.5 1.3m-58.2 3.6c2.5 2.2 7.9 6.8 12 10.4s6.5 5.2 5.2 3.6c-1.2-1.6-3.3-3.6-4.5-4.5-1.2-.8-4.7-3.5-7.7-6.1-3-2.5-6.4-5.2-7.5-5.9-1.1-.8 0 .4 2.5 2.5m12.5-.6c1 1.1 2 2 2.3 2s-.3-.9-1.3-2-2-2-2.3-2 .3.9 1.3 2m131.8-.5c-.3.9-.3 1.8-.1 2.1.3.3.8-.4 1.1-1.6.6-2.3-.1-2.7-1-.5m110.8.1c0 1.1.3 1.4.6.6.3-.7.2-1.6-.1-1.9-.3-.4-.6.2-.5 1.3m3.9 1.3c0 1 1.9 2.5 2.5 2 .1-.2-.3-1-1.1-1.7s-1.4-.8-1.4-.3m-252 .5c0 .2.8 1 1.8 1.7 1.5 1.3 1.6 1.2.3-.4s-2.1-2.1-2.1-1.3m134.8 2.1c.2 1.4.6 2.5.8 2.5s.4-1.1.4-2.5-.4-2.5-.9-2.5c-.4 0-.6 1.1-.3 2.5m34.1-.8c-1.3 1.6-1.2 1.7.4.4s2.1-2.1 1.3-2.1c-.2 0-1 .8-1.7 1.7m-37.7 2.8c0 1.6.2 2.2.5 1.2.2-.9.2-2.3 0-3-.3-.6-.5.1-.5 1.8m65.1 1c0 2.2.2 3 .4 1.7.2-1.2.2-3 0-4-.3-.9-.5.1-.4 2.3m-190.8-.5c1 1.1 2 2 2.3 2s-.3-.9-1.3-2-2-2-2.3-2 .3.9 1.3 2m7.5.4c1.4 1.5 3.9 3.7 5.5 4.9 3.6 2.4 2.6 1.4-3.5-3.9-3-2.5-3.7-2.9-2-1m243.5-.3c-1.1 1.6-.1 1.9 1.3.3.7-.8.8-1.4.3-1.4s-1.3.5-1.6 1.1m8.7.9c0 1.4.2 1.9.5 1.2.2-.6.2-1.8 0-2.5-.3-.6-.5-.1-.5 1.3m-121.7.7c.7 2.7-1 3.9-3.3 2.2-1.6-1.2-1.6-1.2-.1.4 2.9 3.2 6.3.2 3.8-3.3-.8-1.2-.9-1-.4.7m48.7.8c0 1.6.2 2.2.5 1.2.2-.9.2-2.3 0-3-.3-.6-.5.1-.5 1.8m17 0c0 1.6.2 2.2.5 1.2.2-.9.2-2.3 0-3-.3-.6-.5.1-.5 1.8m38.7-.8c-1.3 1.6-1.2 1.7.4.4s2.1-2.1 1.3-2.1c-.2 0-1 .8-1.7 1.7m-111.9.6c-.1 3.1 6.1 9.9 7.7 8.4.2-.3-.5-.8-1.6-1.2-1.2-.3-3-2.3-4.1-4.3-1-2-1.9-3.3-2-2.9m124.9 1.4c-1.3 1.6-1.2 1.7.4.4.9-.7 1.7-1.5 1.7-1.7 0-.8-.8-.3-2.1 1.3M251 318.5c4.4 4.4 8.2 8 8.5 8 .2 0-3.1-3.6-7.5-8s-8.2-8-8.5-8c-.2 0 3.1 3.6 7.5 8m11.5-7.8c0 .3 2.3 2.7 5.2 5.3 2.8 2.7 4.9 4.5 4.7 3.9-.5-1.1-9.9-9.9-9.9-9.2m252.9 2.5c-1.3 1.6-1.2 1.7.4.4s2.1-2.1 1.3-2.1c-.2 0-1 .8-1.7 1.7m-6.1 0c.7.3 1.6.2 1.9-.1.4-.3-.2-.6-1.3-.5-1.1 0-1.4.3-.6.6m-41.8 1.7c0 .2.8 1 1.8 1.7 1.5 1.3 1.6 1.2.3-.4s-2.1-2.1-2.1-1.3m-61.5 2.6c.3.5.8 1 1.1 1 .2 0 .4-.5.4-1 0-.6-.5-1-1.1-1-.5 0-.7.4-.4 1m-18.5.4c0 .2.8 1 1.8 1.7 1.5 1.3 1.6 1.2.3-.4s-2.1-2.1-2.1-1.3m64 0c0 .2.8 1 1.8 1.7 1.5 1.3 1.6 1.2.3-.4s-2.1-2.1-2.1-1.3M267 320.5c1 1.1 2 2 2.3 2s-.3-.9-1.3-2-2-2-2.3-2 .3.9 1.3 2m182 0c1 1.1 2 2 2.3 2s-.3-.9-1.3-2-2-2-2.3-2 .3.9 1.3 2m-188.5 6.4c0 .2.8 1 1.8 1.7 1.5 1.3 1.6 1.2.3-.4s-2.1-2.1-2.1-1.3m-3 2.1c0 .3 1.6 2.5 3.5 5.1 3.5 4.5 3.8 5.6 3.6 10.4l-.1 2.5 1.4-2.5c2.3-3.8 2-4.5-3.4-10.5-2.7-3-5-5.3-5-5m228.2 2.5c0 1.4.2 1.9.5 1.2.2-.6.2-1.8 0-2.5-.3-.6-.5-.1-.5 1.3m-48.8 11.2L435 345l2.3-1.9c1.2-1.1 2.2-2.1 2.2-2.3 0-.8-.8-.2-2.6 1.9m-169.3 2.4c0 1.1.3 1.4.6.6.3-.7.2-1.6-.1-1.9-.3-.4-.6.2-.5 1.3m-71.6.4c-.3.6.1.7.9.4 1.8-.7 2.1-1.4.7-1.4-.6 0-1.3.4-1.6 1m48.5.4c0 .2.8 1 1.8 1.7 1.5 1.3 1.6 1.2.3-.4s-2.1-2.1-2.1-1.3m184 .6-3.5.7 3.2.2c1.7 0 3.5-.4 3.8-.9.3-.6.5-.9.3-.9-.2.1-1.9.5-3.8.9m-174 1.4c0 .2.8 1 1.8 1.7 1.5 1.3 1.6 1.2.3-.4s-2.1-2.1-2.1-1.3m-3 5.1c1.3 1.4 2.6 2.5 2.8 2.5.3 0-.5-1.1-1.8-2.5s-2.6-2.5-2.8-2.5c-.3 0 .5 1.1 1.8 2.5m235.3 1.5c0 2.5.2 3.5.4 2.2.2-1.2.2-3.2 0-4.5-.2-1.2-.4-.2-.4 2.3m4 0c0 2.5.2 3.5.4 2.2.2-1.2.2-3.2 0-4.5-.2-1.2-.4-.2-.4 2.3m-65.8-1c1 1.1 2 2 2.3 2s-.3-.9-1.3-2-2-2-2.3-2 .3.9 1.3 2m-178.5 3.2c4.1 4.5 5 5.3 5 4.5 0-.2-2.1-2.3-4.7-4.7L242 352zm15-2.8c1.2 1.2 8.2 1.3 8.6.1.3-.6-1.7-1-4.5-1-2.9 0-4.6.4-4.1.9m-66.9 4.2c0 1.1.3 1.4.6.6.3-.7.2-1.6-.1-1.9-.3-.4-.6.2-.5 1.3m205.7 1.7c-.3 1.9-.2 2.5.4 1.9s.8-1.8.6-2.8c-.3-1.4-.5-1.2-1 .9m34-1.6c.7.3 1.6.2 1.9-.1.4-.3-.2-.6-1.3-.5-1.1 0-1.4.3-.6.6m6 1c.6.2 1.8.2 2.5 0 .6-.3.1-.5-1.3-.5s-1.9.2-1.2.5m6 1c.7.3 1.6.2 1.9-.1.4-.3-.2-.6-1.3-.5-1.1 0-1.4.3-.6.6m-180 1c.7.3 1.6.2 1.9-.1.4-.3-.2-.6-1.3-.5-1.1 0-1.4.3-.6.6m173 2c.7.3 1.6.2 1.9-.1.4-.3-.2-.6-1.3-.5-1.1 0-1.4.3-.6.6m-27.7 2.8c.1 1.9 1.8 5.1 1.8 3.5 0-.8-.4-2.2-.9-3s-.9-1.1-.9-.5m21.7.2c.6.2 1.8.2 2.5 0 .6-.3.1-.5-1.3-.5s-1.9.2-1.2.5m-25.2 1.8c-.3.9-.6 2.4-.5 3.3 0 .9.5.4 1-1.2.9-3.2.6-4.8-.5-2.1m-11.6 4.4c0 1.6-.3 3.8-.6 4.8s.2.7 1-.7c1.8-2.9 2-5.6.6-6.5-.6-.4-1 .6-1 2.4m30.5-2c-2.9.7-2.9.8 1.5 1.5 2.5.4 6.1.6 8 .3 2.8-.3 2.4-.4-2-.7l-5.5-.3 5.5-.7 5.5-.7h-5c-2.7 0-6.3.3-8 .6m56.4 1.8L481 375l2.8-2.4c2.5-2.3 3.2-3.1 2.4-3.1-.2 0-1.4 1.2-2.8 2.7m-62.2-.6c.7.7 1.5 1 1.8.7s-.2-.9-1.2-1.2c-1.4-.6-1.5-.5-.6.5m21.1-.4c.7.3 1.6.2 1.9-.1.4-.3-.2-.6-1.3-.5-1.1 0-1.4.3-.6.6m-39.7 1.9c0 1.1.3 1.4.6.6.3-.7.2-1.6-.1-1.9-.3-.4-.6.2-.5 1.3m15 0c0 1.1.3 1.4.6.6.3-.7.2-1.6-.1-1.9-.3-.4-.6.2-.5 1.3m-3.9 1.9c0 1.6.2 2.2.5 1.2.2-.9.2-2.3 0-3-.3-.6-.5.1-.5 1.8m10.3-1.5c-.3.6.1.7.9.4 1.8-.7 2.1-1.4.7-1.4-.6 0-1.3.4-1.6 1m-238.7 1.7c.6.2 1.8.2 2.5 0 .6-.3.1-.5-1.3-.5s-1.9.2-1.2.5m87.3 1.5c0 1.3.3 1.7.6 1 .2-.6 1-.9 1.6-.5.7.4.6-.1-.2-1-1.8-2.2-2.1-2.1-2 .5m3.4 0c.1 1.3 1.1 5.4 2.3 9.3 1.2 3.8 2.6 11.3 3.1 16.5l1 9.5-.5-11.4c-.3-7.5-1.1-13.3-2.4-17.1-1.1-3.3-1.7-6.6-1.4-7.4.4-1 .1-1.6-.8-1.6-.8 0-1.3.9-1.3 2.2m4.1-1c.3.4.1.8-.5.8-.5 0-.4 1.2.5 2.7.7 1.6 1.4 3.7 1.4 4.9 0 4.4 2.5 6.1 5.8 4.1 3.3-1.9 6.2-2.2 6.2-.7 0 .5-.8 1-1.7 1-1 0-2.5.5-3.3 1-1.1.7-.7.9 1.5.7 2.9-.2 3 0 3.1 3.8.1 2.6-.5 4.4-1.5 5.2-2.6 2-3.5 1.5-1.5-1l1.9-2.2-2.2 1.9c-2.9 2.4-2.1 3.7 1.7 2.9 4.5-.8 3.9 2.1-1 5.3-3.9 2.6-5.1 4.4-2.9 4.4.5 0 .7-.5.3-1.2-.5-.8-.2-.9 1-.5 1 .4 1.5.3 1.1-.3-.3-.5.4-1.4 1.5-2 1.3-.7 2-.7 2 0 0 .5-.5 1-1 1-.6 0-.3.9.8 2 2 2.2 7.3 1.5 8-1.1.2-.8 0-1-.5-.4-1.1 1.3-5.3 1.7-5.3.5 0-.5.5-1.2 1-1.5.6-.4.8-1 .6-1.4-.3-.4.8-2.2 2.4-3.9 1.6-1.8 2.5-3.2 2.1-3.2-.5 0-1.4.7-2.1 1.5s-1.9 1.5-2.6 1.5c-2.3 0-1.6-3.5 1.1-6 1.4-1.3 2.5-2.8 2.5-3.4 0-.5-.7-.1-1.5 1-.8 1-1.5 1.4-1.5.7 0-.6.7-1.9 1.6-2.7.8-.9 1.1-1.6.6-1.6-1.5 0-4.2 3.6-3.4 4.6.4.5.5.8.3.7-.2-.2-1 .2-1.8.9-1.1.9-1.2.7-.4-1.5.6-1.5.8-3.4.4-4.2-.3-.9.3-2.6 1.4-3.8 3.3-3.6 3.5-4.6 1.1-3.9-1.3.3-1.9.1-1.5-.5.5-.7 0-.9-1.3-.6-1.3.4-2 0-2-.9 0-2 2.1-3.8 4.4-3.8 1 0 1.6-.3 1.2-.7-1-1.1-18.6-1.1-18-.1m12.7 2.3c-1 1.3-2.5 2.5-3.3 2.5s-2.2.5-3 1c-1.1.7-.6.8 1.8.4 4.2-.8 4.4 1.6.3 4.5-3.9 2.8-4.9 2.6-5.7-.7-.3-1.5-.9-3.9-1.4-5.4-1-3.2-.5-3.8 3.2-3.8 2 0 2.8.5 2.9 1.7 0 1.5.3 1.4 1.6-.5.8-1.2 2.4-2.2 3.5-2.2 1.8 0 1.8.1.1 2.5m2.2 5.5c-.3.5-1 1-1.6 1-.5 0-.9-.5-.9-1 0-.6.7-1 1.6-1 .8 0 1.2.4.9 1m111.8-5.5c0 2.2.2 3 .4 1.7.2-1.2.2-3 0-4-.3-.9-.5.1-.4 2.3m27-1.8c.9.2 2.3.2 3 0 .6-.3-.1-.5-1.8-.5-1.6 0-2.2.2-1.2.5m-228.3.6c0 .2 1.5 1.6 3.3 3.3l3.2 2.9-2.9-3.3c-2.8-3-3.6-3.7-3.6-2.9m186.2 1.7c0 1.4.2 1.9.5 1.2.2-.6.2-1.8 0-2.5-.3-.6-.5-.1-.5 1.3m36.6-1.3c.7.3 1.6.2 1.9-.1.4-.3-.2-.6-1.3-.5-1.1 0-1.4.3-.6.6m12 0c1.2.2 3.2.2 4.5 0 1.2-.2.2-.4-2.3-.4s-3.5.2-2.2.4m-283.9 2c-1.3 1.6-1.2 1.7.4.4.9-.7 1.7-1.5 1.7-1.7 0-.8-.8-.3-2.1 1.3m111.4 9.5c.4 5.9 1.4 11.5 2.7 14.7 1.1 2.9 2 6.3 2 7.6 0 1.4.5 2.5 1.2 2.5 1.8 0 .3-18.3-2.2-26.2-3.2-10.3-4.4-9.9-3.7 1.4m2.4 1c-.3.7-.5.2-.5-1.2s.2-1.9.5-1.3c.2.7.2 1.9 0 2.5m.8 6.8c-.4 1.2-.9 1.9-1.2 1.7-.3-.3-.2-1.5.2-2.7s.9-1.9 1.2-1.7c.3.3.2 1.5-.2 2.7m147.5-15c0 1.9.3 2.1 1.2 1.2s.9-1.5 0-2.4-1.2-.7-1.2 1.2m46 .5c1.3 1.4 2.6 2.5 2.8 2.5.3 0-.5-1.1-1.8-2.5s-2.6-2.5-2.8-2.5c-.3 0 .5 1.1 1.8 2.5m-39.9 2.1c0 1.1.3 1.4.6.6.3-.7.2-1.6-.1-1.9-.3-.4-.6.2-.5 1.3m-17.8 4.9c0 2.2.2 3 .4 1.7.2-1.2.2-3 0-4-.3-.9-.5.1-.4 2.3m18.7-2c0 .5.5 1.7 1 2.5s1 1 1 .5c0-.6-.5-1.7-1-2.5s-1-1.1-1-.5m-11.8 3.5c0 1.9.2 2.7.5 1.7.2-.9.2-2.5 0-3.5-.3-.9-.5-.1-.5 1.8m-130 11.2c.3 10.2.1 11.3-1.4 11.2-1-.1-1.8.2-1.8.7s.4.9.9.9 1.8.3 2.8.6c1.5.5 1.6.4.3-.6-1.2-1-1.1-1.1.8-.7 2.7.6 8.2-1 8.2-2.4 0-.5-.4-.9-1-.9-.5 0-1 .3-1 .7 0 .5-1.3.9-2.9 1-2.9.2-3 0-2.9-4 0-2.3.5-4.8 1.2-5.6.9-1.2.8-1.3-.3-.6-1.1.6-1.3.4-.8-.8.3-.9.2-1.9-.3-2.2-1.4-.9-1.2-7.2.3-7.8.7-.3.5-.6-.6-.6-1.6-.1-1.7 1-1.5 11.1m111.8-9.3c0 1.1.4 2.2.9 2.5.4.3.6-.6.3-1.9-.5-3-1.2-3.3-1.2-.6m7.2.1c0 1.4.2 1.9.5 1.2.2-.6.2-1.8 0-2.5-.3-.6-.5-.1-.5 1.3m-125.1.6c0 1.1.3 1.4.6.6.3-.7.2-1.6-.1-1.9-.3-.4-.6.2-.5 1.3m114 0c0 1.1.3 1.4.6.6.3-.7.2-1.6-.1-1.9-.3-.4-.6.2-.5 1.3m-129 1c0 1.1.3 1.4.6.6.3-.7.2-1.6-.1-1.9-.3-.4-.6.2-.5 1.3m155 0c0 1.1.3 1.4.6.6.3-.7.2-1.6-.1-1.9-.3-.4-.6.2-.5 1.3M219.7 397c0 1.6.2 2.2.5 1.2.2-.9.2-2.3 0-3-.3-.6-.5.1-.5 1.8m187.9-.9c0 1.1.3 1.4.6.6.3-.7.2-1.6-.1-1.9-.3-.4-.6.2-.5 1.3m5-.4c0 .9-.4 2.5-.7 3.5-.5 1.7-.5 1.7.6 0 .6-1 .9-2.5.7-3.5-.4-1.5-.5-1.5-.6 0m60.2 3.3c0 2.2.2 3 .4 1.7.2-1.2.2-3 0-4-.3-.9-.5.1-.4 2.3m3.8-1.9c0 1.1.3 1.4.6.6.3-.7.2-1.6-.1-1.9-.3-.4-.6.2-.5 1.3m-47 1c0 1.1.3 1.4.6.6.3-.7.2-1.6-.1-1.9-.3-.4-.6.2-.5 1.3M157 399.5c1 1.1 2 2 2.3 2s-.3-.9-1.3-2-2-2-2.3-2 .3.9 1.3 2m121.7 0c0 1.4.2 1.9.5 1.2.2-.6.2-1.8 0-2.5-.3-.6-.5-.1-.5 1.3m198 2c0 1.4.2 1.9.5 1.2.2-.6.2-1.8 0-2.5-.3-.6-.5-.1-.5 1.3m-177.3 2.7c-1.3 1.6-1.2 1.7.4.4s2.1-2.1 1.3-2.1c-.2 0-1 .8-1.7 1.7m-19.7 2.3c0 1.9.2 2.7.5 1.7.2-.9.2-2.5 0-3.5-.3-.9-.5-.1-.5 1.8m122.8.2c0 .9.5 2 1.1 2.3 1.7 1.1 1.8.2.3-1.9-1.2-1.7-1.4-1.7-1.4-.4m-224.7.5c1.5.2 3.9.2 5.5 0 1.5-.2.2-.4-2.8-.4s-4.3.2-2.7.4m231.5 0c.6.2 1.8.2 2.5 0 .6-.3.1-.5-1.3-.5s-1.9.2-1.2.5m19.8 1c-.6 1.4-.5 1.5.5.6.7-.7 1-1.5.7-1.8s-.9.2-1.2 1.2m40.3 0c-1.3 1.6-1.2 1.7.4.4.9-.7 1.7-1.5 1.7-1.7 0-.8-.8-.3-2.1 1.3m-205.9 2.7c0 .2.8 1 1.8 1.7 1.5 1.3 1.6 1.2.3-.4s-2.1-2.1-2.1-1.3m161.9 3.3c-1.3 1.6-1.2 1.7.4.4s2.1-2.1 1.3-2.1c-.2 0-1 .8-1.7 1.7m-163.8 2.9c2.9 3.4 3 4.3.7 6.4l-2.3 2.1 2.5-.9c5.1-1.9 4.9-5.6-.4-8.4-2-1-2-1-.5.8m198.3.6L458 420l2.3-1.9c2.1-1.8 2.7-2.6 1.9-2.6-.2 0-1.2 1-2.3 2.2m-37.5.5c-1.3 1.6-1.2 1.7.4.4s2.1-2.1 1.3-2.1c-.2 0-1 .8-1.7 1.7m-211.8.9c0 1.1.3 1.4.6.6.3-.7.2-1.6-.1-1.9-.3-.4-.6.2-.5 1.3m296.9-1.2c0 .2.8 1 1.8 1.7 1.5 1.3 1.6 1.2.3-.4s-2.1-2.1-2.1-1.3m-5.5 2.6c-.3.6.1.7.9.4 1.8-.7 2.1-1.4.7-1.4-.6 0-1.3.4-1.6 1m-291.4 2.6c0 1.1.3 1.4.6.6.3-.7.2-1.6-.1-1.9-.3-.4-.6.2-.5 1.3m298.3 2.6L507 428l2.3-1.9c2.1-1.8 2.7-2.6 1.9-2.6-.2 0-1.2 1-2.3 2.2m-91.1 4.8c0 2.5.2 3.5.4 2.2.2-1.2.2-3.2 0-4.5-.2-1.2-.4-.2-.4 2.3m64.5-3.3c.7.3 1.6.2 1.9-.1.4-.3-.2-.6-1.3-.5-1.1 0-1.4.3-.6.6m8 0c.7.3 1.6.2 1.9-.1.4-.3-.2-.6-1.3-.5-1.1 0-1.4.3-.6.6M265.5 430q-2.4 1.35-.9 1.5c.8 0 2.4-.7 3.5-1.5 2.4-1.8.7-1.9-2.6 0m189.3 2.5c0 2.5.2 3.5.4 2.2.2-1.2.2-3.2 0-4.5-.2-1.2-.4-.2-.4 2.3m20.2-1c-1.6 1.6-2.7 3.1-2.4 3.3.2.2 1.7-1.1 3.2-3 3.6-4.1 3.1-4.3-.8-.3m-96.2-1.3c1.5.2 3.7.2 5 0 1.2-.2 0-.4-2.8-.4-2.7 0-3.8.2-2.2.4m8.2 3.3c.3.5.8 1 1.1 1 .2 0 .4-.5.4-1 0-.6-.5-1-1.1-1-.5 0-.7.4-.4 1m120.4 1.7c-1.3 1.6-1.2 1.7.4.4s2.1-2.1 1.3-2.1c-.2 0-1 .8-1.7 1.7m-130.1 1c.6.2 1.8.2 2.5 0 .6-.3.1-.5-1.3-.5s-1.9.2-1.2.5m5 0c.6.2 1.8.2 2.5 0 .6-.3.1-.5-1.3-.5s-1.9.2-1.2.5m19 0c.7.3 1.6.2 1.9-.1.4-.3-.2-.6-1.3-.5-1.1 0-1.4.3-.6.6m66.4 2.3c0 1.9.2 2.7.5 1.7.2-.9.2-2.5 0-3.5-.3-.9-.5-.1-.5 1.8m-107.8-.5c-2.4 1.8-.7 1.9 2.6 0q2.4-1.35.9-1.5c-.8 0-2.4.7-3.5 1.5m111.8.5c0 1.4.2 1.9.5 1.2.2-.6.2-1.8 0-2.5-.3-.6-.5-.1-.5 1.3m-197.9.7c.9.2 2.3.2 3 0 .6-.3-.1-.5-1.8-.5-1.6 0-2.2.2-1.2.5m71.1 2.5L342 445l3.3-2.9c3-2.8 3.7-3.6 2.9-3.6-.2 0-1.6 1.5-3.3 3.2m-78.6-1.5c.7.3 1.6.2 1.9-.1.4-.3-.2-.6-1.3-.5-1.1 0-1.4.3-.6.6m103.1 2.6c-7.2 2.5-12.9 5.9-14.9 9-4.9 7.9 22.6 1.4 30.3-7.1 2.1-2.3 1.5-4.3-1.1-4.1-1.5.1-1.5.2.1.6 4.9 1.3-4.3 8.2-14.7 10.9-4.8 1.3-7.9 1.1-4-.2 5-1.6 8.5-3.7 9.4-5.4 1.1-2.1-.3-2.9-1.5-.9-.4.6-1.3.8-2.1.5-2.1-.8-12.3 3.3-13.7 5.5-.6 1-1.6 1.9-2.1 1.9s.1-1.1 1.4-2.5c2.9-3.1 9.6-6.4 17.5-8.6 3.3-1 5.1-1.8 4-1.8s-5 1-8.6 2.2m27.5 1.9L394 448l3.3-2.9c3-2.8 3.7-3.6 2.9-3.6-.2 0-1.6 1.5-3.3 3.2m12.1-1.2c1 1.1 2 2 2.3 2s-.3-.9-1.3-2-2-2-2.3-2 .3.9 1.3 2m-177 0c-.3.6.1.7.9.4 1.8-.7 2.1-1.4.7-1.4-.6 0-1.3.4-1.6 1m19.3-.3c.7.3 1.6.2 1.9-.1.4-.3-.2-.6-1.3-.5-1.1 0-1.4.3-.6.6m96.5 1.8c-1.2 1.4-1.8 2.7-1.4 3 1.1.6 4.4-3.1 4-4.4-.2-.5-1.4.1-2.6 1.4m-106.5-.8c.7.3 1.6.2 1.9-.1.4-.3-.2-.6-1.3-.5-1.1 0-1.4.3-.6.6m160.2 0c1.4.7 1.3 3.6-.2 5.3-1.1 1.2-1 1.2.5 0 2-1.5 1.9-5.2-.1-5.6-.7-.1-.8 0-.2.3M265 446l-6 1.3 5.9-.1 5.8-.1-.1 11.7c-.2 14.5.4 18.7 3 18.7 1.1 0 1.9.4 1.9.9 0 1.1-3.2 1.8-9.5 2-7.9.3-6.6 1.1 1.8 1.1 10.1 0 16.6 2.5 22.9 8.7 6.6 6.5 5.7 12.4-.9 6.1-3.2-3-2.9-.7.4 3.3 8 9.4 21.1 7.3 33-5.5 10.5-11.2 16.5-28.4 11.5-32.9-2.5-2.3-4.4-2.2-17 .9-11.9 3-15.2 4.7-8.2 4.2 3.9-.3 4.5 0 4.5 1.7 0 2.4-5.1 3.7-11.5 2.9-12-1.4-15.7-4.8-17.1-15.5-1.3-11.1-4.9-12.8-20.4-9.4m131.4 2.2c-1.3 1.6-1.2 1.7.4.4s2.1-2.1 1.3-2.1c-.2 0-1 .8-1.7 1.7m29.7.6c.3 1 .9 1.5 1.2 1.2s0-1.1-.7-1.8c-1-.9-1.1-.8-.5.6m52.4 3.2c1.3 1.4 2.6 2.5 2.8 2.5.3 0-.5-1.1-1.8-2.5s-2.6-2.5-2.8-2.5c-.3 0 .5 1.1 1.8 2.5m-85.4-.3c.3.4.2.8-.3.8-.4 0-1.6 1.4-2.5 3-2.3 4.1-1.6 3.8 2.1-.8 2-2.6 2.5-3.9 1.6-3.9-.8 0-1.2.4-.9.9m-44.4 1.8c0 1.4.2 1.9.5 1.2.2-.6.2-1.8 0-2.5-.3-.6-.5-.1-.5 1.3m79.4-.7c.3 1 .9 1.5 1.2 1.2s0-1.1-.7-1.8c-1-.9-1.1-.8-.5.6m-138.4 1.7c0 1.4.2 1.9.5 1.2.2-.6.2-1.8 0-2.5-.3-.6-.5-.1-.5 1.3m54.9.6c0 1.1.3 1.4.6.6.3-.7.2-1.6-.1-1.9-.3-.4-.6.2-.5 1.3m131.4.4c1 1.1 2 2 2.3 2s-.3-.9-1.3-2-2-2-2.3-2 .3.9 1.3 2m-147.7-.3c.6.2 1.8.2 2.5 0 .6-.3.1-.5-1.3-.5s-1.9.2-1.2.5m65.6 4.5c-7.9 10.4-9.7 11.3-24.3 11.3-17.7.1-18.1.3-23.5 18.6-3.6 12-8.9 19-14.8 19.4-3.3.2-3.3 3.1 0 9 10.3 18.6 34.5 12.4 40.6-10.5.4-1.4-.9.6-2.7 4.5-1.9 3.8-5.2 8.6-7.3 10.5-3.9 3.6-3.2 2.2 1.9-3.9 2.1-2.4 2.5-3.6 1.7-4.1-.9-.6-.7-1.1.9-1.9 1.1-.7 2.1-1.7 2.1-2.4 0-.8-.3-.7-.9.2-1.8 2.8-4.1.4-4.1-4.1 0-6.3 2.7-10.9 8-13.6 2.4-1.2 3.7-2.2 2.9-2.2-.9 0-3.3 1.1-5.3 2.5-3 2-3.5 2.1-2.7.6 1.2-2.2 5.5-5.1 7.5-5.1 2.2 0 2.7-2.6 1.5-8.1-1.3-5.8-.9-5.6-11.4-6.8l-8-.8 11.7-.2c15.5-.1 20.1-2.4 27.9-13.8 4.1-6 3-5.4-1.7.9M352.8 477c-.3.9-.8 1.4-1 1.1-.3-.3-.2-.9.2-1.5.9-1.6 1.5-1.3.8.4m-2.6 5.7c-.3.8-.6.5-.6-.6-.1-1.1.2-1.7.5-1.3.3.3.4 1.2.1 1.9m12.4 18.5c-.8 1.5-1 1.5-1.1.2 0-1.7 1-3.2 1.8-2.5.2.3-.1 1.3-.7 2.3m-.1 9.3c0 1.3-.1 1.3-1 0-.5-.8-1-2.2-1-3 0-1.3.1-1.3 1 0 .5.8 1 2.2 1 3m-8.7 16.7c-.7.2-1.9.2-2.5 0-.7-.3-.2-.5 1.2-.5s1.9.2 1.3.5M225.7 460c0 1.6.2 2.2.5 1.2.2-.9.2-2.3 0-3-.3-.6-.5.1-.5 1.8m137.6-.8c.7.3 1.6.2 1.9-.1.4-.3-.2-.6-1.3-.5-1.1 0-1.4.3-.6.6m54.3 1.9c0 1.1.3 1.4.6.6.3-.7.2-1.6-.1-1.9-.3-.4-.6.2-.5 1.3m13 0c0 1.1.3 1.4.6.6.3-.7.2-1.6-.1-1.9-.3-.4-.6.2-.5 1.3m-4 2c0 1.1.3 1.4.6.6.3-.7.2-1.6-.1-1.9-.3-.4-.6.2-.5 1.3m-85.9 3.4c0 1.9.2 2.7.5 1.7.2-.9.2-2.5 0-3.5-.3-.9-.5-.1-.5 1.8m77.9-1.4c0 1.1.3 1.4.6.6.3-.7.2-1.6-.1-1.9-.3-.4-.6.2-.5 1.3m-193 1c0 1.1.3 1.4.6.6.3-.7.2-1.6-.1-1.9-.3-.4-.6.2-.5 1.3m219.7-.9c1.2.2 3 .2 4 0 .9-.3-.1-.5-2.3-.4-2.2 0-3 .2-1.7.4m54.3.9c0 1.1.3 1.4.6.6.3-.7.2-1.6-.1-1.9-.3-.4-.6.2-.5 1.3m-67.9 1.4c0 1.4.2 1.9.5 1.2.2-.6.2-1.8 0-2.5-.3-.6-.5-.1-.5 1.3m-65.9-.3c.9.2 2.3.2 3 0 .6-.3-.1-.5-1.8-.5-1.6 0-2.2.2-1.2.5m57.9 1.3c0 1.4.2 1.9.5 1.2.2-.6.2-1.8 0-2.5-.3-.6-.5-.1-.5 1.3m18.8-1.1c0 .6.4 1.3 1 1.6s.7-.1.4-.9c-.7-1.8-1.4-2.1-1.4-.7m16.9 2.8L457 473l2.8-2.4c2.5-2.3 3.2-3.1 2.4-3.1-.2 0-1.4 1.2-2.8 2.7m-39.6 4.3c0 3.6.2 5 .4 3.2.2-1.7.2-4.7 0-6.5-.2-1.7-.4-.3-.4 3.3m32.5-5.3c.7.3 1.6.2 1.9-.1.4-.3-.2-.6-1.3-.5-1.1 0-1.4.3-.6.6m46.7 4.3c1 1.1 2 2 2.3 2s-.3-.9-1.3-2-2-2-2.3-2 .3.9 1.3 2m8 1c-.3.6.1.7.9.4 1.8-.7 2.1-1.4.7-1.4-.6 0-1.3.4-1.6 1m-57.7 1.7c.7.3 1.6.2 1.9-.1.4-.3-.2-.6-1.3-.5-1.1 0-1.4.3-.6.6m54 0c.7.3 1.6.2 1.9-.1.4-.3-.2-.6-1.3-.5-1.1 0-1.4.3-.6.6m-60 1c.6.2 1.8.2 2.5 0 .6-.3.1-.5-1.3-.5s-1.9.2-1.2.5m-19.7 3.9c0 1.1.3 1.4.6.6.3-.7.2-1.6-.1-1.9-.3-.4-.6.2-.5 1.3m20.2.1c.9.2 2.3.2 3 0 .6-.3-.1-.5-1.8-.5-1.6 0-2.2.2-1.2.5m-26.4 5.8c-.9 2.5-1.3 4.2-.8 4 .9-.6 3.3-7.5 2.7-8-.2-.2-1.1 1.6-1.9 4m-159.6.2c3.7.2 9.6.2 13 0s.4-.3-6.8-.3c-7.1 0-9.9.1-6.2.3m121.7 3.4c1.9.6 5.9 1.9 8.9 3s5.6 1.8 5.8 1.6c.6-.6-10.7-4.5-14.7-5.1l-3.5-.5zm-94.6 3.9c0 1.3.4 1.6 1 1 .7-.7.7-1.3 0-2-.6-.6-1-.3-1 1m128.5-.3c-1.3 1.6-1.2 1.7.4.4.9-.7 1.7-1.5 1.7-1.7 0-.8-.8-.3-2.1 1.3m-177.2 2.4c.4 1.3.8 1.8 1.1 1 .2-.7-.1-1.8-.6-2.3-.8-.8-.9-.4-.5 1.3m27.3-.5c0 .3 1 1.4 2.3 2.4 1.9 1.5 2.2 2.7 2.1 7.7l-.1 5.8 1.5-3.2c1.4-3 1.4-3.6-.3-7.3-1.6-3.5-5.5-7.4-5.5-5.4m60.9 3.1L321 503l3.8-3.4c3.4-3.3 4.2-4.1 3.4-4.1-.2 0-1.9 1.7-3.8 3.7m49.5-2.5c-.4.7-.3.8.4.4 1.6-1 1.5-.1-.4 3.5-.8 1.7-1.4 3.3-1.2 3.5s1.4-1.7 2.6-4.1c1.7-3.6 1.9-4.5.7-4.5-.7 0-1.7.5-2.1 1.2m42.5.5c-1.3 1.6-1.2 1.7.4.4s2.1-2.1 1.3-2.1c-.2 0-1 .8-1.7 1.7m-17.1 0c.6.2 1.8.2 2.5 0 .6-.3.1-.5-1.3-.5s-1.9.2-1.2.5M240.5 502c-2.4 2.5-4.2 4.5-3.9 4.5s2.5-2 4.9-4.5 4.2-4.5 3.9-4.5-2.5 2-4.9 4.5m129.6-2.3c-.9 1.2-1.5 3.8-1.5 5.8l.2 3.5.6-4.2c.4-2.3 1.3-4.8 2-5.7.8-.9 1.1-1.6.8-1.6s-1.3 1-2.1 2.2m34.2-1.5c.7.3 1.6.2 1.9-.1.4-.3-.2-.6-1.3-.5-1.1 0-1.4.3-.6.6m-69.4 3.5L333 504l2.3-1.9c2.1-1.8 2.7-2.6 1.9-2.6-.2 0-1.2 1-2.3 2.2m-60.2 3.8c0 1.9.2 2.7.5 1.7.2-.9.2-2.5 0-3.5-.3-.9-.5-.1-.5 1.8m-32.4 2.7c.6.2 1.8.2 2.5 0 .6-.3.1-.5-1.3-.5s-1.9.2-1.2.5m-3.9 2c-1.3 1.6-1.2 1.7.4.4s2.1-2.1 1.3-2.1c-.2 0-1 .8-1.7 1.7m11.6 1.3c1 1.1 2 2 2.3 2s-.3-.9-1.3-2-2-2-2.3-2 .3.9 1.3 2m-25.5 2.9c0 1 1.9 2.5 2.5 2 .1-.2-.3-1-1.1-1.7s-1.4-.8-1.4-.3m28 2.1c0 1.1.4 2 .9 2s.7-.9.4-2-.7-2-.9-2-.4.9-.4 2m6-1c-1.1.8-.7.9 1.5.4 3.7-.8 4.5-1.4 1.9-1.4-1 0-2.6.5-3.4 1m119.9.7c-1.3 1.6-1.2 1.7.4.4s2.1-2.1 1.3-2.1c-.2 0-1 .8-1.7 1.7m-109.3 1.7c.4 1 1.6 1.6 3.3 1.5 2-.1 2.2-.2.6-.6-1.1-.3-2.6-1-3.3-1.5-.9-.8-1.1-.7-.6.6m112.6 2.1c-4.8 5.4-5.4 13.7-1.6 23.3 1.5 3.9 1.3 2-.6-6.1-2.1-8.7.7-17.4 6.4-19.7 1.5-.6 1.7-.9.5-.9-1-.1-3.1 1.5-4.7 3.4m9.6-2.8c.7.3 1.6.2 1.9-.1.4-.3-.2-.6-1.3-.5-1.1 0-1.4.3-.6.6m3.2.6c0 .2 1.5 1.6 3.3 3.3l3.2 2.9-2.9-3.3c-2.8-3-3.6-3.7-3.6-2.9m-165.8 2.7c0 1.4.2 1.9.5 1.2.2-.6.2-1.8 0-2.5-.3-.6-.5-.1-.5 1.3m11.5-.3c-1 .9-.9 2.3.1 2.3.5 0 .9-.7.9-1.5 0-1.7-.1-1.8-1-.8m160.9 5.6c.3 1 .9 1.5 1.2 1.2s0-1.1-.7-1.8c-1-.9-1.1-.8-.5.6m-36.7 1.4c-1.3 1.6-1.2 1.7.4.4s2.1-2.1 1.3-2.1c-.2 0-1 .8-1.7 1.7m27.5-.3c-4 1.8-10.4 9.6-10.4 12.7.1 2.1.4 1.8 2.3-1.7 4.1-7.6 6.3-9.5 12.6-11.5 2-.6 2.2-.7.6-.8-1.1 0-3.4.6-5.1 1.3m-164.3 3.2c0 1.1.3 1.4.6.6.3-.7.2-1.6-.1-1.9-.3-.4-.6.2-.5 1.3m12.1 5.8c.7.8 1.5 1.2 1.7 1.1.5-.6-1-2.5-2-2.5-.5 0-.4.6.3 1.4m17.7.3c-1.3 1.6-1.2 1.7.4.4s2.1-2.1 1.3-2.1c-.2 0-1 .8-1.7 1.7m116.2.9c0 1.1.3 1.4.6.6.3-.7.2-1.6-.1-1.9-.3-.4-.6.2-.5 1.3m-129.1.3c0 .6.4 1.3 1 1.6s.7-.1.4-.9c-.7-1.8-1.4-2.1-1.4-.7m162.2 5.1c0 1.9.2 2.7.5 1.7.2-.9.2-2.5 0-3.5-.3-.9-.5-.1-.5 1.8m-3 0c0 1.4.2 1.9.5 1.2.2-.6.2-1.8 0-2.5-.3-.6-.5-.1-.5 1.3m-13.2 3c-.9.6-1 1-.3 1 .6 0 1.5-.5 1.8-1 .8-1.2.4-1.2-1.5 0m-5.9 4.6c0 1.1.3 1.4.6.6.3-.7.2-1.6-.1-1.9-.3-.4-.6.2-.5 1.3m8 1c0 1.1.3 1.4.6.6.3-.7.2-1.6-.1-1.9-.3-.4-.6.2-.5 1.3m-12.1 3.8c0 .2.8 1 1.8 1.7 1.5 1.3 1.6 1.2.3-.4s-2.1-2.1-2.1-1.3m20.9 3.3c-1.3 1.6-1.2 1.7.4.4s2.1-2.1 1.3-2.1c-.2 0-1 .8-1.7 1.7"></path><path fill="#67b4c9" d="M297.6 96.1c.6 2.1 1.3 4.1 1.6 4.4.9.9-.9-6.5-1.8-7.4-.4-.5-.3.8.2 3m2.5 7.9c1.1 4.8 2.5 7.6 1.8 3.5-.4-1.9-1-4.2-1.5-5q-.9-1.5-.3 1.5m2.4 8c0 1.8 5.3 20.5 5.7 20.1.2-.2-.8-4.8-2.3-10.2-2.4-9.2-3.4-12-3.4-9.9m188.6 11.5c-4.4 29.4-14.5 77.3-19.4 92.5-.6 1.6-2 6.6-3.2 11-2.1 7.5-10 31.8-13.4 41.2-4 10.8-15.2 33.9-19.8 40.5-2.2 3.2-2.2 3.4-.3 4.2 4.2 1.6 28.3-56.9 37.9-91.9 2.4-8.8 11.5-49 15.5-69 2.4-11.7 5.4-35.7 4.9-38.2-.2-1-1.2 3.4-2.2 9.7M308.6 134c0 .5.6 3.2 1.3 6 .8 2.7 1.4 4.1 1.4 3 0-2.1-2.5-10.7-2.7-9m2.9 12.1c.1 1.8 5.8 22.9 5.9 21.6.1-1.5-4.8-21.5-5.5-22.1-.2-.2-.4 0-.4.5m6.5 26.4c1.3 6.7 5.3 22.5 5.4 21.2.1-1.7-4.9-23.5-5.6-24.2-.2-.3-.2 1.1.2 3m5.5 23.7c0 .6 1.1 5.9 2.4 11.9 1.4 6 4.8 22.6 7.6 36.9 6.2 31.9 6 30.8 6.5 30.3.4-.4-10.3-55.5-14-72.2-1.4-6.5-2.5-9.4-2.5-6.9m53.5.3c-.3.6.1.7 1 .4 1-.4 2.7.3 4.3 1.7l2.7 2.4-2.4-2.8c-2.5-2.8-4.5-3.4-5.6-1.7m-11 2c-.3.6.1.7.9.4 1.8-.7 2.1-1.4.7-1.4-.6 0-1.3.4-1.6 1m11.6 4.6c3.3 4-6.4 23.4-11.6 23.4-1.7 0-2 1.6-.6 2.4.5.4 2.3-.5 3.9-1.9s3.4-2.5 3.8-2.5c.5.1-.1.9-1.4 2-1.8 1.5-2.1 2.3-1.4 3.6s.4 2.7-.9 5.1l-2 3.5 2.3-.7c2.2-.7 2.2-.6.3.8-5.4 3.9-10.5 1-10.5-6.1 0-1.2-.4-2.2-1-2.2-1.9 0 .9 9.6 3.4 11.2 1.6 1.1 6.4 1 8.6-.2 10.1-5.4 16.3-38.3 7.5-39.6-1.3-.2-1.4.1-.4 1.2m-10.8 2.7c-4.6 4.8-6.1 8.2-8.7 19.9-.4 1.6-.2 2.8.3 2.8.4 0 1.1-1.7 1.5-3.8 1.1-7.5 7.7-20.5 9.4-18.8.7.8-3 12.1-4.6 13.9-1.4 1.6-1.4 1.7 0 1.2 3.7-1.4 8.7-16.2 6-17.9-.5-.3-2.3.9-3.9 2.7m19.8 2.3c0 1.1.3 1.4.6.6.3-.7.2-1.6-.1-1.9-.3-.4-.6.2-.5 1.3m-20.5 2.3c-.4.7-.5 1.5-.2 1.8.9.9 1.9-.4 1.4-1.8-.4-1.1-.6-1.1-1.2 0m20.6 11.1c0 1.4.2 1.9.5 1.2.2-.6.2-1.8 0-2.5-.3-.6-.5-.1-.5 1.3m-34.9 8.5c0 3.3.2 4.5.4 2.7s.2-4.5 0-6-.4 0-.4 3.3m-215.3-2.5c.8.5 2 1 2.5 1 .6 0 .3-.5-.5-1s-1.9-1-2.5-1c-.5 0-.3.5.5 1m98 12.4c0 .2.8 1 1.8 1.7 1.5 1.3 1.6 1.2.3-.4s-2.1-2.1-2.1-1.3m159.3.3c1.5.2 3.7.2 5 0 1.2-.2 0-.4-2.8-.4-2.7 0-3.8.2-2.2.4m-172.4 2c-1.3 1.6-1.2 1.7.4.4.9-.7 1.7-1.5 1.7-1.7 0-.8-.8-.3-2.1 1.3m105.5-.6c-.5.8-.3.9.6.4.7-.4 1.6-.2 2.2.6.8 1.2.9 1.2.6 0-.6-2-2.4-2.5-3.4-1m-101.5 3.6c-1.3 1.6-1.2 1.7.4.4.9-.7 1.7-1.5 1.7-1.7 0-.8-.8-.3-2.1 1.3m24.7.5c1 1.4 2.1 2.4 2.3 2.2.3-.3-.6-1.5-1.8-2.7l-2.4-2.2zm34.2-1.5c.7.3 1.6.2 1.9-.1.4-.3-.2-.6-1.3-.5-1.1 0-1.4.3-.6.6m11 0c.7.3 1.6.2 1.9-.1.4-.3-.2-.6-1.3-.5-1.1 0-1.4.3-.6.6m-15.3 1.3c-.3.6.1.7.9.4 1.8-.7 2.1-1.4.7-1.4-.6 0-1.3.4-1.6 1m49.6 1c-.2 3.1 6.2 33 7 33 .4 0 .3-1.7-.2-3.8-.4-2-1.9-8.7-3.3-14.7-1.4-6.1-2.7-12.4-2.9-14-.3-2.6-.4-2.7-.6-.5m59.4-.5c-2.1.8-5.9 2.8-8.3 4.5-5.7 4-8.5 2.4-4.4-2.4l1.7-2.1-2.3 2c-1.6 1.3-2.1 2.6-1.7 4.2.3 1.4.1 2.3-.6 2.3s-1 .2-.7.5c.8.8 8.9-2.3 13-5 4.8-3.2 6.8-3.2 6.8 0 0 2-1.2 3.3-5.3 5.9-11.1 7.1-18.1 7.4-30.1 1.1-9.5-4.9-10.5-5.2-8.6-3 3.4 4.2 18.4 10.5 22.8 9.7 1.8-.4 2.6 2.6 1.2 4.3-.7.8-1 2.2-.6 3 1 2.6-1.4 6.5-3.8 6.1-1.2-.2-1.6-.1-1 .1 5.1 1.9 7.9 18.8 3.9 23.4-1.1 1.2-1.4 1.9-.7 1.5s1.9-.2 2.7.4c.8.7 2 1 2.7.7.8-.4.7-.6-.4-.6-7.8-.4 19.3-25 33.2-30.2 7.2-2.7 8-3.5 8-7.8 0-13.3-14.6-23.2-27.5-18.6m-12.5 41.5c0 1.3-.1 1.3-1 0-.5-.8-1-2.2-1-3 0-1.3.1-1.3 1 0 .5.8 1 2.2 1 3m-.3 5.2c-.3.8-.6.5-.6-.6-.1-1.1.2-1.7.5-1.3.3.3.4 1.2.1 1.9m37.8-45.2c1 1.1 2 2 2.3 2s-.3-.9-1.3-2-2-2-2.3-2 .3.9 1.3 2m-195.4.6c0 1.1.3 1.4.6.6.3-.7.2-1.6-.1-1.9-.3-.4-.6.2-.5 1.3m21.9-1.2c0 .2.8 1 1.8 1.7 1.5 1.3 1.6 1.2.3-.4s-2.1-2.1-2.1-1.3m32.4 3.8L270 254l3.3-2.9c3-2.8 3.7-3.6 2.9-3.6-.2 0-1.6 1.5-3.3 3.2m45.5-1.5c-1.3 1.6-1.2 1.7.4.4.9-.7 1.7-1.5 1.7-1.7 0-.8-.8-.3-2.1 1.3m-82.7 1.3c0 1.4.2 1.9.5 1.2.2-.6.2-1.8 0-2.5-.3-.6-.5-.1-.5 1.3m108.8.2c0 1.3.9 5.7 2 9.7 1.1 4.1 1.8 8.3 1.5 9.2-.3 1-.1 2 .5 2.4 1.6 1 1.2-4.5-1.1-14.4-2.1-9.1-2.9-11.1-2.9-6.9M180 251c1.1.9 2.9 2.1 4 2.6l2 1-2-1.6c-1.1-.9-2.9-2.1-4-2.6l-2-1zm60.6.1c0 1.1.3 1.4.6.6.3-.7.2-1.6-.1-1.9-.3-.4-.6.2-.5 1.3m8.9-.7c0 .6.4 1.3 1 1.6s.7-.1.4-.9c-.7-1.8-1.4-2.1-1.4-.7m-26.8 2.6c0 1.6.2 2.2.5 1.2.2-.9.2-2.3 0-3-.3-.6-.5.1-.5 1.8m144.1 3.2c.9.2 2.5.2 3.5 0 .9-.3.1-.5-1.8-.5s-2.7.2-1.7.5m-148.2 1.9c0 1.1.3 1.4.6.6.3-.7.2-1.6-.1-1.9-.3-.4-.6.2-.5 1.3m19.4 4.1c-2.2 1.9-3.1 3.1-2 2.5 1.9-.9 7.4-6.3 6.4-6.2-.2.1-2.2 1.7-4.4 3.7m69.6-1.1c0 1.1.3 1.4.6.6.3-.7.2-1.6-.1-1.9-.3-.4-.6.2-.5 1.3m-111.7.3c.7 1.1 4.6 3.5 4.6 2.8 0-.3-1.2-1.2-2.6-2.2-1.5-.9-2.3-1.2-2-.6m28.6.6c.1.5.7 1.8 1.4 2.8 1.6 2.1 2.9.9 1.5-1.3-.5-.8-.9-1.1-.9-.5 0 .5-.5.3-1-.5s-1-1.1-1-.5m42.1 1.1c0 1.1.3 1.4.6.6.3-.7.2-1.6-.1-1.9-.3-.4-.6.2-.5 1.3m-61.1 4.8c0 .2.8 1 1.8 1.7 1.5 1.3 1.6 1.2.3-.4s-2.1-2.1-2.1-1.3m213.9 4.3c-1.3 1.6-1.2 1.7.4.4.9-.7 1.7-1.5 1.7-1.7 0-.8-.8-.3-2.1 1.3m-194.9-.3c0 .2.8 1 1.8 1.7 1.5 1.3 1.6 1.2.3-.4s-2.1-2.1-2.1-1.3m141 1.6c1.9 1.3 3 1.3 3 0 0-.6-1-1-2.2-1-1.9 0-2 .2-.8 1m-61.9 1.6c0 1.1.3 1.4.6.6.3-.7.2-1.6-.1-1.9-.3-.4-.6.2-.5 1.3m-37.1.8c0 .8.4 1.7.9 2 .5.4.7-.3.4-1.4-.6-2.3-1.3-2.6-1.3-.6m40.2 1.1c0 1.6.2 2.2.5 1.2.2-.9.2-2.3 0-3-.3-.6-.5.1-.5 1.8m-90.2-1.1c0 .2.8 1 1.8 1.7 1.5 1.3 1.6 1.2.3-.4s-2.1-2.1-2.1-1.3m285.9 2.3c-1.2 1.6-1.2 1.7.1.7.8-.6 2.2-1.4 3-1.7 1.3-.5 1.2-.6-.1-.6-.9-.1-2.3.7-3 1.6M270.3 280c.2 1.4.6 2.5.8 2.5s.4-1.1.4-2.5-.4-2.5-.9-2.5c-.4 0-.6 1.1-.3 2.5m32.4 1c0 1.6.2 2.2.5 1.2.2-.9.2-2.3 0-3-.3-.6-.5.1-.5 1.8m100.6-.9c-3.8 2-3.6 2.8.2.9 1.7-.9 3-1.8 3-2 0-.7-.1-.6-3.2 1.1m-150.4 2.6L251 285l2.3-1.9c2.1-1.8 2.7-2.6 1.9-2.6-.2 0-1.2 1-2.3 2.2m165.4-.5c.6.2 1.8.2 2.5 0 .6-.3.1-.5-1.3-.5s-1.9.2-1.2.5m15 .3c1.2.5 2.2 1.5 2.2 2.1 0 .7.3.9.6.6 1-1-1.6-3.7-3.5-3.6-1.1 0-.9.3.7.9m-195.1 1.1c.7.7 1.5 1 1.8.7s-.2-.9-1.2-1.2c-1.4-.6-1.5-.5-.6.5m272.1-.4c.6.2 1.8.2 2.5 0 .6-.3.1-.5-1.3-.5s-1.9.2-1.2.5m-282.8.7c0 .2.8 1 1.8 1.7 1.5 1.3 1.6 1.2.3-.4s-2.1-2.1-2.1-1.3m268.3 1.1c-.3.9-.3 1.8-.1 2.1.3.3.8-.4 1.1-1.6.6-2.3-.1-2.7-1-.5m18.8-1.2c.2.1 1.3.9 2.4 1.7 1.9 1.4 1.9 1.4.6-.3-.7-.9-1.8-1.7-2.4-1.7q-.9 0-.6.3m-30.1 1.1c0 .2.8 1 1.8 1.7 1.5 1.3 1.6 1.2.3-.4s-2.1-2.1-2.1-1.3m-218.6 3.8L263 292l3.3-2.9c1.7-1.7 3.2-3.1 3.2-3.3 0-.8-.8-.1-3.6 2.9m122.6 3.5L382 299l6.8-6.5c3.7-3.5 6.7-6.6 6.7-6.7 0-.8-1 .2-7 6.4m-157-5.3c0 .2.8 1 1.8 1.7 1.5 1.3 1.6 1.2.3-.4s-2.1-2.1-2.1-1.3m71.2 2.1c0 1.6.2 2.2.5 1.2.2-.9.2-2.3 0-3-.3-.6-.5.1-.5 1.8m111.8-.6c-14.6 4.7-21.4 12.7-17.8 20.6 1.1 2.6.1 4.4-2.4 4.5-1.4 0-3.6-4.5-4.2-8.6-.6-3.9-.3-4.5 4.1-9.5l4.7-5.4-6.2 6c-3.5 3.3-5.8 6.1-5.2 6.3.5.2 1 1.7 1 3.3 0 8.1 6.5 13.9 13.7 12.3 2.1-.4 4.3-.8 5-.9.6 0 2.1-1.3 3.3-2.8s2.6-2.7 3.2-2.7.5.7-.3 1.7c-.7 1 .1.5 1.8-1.1 1.8-1.6 5.1-6 7.5-9.8 3-4.7 4.8-6.7 5.9-6.5 1.3.4 5.9-6.4 5.9-8.7 0-1.2-15.3-.3-20 1.3m69 1.6c1.3 1.4 2.6 2.5 2.8 2.5.3 0-.5-1.1-1.8-2.5s-2.6-2.5-2.8-2.5c-.3 0 .5 1.1 1.8 2.5m28-1.8c.8.3 1.9 1.1 2.3 1.7.6.7.7.6.4-.4-.2-.8-1.2-1.6-2.3-1.7-1.3-.2-1.5-.1-.4.4m-4.3 2.1c-2.4 2.6-2.1 4.2.6 4.1 1.6-.1 1.8-.2.5-.6-2.2-.6-2.2-1.2-.1-3.5.9-1 1.4-1.8 1.1-1.8s-1.2.8-2.1 1.8m-271.7-.4c0 .2.8 1 1.8 1.7 1.5 1.3 1.6 1.2.3-.4s-2.1-2.1-2.1-1.3m240.8.3c.7.3 1.6.2 1.9-.1.4-.3-.2-.6-1.3-.5-1.1 0-1.4.3-.6.6m-169.6 2.3c0 1.4.2 1.9.5 1.2.2-.6.2-1.8 0-2.5-.3-.6-.5-.1-.5 1.3m209.2 2.2L514 297l2.3-1.9c1.2-1.1 2.2-2.1 2.2-2.3 0-.8-.8-.2-2.6 1.9m-260.6-.5c.7.3 1.6.2 1.9-.1.4-.3-.2-.6-1.3-.5-1.1 0-1.4.3-.6.6m48.3.9c0 1.1.3 1.4.6.6.3-.7.2-1.6-.1-1.9-.3-.4-.6.2-.5 1.3m163.8.1c-1.3 1.6-1.2 1.7.4.4s2.1-2.1 1.3-2.1c-.2 0-1 .8-1.7 1.7m8.5.2c-2.5 1.1-5 3.3-6.3 5.5-9.2 14.8 5 23.9 22.1 14.3 3.7-2.1 7-4.2 7.4-4.8.3-.6-.3-.5-1.4.2-2.7 1.7-3.3 1-4-4.6-.5-4.5-.7-4.8-5.1-6.7-2.5-1-5.5-2.8-6.6-3.8-2-1.8-2.1-1.8-6.1-.1m-233.4-.5c0 .2.8 1 1.8 1.7 1.5 1.3 1.6 1.2.3-.4s-2.1-2.1-2.1-1.3m9.1.7c-.1.9.7 2.3 1.7 3 1.5 1.2 1.6 1.2.6-.1-.6-.8-1.4-2.2-1.7-3-.5-1.3-.6-1.2-.6.1m259.9 1.9c-1 .6-1.1 1-.2 1 .6 0 1.2.7 1.2 1.5s-.6 1.5-1.2 1.5c-.7 0-.2.6 1.2 1.3a6 6 0 0 1 3 4.2c.5 2.6.7 2.7 1.3 1.1.5-1.4.1-2.9-1.3-4.8-1.2-1.6-2.2-3.8-2.3-4.8-.1-1.1-.1-2-.2-2 0 0-.7.5-1.5 1m-265 .4c0 .2.8 1 1.8 1.7 1.5 1.3 1.6 1.2.3-.4s-2.1-2.1-2.1-1.3m203.2 2.6c0 1.4.2 1.9.5 1.2.2-.6.2-1.8 0-2.5-.3-.6-.5-.1-.5 1.3m55.3-.9c-.4.6-.4 1.3-.1 1.6.3.4.6.1.6-.5s.8-1.3 1.8-1.5c1.5-.4 1.5-.5 0-.6-.9 0-2 .4-2.3 1m13 .9c1 1.1 2 2 2.3 2s-.3-.9-1.3-2-2-2-2.3-2 .3.9 1.3 2m-261 1c1 1.1 2 2 2.3 2s-.3-.9-1.3-2-2-2-2.3-2 .3.9 1.3 2m-25.5 1.4c0 .2.9.6 2 .9s1.8.1 1.4-.4c-.5-.9-3.4-1.3-3.4-.5m22 0c0 .2.8 1 1.8 1.7 1.5 1.3 1.6 1.2.3-.4s-2.1-2.1-2.1-1.3m11 4.8c2.4 2.7 4.5 4.8 4.7 4.8.8 0 0-.9-4.4-5L260 303zm48.5-1.2c1 1.1 2 2 2.3 2s-.3-.9-1.3-2-2-2-2.3-2 .3.9 1.3 2m-76.4-.7c.2.2 2 1.4 3.9 2.6l3.5 2.3-3-2.6c-1.6-1.4-3.4-2.6-3.9-2.6s-.7.1-.5.3m22.9 2.2c1.3 1.4 2.6 2.5 2.8 2.5.3 0-.5-1.1-1.8-2.5s-2.6-2.5-2.8-2.5c-.3 0 .5 1.1 1.8 2.5m39.9 1.2c-1.3 1.6-1.2 1.7.4.4s2.1-2.1 1.3-2.1c-.2 0-1 .8-1.7 1.7m29.1-.7c-.9.6-1 1-.3 1 .6 0 1.5-.5 1.8-1 .8-1.2.4-1.2-1.5 0m181 .1c0 .5.5.7 1 .4.6-.3 1-.8 1-1.1 0-.2-.4-.4-1-.4-.5 0-1 .5-1 1.1m12.2.9c0 1.4.2 1.9.5 1.2.2-.6.2-1.8 0-2.5-.3-.6-.5-.1-.5 1.3M229.8 313c0 2.7.2 3.8.4 2.2.2-1.5.2-3.7 0-5-.2-1.2-.4 0-.4 2.8m213.7-3.7c0 .7-.9 2.5-2.1 4.1l-2.1 2.8 2.1 3.4c7.1 11.5-2.2 27.9-15.8 27.9-3.5 0-5.1.4-5.5 1.6-.9 2.3-.7 3.1.3 1.5.8-1.2 1.7-.8 4.9 2.1 4.6 4.2 4.6 4.2 17.7 6.4 11.1 1.8 18.4 4.3 23.3 8 3.5 2.8 4.1 5 1.5 5.7-1.7.4-1.7.5 0 .6 1 0 2.2 1.2 2.7 2.6.7 1.7 1.6 2.5 3.2 2.4l2.3-.2-2.2-.4c-3.8-.7-2.6-2.9 3.1-6.1 15.7-8.9 12.2-30.8-6.4-39.3-19.8-9.2-22.3-11-25-18.9-1.1-3-1.9-4.9-2-4.2m-122.7.9c.9.2 2.5.2 3.5 0 .9-.3.1-.5-1.8-.5s-2.7.2-1.7.5m-68.8 8.3c4.4 4.4 8.2 8 8.5 8 .2 0-3.1-3.6-7.5-8s-8.2-8-8.5-8c-.2 0 3.1 3.6 7.5 8m14.5-4.5c1.9 1.9 3.6 3.5 3.9 3.5s-1-1.6-2.9-3.5-3.6-3.5-3.9-3.5 1 1.6 2.9 3.5m194.7-1c.3 1.6 1.7 4.1 3.1 5.5 1.5 1.4 1.9 1.6 1 .5s-2.3-3.6-3.2-5.5c-1.5-3.4-1.5-3.4-.9-.5m41.2.2c-1.2 1.6-1.2 1.7.1.7.8-.6 2.2-1.4 3-1.7 1.3-.5 1.2-.6-.1-.6-.9-.1-2.3.7-3 1.6m-231.9-.3c0 .2.8 1 1.8 1.7 1.5 1.3 1.6 1.2.3-.4s-2.1-2.1-2.1-1.3m114 .2c0 .6.7 1.9 1.6 3 1.4 1.8 1.4 1.8.3-.6-1.4-3.1-1.9-3.6-1.9-2.4m66 2.3c0 .6.4 1.3 1 1.6s.7-.1.4-.9c-.7-1.8-1.4-2.1-1.4-.7m67.4 1.3L516 319l2.3-1.9c1.2-1.1 2.2-2.1 2.2-2.3 0-.8-.8-.2-2.6 1.9m-12.6.5c.7.3 1.6.2 1.9-.1.4-.3-.2-.6-1.3-.5-1.1 0-1.4.3-.6.6m-233.5 4.1c-.1 3.7-.1 3.7.8.7.4-1.6.5-3.3.1-3.7s-.8 1-.9 3m34.2.2c1 1.1 2 2 2.3 2s-.3-.9-1.3-2-2-2-2.3-2 .3.9 1.3 2m99-.1c-.6.6-3 1.1-5.5 1.4l-4.5.4 4.6.1c3.1.1 5.1-.3 5.9-1.3 1.4-1.6 1-2.1-.5-.6m63.9.5c1.1.9 2.4 1.6 3 1.6 1.2 0 .7-.5-2.4-1.9-2.4-1.1-2.4-1.1-.6.3m7.9 2.3c1.5.2 3.7.2 5 0 1.2-.2 0-.4-2.8-.4-2.7 0-3.8.2-2.2.4m11.1 1.5L486 328l2.3-1.9c2.1-1.8 2.7-2.6 1.9-2.6-.2 0-1.2 1-2.3 2.2m-221.4 6c4.1 4.5 5 5.3 5 4.5 0-.2-2.1-2.3-4.7-4.7L262 327zm-49.2-.5c.6.2 1.8.2 2.5 0 .6-.3.1-.5-1.3-.5s-1.9.2-1.2.5m18.2 2.2c0 .6.4 1.3 1 1.6s.7-.1.4-.9c-.7-1.8-1.4-2.1-1.4-.7m247 1.6c1.3 1.4 2.6 2.5 2.8 2.5.3 0-.5-1.1-1.8-2.5s-2.6-2.5-2.8-2.5c-.3 0 .5 1.1 1.8 2.5m-277.1 2.2L202 341l3.8-3.4c2-1.9 3.7-3.6 3.7-3.8 0-.8-.8 0-4.1 3.4m24.6.3c2.1 2.2 4.1 4 4.4 4s-1.3-1.8-3.4-4-4.1-4-4.4-4 1.3 1.8 3.4 4m256.7-2.4c1 1 2 1.6 2.2 1.3.3-.3-.5-1.1-1.7-1.8-2.1-1.3-2.1-1.2-.5.5m-245.2 7.8c0 .2.8 1 1.8 1.7 1.5 1.3 1.6 1.2.3-.4s-2.1-2.1-2.1-1.3m-46.9 5.2c0 1.1.3 1.4.6.6.3-.7.2-1.6-.1-1.9-.3-.4-.6.2-.5 1.3m46.9 2.9c1.9 1.9 3.6 3.5 3.9 3.5s-1-1.6-2.9-3.5-3.6-3.5-3.9-3.5 1 1.6 2.9 3.5m7 0c1.3 1.4 2.6 2.5 2.8 2.5.3 0-.5-1.1-1.8-2.5s-2.6-2.5-2.8-2.5c-.3 0 .5 1.1 1.8 2.5m174 6c1.3 1.4 2.6 2.5 2.8 2.5.3 0-.5-1.1-1.8-2.5s-2.6-2.5-2.8-2.5c-.3 0 .5 1.1 1.8 2.5m-25.1.2c-1.3 1.6-1.2 1.7.4.4.9-.7 1.7-1.5 1.7-1.7 0-.8-.8-.3-2.1 1.3m-124.5 1.5L271 361l2.3-1.9c2.1-1.8 2.7-2.6 1.9-2.6-.2 0-1.2 1-2.3 2.2m130.1-.4c-1.2.9-4.5 6.7-4.5 7.9 0 .4.5 0 1.1-1 .5-.9 1.7-1.7 2.4-1.7.8 0 1.6-.5 1.6-1 .1-.6.2-1.4.3-1.9 0-.5.5-1.3 1-1.8s.6-.3.2.4-.2 1.3.4 1.3.8.6.4 1.2c-.4.7.1.6 1.2-.3 1-1 2.8-1.9 3.9-2.3 1.2-.3.9-.4-.7-.2s-2.8-.1-2.8-.5c0-1.1-3.1-1.2-4.5-.1m87.6 1.8c0 1.1.3 1.4.6.6.3-.7.2-1.6-.1-1.9-.3-.4-.6.2-.5 1.3m-54.3 3.1c.7.3 1.6.2 1.9-.1.4-.3-.2-.6-1.3-.5-1.1 0-1.4.3-.6.6m7 1c.7.3 1.6.2 1.9-.1.4-.3-.2-.6-1.3-.5-1.1 0-1.4.3-.6.6m-33.7 2.8c-3.4 8.5-2.7 34.5.9 34.5 3.2 0 4.5-26 1.7-33.5l-1.5-4zm-155.1-1c0 .5.5 1.7 1 2.5s1 1 1 .5c0-.6-.5-1.7-1-2.5s-1-1.1-1-.5m174.3.2c.9.2 2.3.2 3 0 .6-.3-.1-.5-1.8-.5-1.6 0-2.2.2-1.2.5m9 0c.9.2 2.5.2 3.5 0 .9-.3.1-.5-1.8-.5s-2.7.2-1.7.5m-39.8 4c.4 2 0 4.3-.9 6.2-.9 1.6-1.6 3.8-1.5 4.8 0 1 .3 1.3.6.5.2-.6 1-1.2 1.8-1.2 2 0 2.6-7.9.9-10.9l-1.5-2.6zm19.7-.7c0 1.4.2 1.9.5 1.2.2-.6.2-1.8 0-2.5-.3-.6-.5-.1-.5 1.3m-15.1.6c0 1.1.3 1.4.6.6.3-.7.2-1.6-.1-1.9-.3-.4-.6.2-.5 1.3m51.9-.2c0 .2.7.7 1.6 1 .8.3 1.2.2.9-.4-.6-1-2.5-1.4-2.5-.6m-18.8 1.6c8.9 1.1 10.8 1.8 10.8 4 0 1.7-.8 1.9-9.5 1.7-13.2-.3-13.8.4-10 11 1.6 4.3 3 10.3 3.2 13.5.5 6.1.2 6.8-7.1 16.6-6.1 8.3-6.2 13.9-.5 23.4 6.5 10.7 7.7 13.6 9 21.3 1.4 8.8 2 9.9 6.3 11.9 6.4 3 14.5 1.5 20.5-3.9 2.3-2.1 4.1-3.1 4.7-2.5.5.5.9-.4 1-2.4 0-3.2 0-3.2-1.9-1.3-3.9 3.9-17.4 6.6-19.1 3.8-1.5-2.3.7-4.1 5-4.1 12.7 0 14.9-4.2 9.9-18.7-5.5-16-4.4-21.8 6.6-32.4 3.2-3.1 6.3-6.8 6.9-8.3 6.1-16.1-14.2-35-37-34.5l-5.5.2zM256.8 375c0 2.2.2 3 .4 1.7.2-1.2.2-3 0-4-.3-.9-.5.1-.4 2.3m163.7-2.2c0 .5-.4.5-1 .2-.6-.4-1 .8-1 2.9 0 1.9.5 3.8 1 4.1.6.3 1-.3 1-1.5 0-2.3 2.9-5.2 6.3-6.2 1.4-.4.7-.6-2-.5-2.4.1-4.3.6-4.3 1m-220 0c0 .2 1.5 1.6 3.3 3.3l3.2 2.9-2.9-3.3c-2.8-3-3.6-3.7-3.6-2.9m63.9 1.4c-1.3 1.6-1.2 1.7.4.4.9-.7 1.7-1.5 1.7-1.7 0-.8-.8-.3-2.1 1.3m127.3.3c0 1.4.2 1.9.5 1.2.2-.6.2-1.8 0-2.5-.3-.6-.5-.1-.5 1.3m-217.9-.3c2 .2 5.4.2 7.5 0 2-.2.3-.4-3.8-.4s-5.8.2-3.7.4m98.4 0c-.3.5 2.7.7 6.6.5 12.9-.5 14.4-.9 4-1-5.6-.1-10.4.1-10.6.5m-106.9 1c.6.2 1.8.2 2.5 0 .6-.3.1-.5-1.3-.5s-1.9.2-1.2.5m130 0c.6.2 1.8.2 2.5 0 .6-.3.1-.5-1.3-.5s-1.9.2-1.2.5m172.2 3.5c4.1 4.5 5 5.3 5 4.5 0-.2-2.1-2.3-4.7-4.7L463 374zm11-2.7c-1.4.8-2 1.4-1.4 1.5.5 0 1.9-.7 3-1.5 2.4-1.8 1.6-1.9-1.6 0m-76.7 6.5c0 4.1.2 5.8.4 3.7.2-2 .2-5.4 0-7.5-.2-2-.4-.3-.4 3.8M273.5 377c0 .5.9 3.3 2 6.2 3.7 9.7 5.4 23.6 3.6 28.8-.8 2.5-1.1 4.3-.5 4 .5-.4.9-.1.9.4 0 .6.4 1.1.9 1.1.4 0 .6-1.1.4-2.4-.4-1.9-.1-2.4 1.4-2.3 1.7.2 1.8-.6 1.5-11.3-.1-6.3-.7-12.6-1.2-14-2.1-5.3-1.7-9.5.9-9.8 1.3-.2 2.8.2 3.2 1 .7 1 .9.9.9-.5 0-1.9-5.4-2.5-6.5-.7-.5.8-1.1.7-2.1-.1-1.8-1.5-1.8-1 .6 6 1.3 3.9 2.1 9.7 2.4 17.2l.5 11.4-1-9.5c-1-10.2-3.9-21.2-6.3-24.5-.9-1.1-1.6-1.6-1.6-1m20.2.7c-3.2 3.2-1 4.4 4.1 2.3 2.6-1.1 2.2 1.8-.9 5.4-3.1 3.7-2.7 8.5.5 5.7 3.9-3.5 4.5.8.6 4.4-2.7 2.5-3.4 6-1.1 6 .7 0 1.9-.7 2.6-1.5 1.6-2 3-1.9 3 .1 0 .9-1.7 3.1-3.7 5-4.1 3.7-4 5 .2 3.4 2.3-.9 2.6-.8 2.1.5-.3.9-.2 1.3.4 1 2.2-1.4 1-3.5-1.5-2.9-2.6.6-2.6.6.5-2.4 4.3-4.3 3.5-9.7-.9-5.8-3.8 3.5-4.4.2-.6-3.4 2.6-2.5 3.3-5.4 1.4-6.6-.6-.3-1.6-.1-2.2.5-3.4 3.4-3.5-.1-.2-4.1 4-4.8 2.5-7.5-2.9-5.3-1.4.6-1.7.4-1.4-.6.2-.7 1.5-1.6 2.9-2 2.1-.6 2.1-.7.4-.8-1.2-.1-2.6.4-3.3 1.1m-31.9 8.3c0 3.8.2 5.3.4 3.2.2-2 .2-5.2 0-7-.2-1.7-.4-.1-.4 3.8m22.8-4.9c0 1.1.3 1.4.6.6.3-.7.2-1.6-.1-1.9-.3-.4-.6.2-.5 1.3m106.2 4.9c0 3.8.2 5.3.4 3.2.2-2 .2-5.2 0-7-.2-1.7-.4-.1-.4 3.8m-237-4c-.3.9-.3 1.8-.1 2.1.3.3.8-.4 1.1-1.6.6-2.3-.1-2.7-1-.5m135.9 2.3c-1.1 2.5-1.1 2.5.4 1 .9-.9 1.5-2.1 1.3-2.7s-1 .2-1.7 1.7m-78.2-1.4c0 .2.8 1 1.8 1.7 1.5 1.3 1.6 1.2.3-.4s-2.1-2.1-2.1-1.3m71.1.8c-.2 3.8 2.7 6.5 4.3 3.9.3-.5-.2-.8-1.1-.7-1 0-2-.9-2.4-2.4-.4-1.4-.7-1.8-.8-.8m136.6-.5c-.4.3-.6 2.7-.6 5.2l.1 4.6.9-5c.8-5.1.7-6-.4-4.8m54.3 3.3c.6 1.1 1.3 2 1.6 2 .2 0 0-.9-.6-2s-1.3-2-1.6-2c-.2 0 0 .9.6 2m-319.7 4.8c.2 2.8.6 5.4.9 5.7s.4-1.7.2-4.6-.6-5.4-.9-5.7-.4 1.8-.2 4.6m242.2-1.1c.4 2.1.7 4.8.7 6-.2 2.6 2.5 3.2 3.4.9 1.1-2.8-1.1-10.1-3-10.4-1.7-.4-1.8 0-1.1 3.5m-187.4-.1c0 1.1.3 1.4.6.6.3-.7.2-1.6-.1-1.9-.3-.4-.6.2-.5 1.3m82.2 0c1.5.5 1.8 1.3 1.5 3.5-.3 1.8-.1 2.6.5 2 1.6-1.6.4-5.6-1.8-5.8-1.7-.2-1.8-.1-.2.3m-5 1.1c-1.7.6-1.6 6.8 0 8.2 1.1.8 1.8.6 3.3-1.2 1.9-2.2 1.9-2.2-.2-.4-1.1.9-2.4 1.4-2.7 1-1.4-1.3-.7-6.2 1.1-7.2 1.7-1.1.7-1.3-1.5-.4m-77.2 2.9c0 1.1.3 1.4.6.6.3-.7.2-1.6-.1-1.9-.3-.4-.6.2-.5 1.3m42 2c0 1.1.3 1.4.6.6.3-.7.2-1.6-.1-1.9-.3-.4-.6.2-.5 1.3m152 0c0 1.1.3 1.4.6.6.3-.7.2-1.6-.1-1.9-.3-.4-.6.2-.5 1.3m-140 1c0 1.1.3 1.4.6.6.3-.7.2-1.6-.1-1.9-.3-.4-.6.2-.5 1.3m155 0c0 1.1.3 1.4.6.6.3-.7.2-1.6-.1-1.9-.3-.4-.6.2-.5 1.3m-212.2 2.1L203 402l2.8-2.4c2.5-2.3 3.2-3.1 2.4-3.1-.2 0-1.4 1.2-2.8 2.7m83.1 2.6c-2.6 1.3-3.8 4.3-2.3 5.8.5.5.9-.2.8-1.8 0-2 .7-2.8 2.8-3.6 3.4-1.1 4.5-.3 2.6 2-1.3 1.6-1.2 1.7.4.4 4.1-3.2.8-5.4-4.3-2.8m137.2.7c0 1.4.2 1.9.5 1.2.2-.6.2-1.8 0-2.5-.3-.6-.5-.1-.5 1.3m-172.2.4c0 .2.8 1 1.8 1.7 1.5 1.3 1.6 1.2.3-.4s-2.1-2.1-2.1-1.3m145.5 3.8c0 2.4.2 2.6 1.1 1.3 1-1.4 1.2-1.3 1.7.5.5 1.9 4.7 3 4.7 1.2 0-1.2-2.9-4.8-3-3.7 0 .6.6 1.7 1.3 2.4 1 1.1.9 1.3-.3.9-.9-.3-1.4-1.6-1.3-3.1.1-2.2-.2-2.6-2-2.5-1.7.2-2.2.8-2.2 3m14.4-.5c-1.3 1.6-1.2 1.7.4.4s2.1-2.1 1.3-2.1c-.2 0-1 .8-1.7 1.7m-245.1 0c.7.3 1.6.2 1.9-.1.4-.3-.2-.6-1.3-.5-1.1 0-1.4.3-.6.6m24 0c.7.3 1.6.2 1.9-.1.4-.3-.2-.6-1.3-.5-1.1 0-1.4.3-.6.6m-20 1c.6.2 1.8.2 2.5 0 .6-.3.1-.5-1.3-.5s-1.9.2-1.2.5m14 0c.6.2 1.8.2 2.5 0 .6-.3.1-.5-1.3-.5s-1.9.2-1.2.5m102 2.6c-2.6 1-3.8 2.7-1.9 2.7s7.1-2.3 7.1-3.1c0-1.1-1.7-1-5.2.4m5.7 2.2c-3.9 1.7-2.1 1.8 2.5 0 1.9-.7 2.8-1.4 2-1.4s-2.8.6-4.5 1.4m177.4 1.2c-1.3 1.6-1.2 1.7.4.4s2.1-2.1 1.3-2.1c-.2 0-1 .8-1.7 1.7M210.8 415c-.3.9-.3 1.8-.1 2.1.3.3.8-.4 1.1-1.6.6-2.3-.1-2.7-1-.5m292.5.2c.7.3 1.6.2 1.9-.1.4-.3-.2-.6-1.3-.5-1.1 0-1.4.3-.6.6m-38.3 4.5-4 4.3 4.3-4c3.9-3.6 4.7-4.5 3.9-4.5-.2 0-2.1 1.9-4.2 4.2m34.4-2.5c-1.3 1.6-1.2 1.7.4.4s2.1-2.1 1.3-2.1c-.2 0-1 .8-1.7 1.7M271.5 419c0 .8.2 1.5.4 1.5s.6-.7 1-1.5c.3-.8.1-1.5-.4-1.5-.6 0-1 .7-1 1.5m239.3.2c.9.2 2.3.2 3 0 .6-.3-.1-.5-1.8-.5-1.6 0-2.2.2-1.2.5m-95.8 1.4c-.4.6-.5 1.2-.2 1.5.2.3.7-.2 1-1.1.7-1.7.1-2-.8-.4m81.8.4c-.3.9-.3 1.8-.1 2.1.3.3.8-.4 1.1-1.6.6-2.3-.1-2.7-1-.5m7.9 1.5c0 1.4.2 1.9.5 1.2.2-.6.2-1.8 0-2.5-.3-.6-.5-.1-.5 1.3m-19.9-.3c.9.2 2.3.2 3 0 .6-.3-.1-.5-1.8-.5-1.6 0-2.2.2-1.2.5m27.4 3.3c.3 1.1.7 2 .9 2s.4-.9.4-2-.4-2-.9-2-.7.9-.4 2m-241.6 1.2c-.1 2.1.4 2.8 1.8 2.8 1.1 0 2.2.6 2.4 1.2q.6 1.5.6 0c.1-.8-.8-1.6-1.8-1.9-1.1-.3-2.2-1.5-2.4-2.7q-.45-2.55-.6.6m189.4-1.1c-.4.6-.5 1.2-.2 1.5.2.3.7-.2 1-1.1.7-1.7.1-2-.8-.4m40.8 2.9c0 2.5.2 3.5.4 2.2.2-1.2.2-3.2 0-4.5-.2-1.2-.4-.2-.4 2.3m-124-2.3c1.5.2 3.7.2 5 0 1.2-.2 0-.4-2.8-.4-2.7 0-3.8.2-2.2.4m7.7-.3c0 .2.7.7 1.6 1 .8.3 1.2.2.9-.4-.6-1-2.5-1.4-2.5-.6m-15.2 1.3c.7.3 1.6.2 1.9-.1.4-.3-.2-.6-1.3-.5-1.1 0-1.4.3-.6.6m101.6 1.5L469 431l2.3-1.9c2.1-1.8 2.7-2.6 1.9-2.6-.2 0-1.2 1-2.3 2.2m11-1.1c-4.4 1.2-9.4 7.2-9.4 11 0 6 6.4 14.6 13.5 18.2 2.9 1.5 3 1.4 3.2-1 0-1.4 1.5-4 3.3-5.8l3.2-3.3-3.3-7.3c-1.7-4.1-3.2-8.6-3.3-10.1-.1-3.1-1.5-3.4-7.2-1.7m13.8 1.4c0 1.6.2 2.2.5 1.2.2-.9.2-2.3 0-3-.3-.6-.5.1-.5 1.8m-83 1.5c0 1.9.2 2.7.5 1.7.2-.9.2-2.5 0-3.5-.3-.9-.5-.1-.5 1.8m-199.2-.6c0 .2.8 1 1.8 1.7 1.5 1.3 1.6 1.2.3-.4s-2.1-2.1-2.1-1.3m171.6.4c-.3.3.1 1.6.9 2.9 1 1.5 1.2 2.3.4 2.3-.6 0 0 .9 1.5 2.1 3.5 2.7 3.3 6-.6 10.6-1.8 2.1-2.3 3-1.1 2 1.3-1.2 2.3-1.4 2.6-.7.3.6.4.5.3-.2s.5-2.1 1.5-3.1c2-2.2 1.5-5.2-1.4-8.5-1.8-1.9-1.8-2.2-.4-2.2.9 0 1.7-.4 1.7-.8 0-1.3-4.7-5.1-5.4-4.4m3.4 3.2c0 .5-.2 1-.4 1-.3 0-.8-.5-1.1-1-.3-.6-.1-1 .4-1 .6 0 1.1.4 1.1 1m70.2-1.5c0 1.6.2 2.2.5 1.2.2-.9.2-2.3 0-3-.3-.6-.5.1-.5 1.8m-87.5-.6c-1.7.6-1.7.8.5 1.9 2.6 1.4 7.9.4 8.6-1.6.4-1.3-6-1.6-9.1-.3m138.2.8c-1.3 1.6-1.2 1.7.4.4.9-.7 1.7-1.5 1.7-1.7 0-.8-.8-.3-2.1 1.3m-149.1 3.7c-3.6 2.2-3.8 3.7-.7 4.8 1.9.7 6.6-1.6 5.1-2.6-.7-.4-2.1-.2-3.3.4-1.1.7-2.3.9-2.6.7-.8-.9 3.8-2.9 5.3-2.3s1.8-.2.6-2.1c-.5-.8-1.7-.5-4.4 1.1m136.3-.8c0 1.1.3 1.4.6.6.3-.7.2-1.6-.1-1.9-.3-.4-.6.2-.5 1.3m14.3 1.6L508 440l3.3-2.9c3-2.8 3.7-3.6 2.9-3.6-.2 0-1.6 1.5-3.3 3.2m-161 0L348 439l2.3-1.9c2.1-1.8 2.7-2.6 1.9-2.6-.2 0-1.2 1-2.3 2.2m165.7-.9c.2.1 1.5 1.1 2.9 2.2l2.5 2-1.9-2.3c-1.1-1.2-2.4-2.2-2.9-2.2q-.9 0-.6.3m-145.3 1.4c.7.3 1.6.2 1.9-.1.4-.3-.2-.6-1.3-.5-1.1 0-1.4.3-.6.6m24.6 2.5L393 442l2.3-1.9c2.1-1.8 2.7-2.6 1.9-2.6-.2 0-1.2 1-2.3 2.2m-162.6-.5c.6.2 1.8.2 2.5 0 .6-.3.1-.5-1.3-.5s-1.9.2-1.2.5m23 0c.6.2 1.8.2 2.5 0 .6-.3.1-.5-1.3-.5s-1.9.2-1.2.5m14 0c.6.2 1.8.2 2.5 0 .6-.3.1-.5-1.3-.5s-1.9.2-1.2.5m9 0c.7.3 1.6.2 1.9-.1.4-.3-.2-.6-1.3-.5-1.1 0-1.4.3-.6.6m-37 1c2.3.2 5.9.2 8 0 2-.2.1-.4-4.3-.4s-6.1.2-3.7.4m40.2-.3c0 .2.7.7 1.6 1 .8.3 1.2.2.9-.4-.6-1-2.5-1.4-2.5-.6m69.7 1.3c-.4.3-.7 1.4-.7 2.3 0 2.3-2.8 4.6-5.4 4.3-2-.3-2-.2.2.9 2.5 1.2 4.9-1 6.4-5.9.7-2.4.6-2.7-.5-1.6m22.8 1.1c-8 2.4-14.6 5.7-17.5 8.7-1.3 1.4-1.9 2.5-1.4 2.5s1.5-.9 2.1-1.9c1.4-2.2 11.6-6.3 13.7-5.5.8.3 1.7.1 2.1-.5 1.2-2 2.6-1.2 1.5.9-.9 1.7-4.4 3.8-9.4 5.4-4 1.4-.7 1.5 4.2.1 7.4-1.9 17.7-8.3 16.1-9.9-1.4-1.4-6.2-1.3-11.4.2m25 1.3c-2 1.8-4.3 4.6-5.2 6.3-1.2 2.5-.7 2.2 2.9-1.8 4.2-4.7 6.8-5.5 6.8-2.1 0 2.2-10.5 16.9-15 20.9-5.6 5.1-7.5 5.6-20.8 5.7l-11.7.2 8 .8c10.5 1.2 10.1 1 11.4 6.8 1.2 5.5.7 8.1-1.5 8.1-2.1 0-6.3 3-7.6 5.3-1 2-1 2 1.7-.1 6.1-4.9 11.9-4.8 24.5.4 13.2 5.4 20.6 3.4 24.7-6.7 5.3-12.8.2-37.4-9.3-44.8-3.6-2.8-4.7-2.7-8.9 1m99.5-2.2c0 .6.4 1.3 1 1.6s.7-.1.4-.9c-.7-1.8-1.4-2.1-1.4-.7m-263.1 2.4c.5.5 1.9.7 3.2.5 2-.3 1.9-.5-.9-.9-2-.3-2.9-.2-2.3.4m8.9-.6c1.2.2 3.2.2 4.5 0 1.2-.2.2-.4-2.3-.4s-3.5.2-2.2.4m224.2 1.9c0 .6.7 1.9 1.6 3 1.4 1.8 1.4 1.8.3-.6-1.4-3.1-1.9-3.6-1.9-2.4m-117.1 2.1c-1.3 1.6-1.2 1.7.4.4s2.1-2.1 1.3-2.1c-.2 0-1 .8-1.7 1.7m171.3 1.3c0 1.9.2 2.7.5 1.7.2-.9.2-2.5 0-3.5-.3-.9-.5-.1-.5 1.8m-233 2c0 1.4.2 1.9.5 1.2.2-.6.2-1.8 0-2.5-.3-.6-.5-.1-.5 1.3m214.2.2c.3 2.1 1.6 3.8 2.9 3.7.9 0 .8-.2-.1-.6-.6-.2-1-.8-.7-1.3.3-.4-.2-1.3-.9-1.9-1.1-.9-1.4-.9-1.2.1m-32.4.2c0 .2.8 1 1.8 1.7 1.5 1.3 1.6 1.2.3-.4s-2.1-2.1-2.1-1.3m28.8.3c.7.3 1.6.2 1.9-.1.4-.3-.2-.6-1.3-.5-1.1 0-1.4.3-.6.6m16.8.8c-.9 2.6-.7 3.2.5 1.2.6-1 .9-2.1.6-2.3-.2-.3-.7.2-1.1 1.1m-173.6 2.9c0 1.7.5 2.6 1.6 2.6 1 0 1.4-.7 1.2-2.2-.5-3.2-2.8-3.5-2.8-.4m1.7.8c-.3.8-.6.5-.6-.6-.1-1.1.2-1.7.5-1.3.3.3.4 1.2.1 1.9m120.5.8c0 1.9.2 2.7.5 1.7.2-.9.2-2.5 0-3.5-.3-.9-.5-.1-.5 1.8m-141.4-1.3c.6.2 1.8.2 2.5 0 .6-.3.1-.5-1.3-.5s-1.9.2-1.2.5m8 0c.7.3 1.6.2 1.9-.1.4-.3-.2-.6-1.3-.5-1.1 0-1.4.3-.6.6m55.3 2.5-1.1 3.3 2-2.5c2.1-2.7 2.5-4 1.1-4-.5 0-1.4 1.5-2 3.2m-37.6-.2c1 1.1 2 2 2.3 2s-.3-.9-1.3-2-2-2-2.3-2 .3.9 1.3 2m158.1-.7c.3 1 .9 1.5 1.2 1.2s0-1.1-.7-1.8c-1-.9-1.1-.8-.5.6m-217.5 1.3c0 1.1.3 1.4.6.6.3-.7.2-1.6-.1-1.9-.3-.4-.6.2-.5 1.3m216 1c0 1.1.3 1.4.6.6.3-.7.2-1.6-.1-1.9-.3-.4-.6.2-.5 1.3m-6.1.4c-.9.6-1 1-.3 1 .6 0 1.5-.5 1.8-1 .8-1.2.4-1.2-1.5 0m-143.7.7c.9.2 2.5.2 3.5 0 .9-.3.1-.5-1.8-.5s-2.7.2-1.7.5m65.8.9c0 1.1.3 1.4.6.6.3-.7.2-1.6-.1-1.9-.3-.4-.6.2-.5 1.3m-128.5.9c-1.1.8-1.5 1.5-.9 1.5s1.6-.7 2.3-1.5c1.6-1.9 1.1-1.9-1.4 0m5.7-.8c.9.2 2.3.2 3 0 .6-.3-.1-.5-1.8-.5-1.6 0-2.2.2-1.2.5m184.4.4c.7.7 1.5 1 1.8.7s-.2-.9-1.2-1.2c-1.4-.6-1.5-.5-.6.5m-99.8 1.6c-1.3 1.6-1.2 1.7.4.4.9-.7 1.7-1.5 1.7-1.7 0-.8-.8-.3-2.1 1.3m120 0c-1.3 1.6-1.2 1.7.4.4.9-.7 1.7-1.5 1.7-1.7 0-.8-.8-.3-2.1 1.3m-80.8 1.9c0 1.1.3 1.4.6.6.3-.7.2-1.6-.1-1.9-.3-.4-.6.2-.5 1.3m3.1 1.4c0 1.4.2 1.9.5 1.2.2-.6.2-1.8 0-2.5-.3-.6-.5-.1-.5 1.3m84.9-.4c0 1.1.3 1.4.6.6.3-.7.2-1.6-.1-1.9-.3-.4-.6.2-.5 1.3m-152.8.1c1.5.2 3.9.2 5.5 0 1.5-.2.2-.4-2.8-.4s-4.3.2-2.7.4m147.7-.3c0 .2.7.7 1.6 1 .8.3 1.2.2.9-.4-.6-1-2.5-1.4-2.5-.6m10.2 1.6c0 1.4.2 1.9.5 1.2.2-.6.2-1.8 0-2.5-.3-.6-.5-.1-.5 1.3m-144.9-.3c1.5.2 3.7.2 5 0 1.2-.2 0-.4-2.8-.4-2.7 0-3.8.2-2.2.4m128.7.9c0 1.7 2.7 3.7 4 2.9.5-.3.9-1.4.9-2.3-.1-1.5-.2-1.5-.6 0-.2 1-.8 1.8-1.3 1.8s-1.4-.8-1.9-1.8c-.6-.9-1.1-1.2-1.1-.6m-151.6 2.6L347 473l2.3-1.9c2.1-1.8 2.7-2.6 1.9-2.6-.2 0-1.2 1-2.3 2.2m-8.3.4c0 1.1.3 1.4.6.6.3-.7.2-1.6-.1-1.9-.3-.4-.6.2-.5 1.3m84.2 3.9c0 2.7.2 3.8.4 2.2.2-1.5.2-3.7 0-5-.2-1.2-.4 0-.4 2.8m72.7-2.1c0 .2.8 1 1.8 1.7 1.5 1.3 1.6 1.2.3-.4s-2.1-2.1-2.1-1.3m-67 3.1c1.3 1.4 2.6 2.5 2.8 2.5.3 0-.5-1.1-1.8-2.5s-2.6-2.5-2.8-2.5c-.3 0 .5 1.1 1.8 2.5m79.8-.8c.6.2 1.8.2 2.5 0 .6-.3.1-.5-1.3-.5s-1.9.2-1.2.5M230 477.5c1 1.1 2 2 2.3 2s-.3-.9-1.3-2-2-2-2.3-2 .3.9 1.3 2m122-.9c-.4.6-.5 1.2-.2 1.5.2.3.7-.2 1-1.1.7-1.7.1-2-.8-.4m-8.4 3.5c0 1.1.3 1.4.6.6.3-.7.2-1.6-.1-1.9-.3-.4-.6.2-.5 1.3m6 2c0 1.1.3 1.4.6.6.3-.7.2-1.6-.1-1.9-.3-.4-.6.2-.5 1.3m90.7-.9c.7.3 1.6.2 1.9-.1.4-.3-.2-.6-1.3-.5-1.1 0-1.4.3-.6.6m8 0c.7.3 1.6.2 1.9-.1.4-.3-.2-.6-1.3-.5-1.1 0-1.4.3-.6.6m-24.7 2.9c0 1.1.3 1.4.6.6.3-.7.2-1.6-.1-1.9-.3-.4-.6.2-.5 1.3m-175.3 3.1c.6.2 1.8.2 2.5 0 .6-.3.1-.5-1.3-.5s-1.9.2-1.2.5m28 1c.7.3 1.6.2 1.9-.1.4-.3-.2-.6-1.3-.5-1.1 0-1.4.3-.6.6m-17 2c1.2.2 3 .2 4 0 .9-.3-.1-.5-2.3-.4-2.2 0-3 .2-1.7.4m6.2.7c0 .2.7.7 1.6 1 .8.3 1.2.2.9-.4-.6-1-2.5-1.4-2.5-.6m18.1 1.6c1.4 3.1 1.9 3.6 1.9 2.4 0-.6-.7-1.9-1.6-3-1.4-1.8-1.4-1.8-.3.6m-12.6 2c1 1.1 2 2 2.3 2s-.3-.9-1.3-2-2-2-2.3-2 .3.9 1.3 2m58.4-.3c-1.3 1.6-1.2 1.7.4.4.9-.7 1.7-1.5 1.7-1.7 0-.8-.8-.3-2.1 1.3m-82.5 1.5L245 498l2.3-1.9c2.1-1.8 2.7-2.6 1.9-2.6-.2 0-1.2 1-2.3 2.2m133.4.5c.7.3 1.6.2 1.9-.1.4-.3-.2-.6-1.3-.5-1.1 0-1.4.3-.6.6m-7.8 2.1c-1.5 1.2-2.5 3.5-3.1 7.2s-1.5 6-3 7.1q-2.25 1.65-.9 2.1c.9.3.4 1.5-1.6 3.8-5.2 6.2-5.9 7.6-1.6 3.5 3.1-2.9 5.4-6.9 8.7-14.4 4.9-11.2 5-12.1 1.5-9.3m7.1.8c0 1.1.3 1.4.6.6.3-.7.2-1.6-.1-1.9-.3-.4-.6.2-.5 1.3m-17.4.1c-.4.3-.7 1.3-.7 2.2.1 1.3.3 1.3 1.1-.2 1.1-1.9.8-3.3-.4-2m-77.7 1.6c0 .2 1.5 1.6 3.3 3.3l3.2 2.9-2.9-3.3c-2.8-3-3.6-3.7-3.6-2.9m117.3 1.4c1.5.2 3.9.2 5.5 0 1.5-.2.2-.4-2.8-.4s-4.3.2-2.7.4m-73.3 5.5c0 .9-.6 1.9-1.2 2.1q-1.5.6 0 .6c1.4.1 2.8-2.6 1.8-3.6-.3-.4-.6.1-.6.9m32-.2c0 .8.5 2.2 1 3 .9 1.3 1 1.3 1 0 0-.8-.5-2.2-1-3-.9-1.3-1-1.3-1 0m-67.3 1.1c.7.7 1.5 1 1.8.7s-.2-.9-1.2-1.2c-1.4-.6-1.5-.5-.6.5m-51.4.6c.9.2 2.5.2 3.5 0 .9-.3.1-.5-1.8-.5s-2.7.2-1.7.5m-10.9 1.4c-.8 1.4 1.4 1.9 2.5.6.8-1 .7-1.4-.5-1.4-.8 0-1.7.4-2 .8m18.7 1.5c1.3 1.7 2.6 3 2.8 2.7.3-.2-.8-1.6-2.4-3.1l-2.8-2.7zm52.2-.9c.9.2 2.3.2 3 0 .6-.3-.1-.5-1.8-.5-1.6 0-2.2.2-1.2.5m22 .8c-.3.9-.3 1.8-.1 2.1.3.3.8-.4 1.1-1.6.6-2.3-.1-2.7-1-.5m59 .2c-1 1-1.3 1.4-.7 1 .7-.5 2.5-1.2 4.1-1.7 2.3-.7 2.4-.8.7-.9-1.2-.1-3 .7-4.1 1.6m7.5-1c.7.3 1.6.2 1.9-.1.4-.3-.2-.6-1.3-.5-1.1 0-1.4.3-.6.6m10.2 5.8c1.9 1.9 3.6 3.5 3.9 3.5s-1-1.6-2.9-3.5-3.6-3.5-3.9-3.5 1 1.6 2.9 3.5m-157.7-1.8c.9.2 2.5.2 3.5 0 .9-.3.1-.5-1.8-.5s-2.7.2-1.7.5m20.7-.3c0 .2 1.1.6 2.5.8 1.3.3 2.2.1 1.9-.3-.5-.9-4.4-1.3-4.4-.5m7.5 2.6c-.3.5-.1 1 .4 1 .6 0 1.1-.5 1.1-1 0-.6-.2-1-.4-1-.3 0-.8.4-1.1 1m114.9 0c-5.7 2.3-8.5 11-6.4 19.7.6 2.6 1.5 6.4 2 8.3l.8 3.5.1-3c.5-11.6 13.9-22.1 20.8-16.3 2.3 1.9-4.2-7.4-6.9-9.8-2.7-2.6-7.4-3.6-10.4-2.4m10.5 8.9c-6.3 2-8.5 3.9-12.6 11.5-1.9 3.5-2.2 3.8-2.3 1.7-.1-5.1 9.9-14.1 15.5-14 1.6.1 1.4.2-.6.8m-162.9-7.9c0 .5.5 1 1.1 1 .5 0 .7-.5.4-1-.3-.6-.8-1-1.1-1-.2 0-.4.4-.4 1m20 0c-.9.6-1 1-.3 1 .6 0 1.5-.5 1.8-1 .8-1.2.4-1.2-1.5 0m13.5 0c-1.9.8-1.9.9.3.9 1.2.1 2.2-.4 2.2-.9 0-.6-.1-1-.2-.9-.2 0-1.2.4-2.3.9m7.5.4c0 .2.7.7 1.6 1 .8.3 1.2.2.9-.4-.6-1-2.5-1.4-2.5-.6m-33.5 1.6c-.3.5-.1 1 .4 1 .6 0 1.1-.5 1.1-1 0-.6-.2-1-.4-1-.3 0-.8.4-1.1 1m5.9 2.2L245 525l2.3-1.9c2.1-1.8 2.7-2.6 1.9-2.6-.2 0-1.2 1-2.3 2.2m122.5-.5c-1.3 1.6-1.2 1.7.4.4s2.1-2.1 1.3-2.1c-.2 0-1 .8-1.7 1.7m-140.7 2.3c0 1.4.2 1.9.5 1.2.2-.6.2-1.8 0-2.5-.3-.6-.5-.1-.5 1.3m41.1-1.3c1.5.2 3.7.2 5 0 1.2-.2 0-.4-2.8-.4-2.7 0-3.8.2-2.2.4m103.8.9c0 1.1.3 1.4.6.6.3-.7.2-1.6-.1-1.9-.3-.4-.6.2-.5 1.3m-45.1-.3c0 .2 1.5 1.6 3.3 3.3l3.2 2.9-2.9-3.3c-2.8-3-3.6-3.7-3.6-2.9m37.9 2.4c-1.3 1.6-1.2 1.7.4.4.9-.7 1.7-1.5 1.7-1.7 0-.8-.8-.3-2.1 1.3m-130.6 1c.9.2 2.5.2 3.5 0 .9-.3.1-.5-1.8-.5s-2.7.2-1.7.5m23.1 1c1.1 1.3 1.6 3.1 1.3 4.3-.3 1.1-.1 1.8.4 1.4 1.6-1 .9-4.1-1.3-6L257 526zm92.4-1c.6.2 1.8.2 2.5 0 .6-.3.1-.5-1.3-.5s-1.9.2-1.2.5m-105.8 1.3c-.9.6-1 1-.3 1 .6 0 1.5-.5 1.8-1 .8-1.2.4-1.2-1.5 0m127.3 3c0 2.5.2 3.5.4 2.2.2-1.2.2-3.2 0-4.5-.2-1.2-.4-.2-.4 2.3m-135.5-.3c.7.3 1.6.2 1.9-.1.4-.3-.2-.6-1.3-.5-1.1 0-1.4.3-.6.6m16.5 1.8c0 .8.4 1.2.9.9s.6-1 .3-1.5c-.9-1.3-1.2-1.1-1.2.6m140.5.2c.7.3 1.6.2 1.9-.1.4-.3-.2-.6-1.3-.5-1.1 0-1.4.3-.6.6m-147.9 2c-1.3 1.6-1.2 1.7.4.4s2.1-2.1 1.3-2.1c-.2 0-1 .8-1.7 1.7m100.4-1c.9.2 2.5.2 3.5 0 .9-.3.1-.5-1.8-.5s-2.7.2-1.7.5m42.6 2c-1.3 1.6-1.2 1.7.4.4s2.1-2.1 1.3-2.1c-.2 0-1 .8-1.7 1.7m-152.6 0c.9.2 2.3.2 3 0 .6-.3-.1-.5-1.8-.5-1.6 0-2.2.2-1.2.5m168.8.9c0 1.1.3 1.4.6.6.3-.7.2-1.6-.1-1.9-.3-.4-.6.2-.5 1.3m-166 2c0 1.1.3 1.4.6.6.3-.7.2-1.6-.1-1.9-.3-.4-.6.2-.5 1.3m153.3.6L391 542l2.3-1.9c1.2-1.1 2.2-2.1 2.2-2.3 0-.8-.8-.2-2.6 1.9m5.1-.2c.2 1.3 1 2.8 1.6 3.4.8.8.9.4.4-1.4-1-3.4-2.6-5-2-2m12.7 0c0 1.4.2 1.9.5 1.2.2-.6.2-1.8 0-2.5-.3-.6-.5-.1-.5 1.3m-20.6 4.7c-.3.7-.2 1.3.3 1.3s1.4-.6 2-1.3c.8-1 .7-1.4-.4-1.4-.8 0-1.6.6-1.9 1.4m20.6 1.8c0 1.6.2 2.2.5 1.2.2-.9.2-2.3 0-3-.3-.6-.5.1-.5 1.8m-15.3.2c-1.3 1.6-1.2 1.7.4.4.9-.7 1.7-1.5 1.7-1.7 0-.8-.8-.3-2.1 1.3m-19.9-.2c0 .5.5 1.7 1 2.5s1 1 1 .5c0-.6-.5-1.7-1-2.5s-1-1.1-1-.5m30.1 2.1c0 1.1.3 1.4.6.6.3-.7.2-1.6-.1-1.9-.3-.4-.6.2-.5 1.3m-9.1 7.4c-.9.6-1 1-.3 1 .6 0 1.5-.5 1.8-1 .8-1.2.4-1.2-1.5 0m-12.2 2.7c.7.3 1.6.2 1.9-.1.4-.3-.2-.6-1.3-.5-1.1 0-1.4.3-.6.6m4.5 1.9c-.3.8-.2 1.9.3 2.4s.9-.1.9-1.6c0-2.8-.3-3-1.2-.8m7.7-.6-3.5.7 3.2.2c1.7 0 3.5-.4 3.8-.9.3-.6.5-.9.3-.9-.2.1-1.9.5-3.8.9m7.9 1.7L402 564l2.8-2.4c1.5-1.4 2.7-2.6 2.7-2.8 0-.8-.8-.1-3.1 2.4m-9.1 4c.6.2 1.8.2 2.5 0 .6-.3.1-.5-1.3-.5s-1.9.2-1.2.5"></path><path fill="#b9aa55" d="M293.6 76.4c-1.4.9 1.2 11.1 4.3 17.1 1.7 3.2 7.8 21 11 32 1.3 4.7 3.6 12.5 5.1 17.5 12.2 41.5 30.3 129.6 27.1 132-4.8 3.8-8.6 10.8-8.6 16 0 8.4 5.2 17.2 11.3 19.1 1.9.6 1.9 1.4 1.4 22.3-.3 11.9-.8 22.5-1.1 23.6-.9 3 .9 5.3 3.1 3.9 2.4-1.5 3.2-8 3.5-29.6.2-9.8.5-17.8.8-17.9.3 0 2-.2 3.8-.5 4.6-.6 8.5-2.8 11.7-6.5l2.6-3.2-3.1-1.3c-6.1-2.6-8.1-15.5-3.1-20.7 1.1-1.3 2.1-2.6 2.1-3 0-1.4-6.8-4-11.9-4.6-6.1-.7-7.1-2.3-8.5-14.8-4.2-35-24.3-115-41.8-166.3-5.3-15.4-6.4-17.2-9.7-15.1M488 109.7c-.2.7-1.5 8.9-3 18.3-9.9 64.1-28.7 130.3-46.6 164-7.5 14.2-10.7 18.7-13.2 18.4-1.5-.2-4 1.4-7.7 5-3 2.8-6.5 5.4-7.7 5.7-2.5.7-2.9 2.6-2.4 11.4.2 4.4.1 4.7-7.1 11.6-4 3.8-9.4 8.5-12 10.4-5 3.5-5.7 5-3.3 7 1.7 1.4 5-.8 17.8-12.3l8.8-8 2.2 2c3.1 2.9 6.2 4.3 9.1 4.3 2.3 0 2.5-.4 2.3-4-.3-8.2 10.6-14.9 16-9.8l2.3 2.1v-6.2c0-5.8-2.9-14-4.9-14.1-.3-.1-1.7-.9-2.9-2-2.4-2-2.4-2-.4-4.7 4.5-6.6 15.8-29.7 19.8-40.6 3.5-9.6 11.3-33.7 13.4-41.2a376 376 0 0 1 3.5-12c3.6-10.9 13.6-56.8 17-78.5.9-5.8 2.3-14.1 3-18.4.8-4.3 1.2-8.3.9-8.7-.8-1.4-4.4-1.1-4.9.3M118.6 223.4c-1.3 2.3-1.1 2.4 9.4 8.1 47.1 25.5 96.3 58.7 128 86.4 14.8 13 14.9 13.2 16.5 21.6 1.8 9.8 7.3 15.1 17.3 16.8 3.8.7 4.7 1.4 9.5 8.5 2.9 4.2 6 7.7 6.8 7.7 3.2 0 2.5-3.3-2.1-10.2l-4.8-7.2 2.4-1.6c6.5-4.2 9.9-10.2 9.9-17.6v-4.7l-2.4 2.2c-6.8 6.4-20.3-7.2-13.8-13.7 1.7-1.7 1.8-2.1.5-2.6-5.1-2-16.3 1.9-20.1 7-1.4 1.9-2.4 2.5-2.9 1.8-1.3-1.8-24-21-35.3-29.8-24.4-19-55.9-40.1-83.2-55.7-12.6-7.3-14.3-8.2-21.8-12.2-4.1-2.2-7.9-4.6-8.3-5.3-1.2-2-4.5-1.7-5.6.5"></path><path fill="#062338" d="M378 197.5c-.4.7-.4 1.5.1 1.9 14.8 10.7-2.4 54-17.3 43.6-3.3-2.3-5.7-9.6-5-15.8 1.1-10.7 8.1-24 13.3-25.3 6.6-1.7 5.6 8.3-1.8 18.9-2.4 3.4-1.6 4.7 1.3 2.1 11.8-10.7 9.1-30.4-3.1-22.2-10.7 7.3-16 32-9 41.8 12.1 16.9 35-12.1 28.9-36.5-1.2-4.8-6.2-10.5-7.4-8.5m-231 37.9c8.8 4.8 20.6 11.6 26.3 15 5.7 3.3 10.7 6.1 11.1 6.1.5 0 2.4 1.3 4.2 3 1.9 1.6 3.7 3 4.1 3 .3 0 4.4 2.6 8.9 5.7s7.9 5.1 7.5 4.4c-.5-.7-3.6-3.2-7.1-5.4-36.9-24.6-35.7-23.9-53.3-32.9-20.5-10.5-21.5-9.9-1.7 1.1m77.2 6.2c-12.8 10 4.3 42.8 22.3 42.9 10.9 0 13-18.1 3.8-31.3-1.6-2.2-1.7-3.1-.8-4.3 1.5-1.7-.7-4.7-5.2-7-3.5-1.8-3.7-1.8-4.6.6-.7 2-.8 2-4.2-.5-4.1-3-7.9-3.2-11.3-.4m10.3 2.9c4.9 4.9 2.7 11.8-5.5 17.5-2.9 2-1.2 2.9 2.2 1.1 4.3-2.2 8.3-8.7 8.3-13.6 0-6.4 2-5.1 8.1 5.5 13.3 22.8 1.1 36.3-16.1 17.8-7.3-7.8-9.5-13.2-9.1-22.4.3-6.6 7.7-10.3 12.1-5.9m150.5-1.1c-5 2.2-10.7 7-9.9 8.2.3.5 2-.2 3.7-1.5 15.4-11.8 33.3-7 38.3 10.1 2.2 7.7 1.1 9.7-7.6 13.3-9.8 3.9-29.6 19.3-34.3 26.7-2.6 4 3.5.2 11.2-7.2 9.4-8.9 17.1-14.4 24.3-17.1 10.2-4 11.6-7.1 8.3-18-4.1-13.7-20.5-20.7-34-14.5m-62.9 3.6c-19.1 20-19.3 61.5-.3 61.5 7.3 0 13.5-3.4 12.3-6.7-.7-1.7-.8-1.7-2-.1-.7 1-3 2.5-5.1 3.3-20.5 8.6-22.6-36.8-2.6-55.8 2.8-2.7 5.1-5.3 5.1-5.8 0-2.2-3.4-.6-7.4 3.6m-39.8-.9c-6.3 1.9-12.3 8.7-13.7 15.5-1.4 6.2-1.4 12.9-.1 14.9 1.1 1.7 1.1 1.7 1.6-6.4 1-17.6 13.6-26.9 28.4-21 6.8 2.7 7.5 6.5 3.6 19.1-3.4 11-3.8 15.5-2.5 24.2 1.9 12.4-1 15.9-16.7 20.3-4.6 1.2-8.4 2.6-8.4 3 0 2.2 4.7 1.7 11.5-1.2 1.1-.5 3.2-1.1 4.6-1.4 9.3-2 13.7-9.5 11.9-20.1-1.4-8.3-.9-14.5 2-23.8 4.7-14.9 3.2-20.4-6.1-23.1-6.4-1.9-9.9-1.9-16.1 0m64.2 2.4c0 1.5 11.6 8.8 15.9 10 9.1 2.5 23.4-.8 28.1-6.5 1.8-2.2.2-4-1.9-2.1-.9.8-4.3 2.7-7.6 4.2-10.2 4.7-17.7 3.7-30.2-4.1-2.4-1.4-4.3-2.1-4.3-1.5m-73.3 25.1c-.9 11.8-5.5 18.1-15.1 21-2.5.7-4.6 1.7-4.6 2.1 0 3.3 10-.4 15.6-5.7 4.9-4.6 7.7-12.5 7.2-20.1-.5-8-2.4-6.3-3.1 2.7m227.4 7.7c-3.8 3.6-5.2 6.2-3.3 6.2.4 0 2.7-2 5.1-4.4 5.4-5.5 3.7-7.1-1.8-1.8m-137.6.2c-2.4 2.6-1.8 13.9.9 16.9 6 6.6 10.2-4.5 5.6-14.7-2.1-4.6-3.8-5.2-6.5-2.2m115.5 1.1c0 2.1 8.5 9 15.5 12.4 6.5 3.3 7 3.7 8 7.9 1.4 5.4 1.6 5.1-6.3 10.9-12.4 9.1-25.4 8.9-29.2-.3-2.6-6.3 1.8-15.8 8.8-18.9 4.1-1.9 4.1-3.5 0-2.7-8.7 1.7-14.9 15.6-10.7 24 4.7 9.6 23.4 8.5 35.8-2 3.9-3.4 4.2-3.5 7.5-2.3 4.5 1.6 6.8 0 6.4-4.5-.3-3-.4-3.1-5-2.9-4.7.3-4.8.2-4.8-2.6 0-2.9 1.4-4.1 5-4.1 3.1 0 8-4.8 8-7.9 0-7.6-11.3-6.8-14.4 1-.9 2.2-2.3 3.9-3.1 3.9-2.9 0-10.6-4.3-15.4-8.6-5.1-4.6-6.1-5.1-6.1-3.3m35.9 5.3c1.7 2 .4 4.2-3.4 6-6.3 3-8.6.4-3.9-4.5 3-3.2 5.5-3.7 7.3-1.5m-1.9 20.2c0 .8-.2 1.4-.4 1.4s-1.1.3-2 .6c-1.1.4-1.6 0-1.6-1.4 0-2 1.8-3.3 3.3-2.5.4.2.7 1.1.7 1.9m-98-23.8c-16.2 4.3-26.8 16.2-22.1 25.1 2 3.6 3 2.3 2.4-3.3-1.1-10.9 12.1-19.7 30.6-20.4 9.2-.4 10.3-.6 8.6-1.8-2.5-1.9-11.5-1.7-19.5.4m9.5 18c-1.6 2.6-5.5 7.4-8.7 10.6-5.6 5.7-6.8 7.6-4.9 7.6 1.6 0 13.1-11.8 13.1-13.5 0-.9.8-2.9 1.8-4.3 2.9-4.2 3.4-5.2 2.5-5.2-.4 0-2.1 2.1-3.8 4.8m91.9.3c5.1 6 1.8 12.5-7.7 14.9-7.9 2.1-11.2 3.3-14.9 5.6-6.2 3.9-8.5 8.8-5.3 11.4 1.3 1.1 1.5.8 1.5-1.8 0-5.3 6.6-9.5 20.7-13.2 6.7-1.7 10.3-5.3 10.3-10.5 0-4.5-2.9-9.5-5.7-9.5-1.1 0-.8.8 1.1 3.1m-69 2.3c-1.5 3-1.5 3.8 0 8.9 2 6.7 5.7 9.7 19 15.3 14.9 6.2 21.6 14.1 21.6 25.4 0 9.5-4.8 16.7-13.3 19.9-4.6 1.8-2.2 3.2 2.5 1.5 8.8-3.1 13.3-10.4 13.2-21.4 0-13.8-5.8-20.5-23.9-27.9-14.1-5.8-17.9-10.2-17.3-19.7.4-6.3.3-6.4-1.8-2m-214.8-.5c-1.5 2.4-.7 13.9 1.4 20.1 5.7 17 23.5 36 33.6 36 3.3 0 8.3-4.5 6.8-6-.9-.9-1.7-.7-3.4 1-9.8 9.8-39.4-27.8-36.5-46.5.6-4-.6-6.8-1.9-4.6m152.4.9c0 4.3 3.2 12.3 5.5 13.8 5.9 3.9 15 3.6 16.3-.4.3-1.1 0-1.2-1.6-.3-7.8 4.1-17.2-2.2-17.2-11.7 0-2.2-.5-3.2-1.5-3.2-.8 0-1.5.8-1.5 1.8m-88.8 14.4c-3.3 3.3.6 12 6.3 14.4 4.4 1.8 7.5.5 7.5-3.2 0-7.6-9.6-15.4-13.8-11.2m-36.2 8.6c0 .5 1.2 1.9 2.6 3.3 4.1 3.7 8.4 11 8.4 14 0 3.4 1.6 4.6 2.3 1.9 1.1-4.2-1.1-9.3-6.4-14.6-5.1-5.2-6.9-6.4-6.9-4.6m-47.5 5.1c-7.9 3.2-13 15.2-10.9 25.4 1.6 7.3 4 5.5 3.6-2.6-.6-11.8 5.5-20.7 14.1-20.7 4.2 0 5.3.8 13.4 10.3 4.2 5.1 10.1 11.6 12.9 14.5 3 2.9 6 7.2 7 9.8 1.9 4.9 1.9 4.9-3.1 18.4-3.8 10.1-1.2 15.7 11.2 24.6 3.5 2.5 6.7 5.3 7.2 6.3 2.4 4.4-6.6 9.1-17.6 9.1-3.9 0-5.3.4-5.3 1.4 0 2 1.2 2.2 9.3 1.5 12-.9 18.3-5.5 17-12.3-.6-2.7-.4-2.8 2.4-2.2 5.3 1.2 6.8-8.3 3.9-23.7-2.9-14.9-7.9-22.5-11.8-17.7-3.6 4.4-1.9 25.5 2.8 35.4 2.7 5.5 1.4 5.2-7.4-1.3-11.5-8.7-12.3-10.7-8.3-22 6.2-17.6 4.8-20.6-23.1-49.2-6-6.2-10.9-7.6-17.3-5m58.4 47.2c4.3 7.1 6.9 33.4 3.3 33.4-3.3 0-8.8-23.7-7.6-32.3.7-5 1.8-5.3 4.3-1.1m158.9-44.1c-7.6 7.5-2.7 13 5.8 6.5 7.4-5.6 8.2-10.5 1.8-10.5-2.9 0-4.4.8-7.6 4M195.9 349c-2 10.8 1.8 19.8 12.3 29.5 13.7 12.5 15.1 17.7 8.1 29.3-7.4 12.3-6 20.1 4.7 25.9 12.3 6.7 35.1 6.7 49.1.1 6.2-3 4-4.3-3.1-1.7-18.7 6.8-41.4 4.1-50.3-6.1-3.8-4.3-3.9-5.2-.8-10.8 6.5-11.6 7.6-14.2 7.6-18 0-6.2-3.1-11.4-12.1-20.2-10.5-10.3-13.2-15.5-12.7-24.3.3-7.4-1.6-10-2.8-3.7m225.3 2.2c-.9 1.5 2.8 6 6.4 7.9 1.7.8 8 2.4 14.2 3.5 10.9 2 20.4 5.4 23.9 8.6 1 .9 2.1 1.3 2.4 1 3.1-3.1-9.8-9.3-24.5-11.8-13.1-2.2-17.1-3.7-19.8-7.4-1.1-1.6-2.3-2.4-2.6-1.8m-24.2 9.3c-4.4 8.5-5.8 27.8-2.9 39.5 1.6 6.2 5.5 12.3 4.2 6.5-3.2-13.9-3.8-17.1-3.8-21.2 0-5.5 2.3-17.3 4.5-22.4 2.5-6 .9-8-2-2.4m10.6 1.6c-3.4 4.3-4.3 9.9-3.9 23.4.4 14.6 2.3 20.5 6.8 20.5 8.2 0 10.1-41.2 2-45.5-2.6-1.4-2.6-1.4-4.9 1.6m6.1 5.1c3.3 9.5.7 37.4-3.4 36.1-5.8-2-5.6-39.8.3-39.8 1.1 0 2.2 1.3 3.1 3.7m12.6.5c-2.8.6-4.8 1.6-4.8 2.3 0 1.1.8 1.1 3.2.4 14-4 34.8 2.7 43.3 13.9 8.6 11.1 7.9 18.9-2.5 29.7-11.1 11.4-11.9 15.5-6.5 31 4.3 12.2 4.3 13.4.5 17-2.5 2.4-4.1 3-9 3.3-4.2.3-6 .8-6 1.8 0 1.9 7 1.8 11.8-.1 9.3-4 10.2-8.2 4.7-24.2-4.6-13.3-4.1-16 5-25.1 3.5-3.5 7.3-8.2 8.4-10.6 10-20.6-20.4-45.5-48.1-39.4m1.2 5.9c-7.2 2.2-8 7.7-2.9 20.4 3.7 9.4 3.5 10.5-3.6 20.3-8.6 11.7-8.7 18.4-.8 31.5 5.5 9 6.9 12.6 7.9 20.5 1.4 11.4 12.1 16.9 24.5 12.7 4.6-1.6 10.9-6.5 10.9-8.4s-2-1.2-5.3 1.9c-6.2 5.9-18.3 6.7-23.7 1.5-2.2-2.1-3.1-4.2-4-9.2-1.5-8.7-3.8-14.7-8.3-21.1-7.2-10.5-7.1-16.9.3-26.7 8.1-10.7 8.5-13.3 3.9-26-4.9-13.5-3-16 11.4-15.3 6.8.4 9.3-.1 7-1.5-1.9-1.1-14.1-1.5-17.3-.6m-264.2 3.3c-7.5 2-7.9 2.7-7.6 12.5l.3 8.5 4 2.8c15.5 10.7 47.5 4.8 47.7-8.9.1-7.8-4.3-12-15.7-15.2-5.3-1.5-22.8-1.3-28.7.3m28.8 3.2c11.2 2.9 15.2 8.9 9.9 15.2-9.8 11.7-40.1 9.3-43.9-3.5l-.7-2.3 5.1 2.6c7.7 3.9 13.9 3.8 15.9-.1.9-1.7 1.8-3.2 1.9-3.5.2-.3 1.9 1.2 3.7 3.2 5 5.9 8.2 3.5 3.4-2.6s-11.1-6.6-12.5-1.1c-.8 3.2-2.2 3.1-9.5-.5-7.2-3.7-7.1-5 .7-7.2 7.7-2.1 17.8-2.2 26-.2m307.4 39.6c-4.1 6.8-2 18.6 5.2 29.2 7.9 11.6 11.1 21.6 7 21.6-.9 0-2.3-.9-3-2-1.6-2.5-3.2-1.7-3.2 1.6 0 3.5-2.6 3-5-.8-2.1-3.4-1.8-4.2 2.2-6.2 2.7-1.3 3.7-6.8 1.7-9.2-2.2-2.7-6.3-1.3-7.5 2.6-1.4 4.2-3.2 4.7-8.7 2.5-9.3-3.7-16.7-12.7-16.7-20.4s9.6-14.4 17.9-12.6c3.8.8 4.3-1.2.5-2.1-4.3-1.1-11.5.4-15.2 3.2-12.5 9.6-3.7 29.4 15.7 35.4 4.9 1.6 5.6 2.1 6.4 5.1 1.1 4.5 5.3 8.3 8.1 7.4 1.2-.4 3.6-.9 5.5-1 1.8-.2 3.7-.9 4.2-1.7 2.6-4-.8-15.3-7.3-24.3-6.7-9.3-9.6-22.4-5.9-26.9 2.3-2.8 4.1-1.9 4.1 1.9 0 4 1.1 4.3 4.8 1.5 5.7-4.6 4.9 3.6-1 9.7-4 4.1-2.8 5.6 1.3 1.7 7.4-6.9 7.8-17.5.7-15.6-1.2.3-2.5-.3-3.4-1.7-2.3-3.2-6.1-2.7-8.4 1.1m3.5 36.8c1.1 1.8-.6 5-2.6 5-1.9 0-2.4-1.6-1.3-4.4.7-1.8 3-2.1 3.9-.6m-131.5-28.6c-10.7 2.4-28 13-28 17.2 0 2.1 1.4 1.7 4.1-1.2 7.2-7.9 22.2-14.4 33.1-14.4 4.3 0 5.9-.3 5.6-1.3-.6-1.7-8.1-1.9-14.8-.3m-2 10.8c-19.7 6.2-27.4 19.8-11.2 19.8 14.3 0 31.2-9 31.2-16.5 0-5.6-8.5-7-20-3.3m17.5 2.5c.9 2.5-6.5 8.7-13.3 11.3-13.9 5.2-23.3 4.8-20.2-1 4-7.4 31.3-15.8 33.5-10.3m11-2.5c-3.4 2.6-8.5 10.5-8.5 13 0 2.8 1.4 2.1 2.9-1.5 2.1-4.8 8.1-10.7 11-10.7 9.5 0 20.1 24.6 17.4 40.4-3.1 17.9-11 21.9-30.3 15.2-5.7-2-11.3-3.6-12.4-3.6-3.9.1-10.4 3.8-12 6.9-2.1 4-2.2 12.1-.1 12.1 1.1 0 1.5-1.2 1.5-4.6 0-3.7.5-5.1 2.9-7.4 4.9-5 7.7-5 21.6.1 13.5 4.9 22.7 2.5 28-7.1 11.5-21.3-6.6-64.9-22-52.8m117.5-1.5c0 .5.9 2.6 2 4.8 2.3 4.5 2.5 7.3.8 11-1.4 3.1-.1 4.7 1.8 2.1 1.8-2.5 1.8-9.9 0-13.5-1.6-3-4.6-5.9-4.6-4.4M268 440.5c-2.2.4-8.7 1.5-14.5 2.5-13.6 2.3-13.6 2.3-12.2 3.7.9.9 4.6.6 14.9-1.2 27.5-4.7 28.8-4.2 30.9 12.4 1 8.4 7.2 12 19.7 11.4 7.4-.4 7.9-2.3.5-2.3-9.1 0-6.2-1.9 7.9-5.3 16-3.8 17.6-3.9 20.3-1.2 5.6 5.6-.4 22.3-12.4 34.8-12.8 13.3-22.6 15-32.6 5.6-6-5.6-8-4.1-2.4 1.8 7.2 7.5 15.4 8.8 25.2 4 16.5-7.9 30.9-33.4 25.8-45.5-2.8-6.8-8.1-7.1-27-1.7-6.1 1.8-11.8 2.9-13.2 2.6-1.5-.4-2.6-.1-3.2.9-2.3 4.2-5.6-1.2-6.7-10.7-1.2-10.8-7.5-14.3-21-11.8m-38 8.4c-7.3 14.9-3.2 27.8 10.7 34.2 5.9 2.7 7.4 2.9 22.3 3.4l16 .5 5.7 3.8c3.1 2.1 5.9 4.4 6.2 5.2.6 1.8 3.6 2 3.6.3 0-1.5-7.3-8.4-11.3-10.5-2.5-1.4-6.7-1.9-19.7-2.3-15.3-.5-16.9-.8-21.6-3.2-12.4-6.5-15.8-18.2-8.9-30.6 2.3-4.2 2.5-6.2.5-6.2-.5 0-2.1 2.4-3.5 5.4m166.5 1.3c-11.9 16.8-13.5 17.7-29.8 17.4l-12.3-.2-3.9 3.8c-3.1 3.1-4.3 5.6-6.4 12.8-3.4 11.6-5.2 15-9.8 19-5.8 4.9-5.2 7.1.8 3.4 4.5-2.7 7.5-8.3 11.3-20.4 4.4-14.6 7.2-16.6 21.3-15.8 16.4 1.1 22-2.8 34.2-23.5 2.1-3.5-2.5-.5-5.4 3.5m-140.3 41.7c-11.6 4.2-26.9 21.6-26.5 30.2.1 2.1-.1 5-.5 6.4-1.3 4.3 1.2 6.5 7.2 6.2l5.1-.2v3.4c0 5.5 5.2 5.5 13.2-.1 5.5-3.7 6.7-6.3 3.9-8.1-2.3-1.6-2.8-4.2-.8-4.2.8 0 2.7-.7 4.4-1.5 1.6-.8 5.1-1.6 7.9-1.8 6.6-.6 6.7-2.3.1-1.9-7 .4-13.7 2.7-20 6.9-8.2 5.5-18.7 6.9-18.7 2.4 0-2.5 2.8-4.1 7.4-4.1 4.4 0 10.3-4.7 9.3-7.4-1.1-2.9-3.5-2.9-9.3-.1-3 1.5-5.8 2.4-6.1 2.1-2.7-2.6 17.8-23.8 24.8-25.6 10.1-2.7 17.1 7.3 12.2 17.5-.9 1.9-1.4 3.8-1 4.1 3.1 3.1 6.8-8.9 4.8-15.6-2.1-7.2-10.2-11.2-17.4-8.6m-12 28.2c.2.6-.8 1.6-2.1 2.2-3.2 1.4-4.8-.5-2-2.5 2-1.4 3.6-1.3 4.1.3m12.1 12.2c.4 1.2-8.4 7.1-10.5 7.2-.7 0-1.3-.8-1.3-1.8 0-4.4 10.5-9.2 11.8-5.4m-22.4-35.1c-.2 1-2.2 5.4-4.4 9.7-4.1 8-4.5 11.2-.9 6.6 2.4-3.2 6.6-11.7 7.5-15.3.7-3-1.3-3.9-2.2-1M372.7 508c-6.2 15-14.7 22.6-25.1 22.5-6.8-.1-15.6-7.1-18.7-15.1-1.8-4.3-3.4-5.1-3.4-1.6 0 2.6 4.5 10.1 8.1 13.4 9 8.2 25.7 6.5 33.9-3.5 3-3.6 9.6-18.2 10.7-23.5 1.2-5.8-1.4-2.2-5.5 7.8m9.1 6.6c-8.4 5.3-9.8 22.5-2.9 35.7 3.2 6.3 8.6 9.1 8.6 4.6 0-1.7 1.4-1.8 3.9-.3 7.4 4.7 16.2-13.6 9.2-19.2-5.8-4.7-12.7 1.4-14.6 12.8-1 6-2.9 5.4-5.8-2-4.8-12.2-4.3-21.7 1.5-27.6 11.7-12 29.8 11.1 24.8 31.8-1.9 7.9-9.1 13.2-14 10.2-2-1.3-3.4-.2-1.9 1.5 1.6 1.9 8.9 1.8 11.9-.3 3.9-2.7 4.8-4.3 6.5-12 5-21.7-12.7-44.5-27.2-35.2m17.7 23.4c2.7 3.2.6 10.8-3.9 14.2-3.7 2.7-4.2-1.6-.6-6.3 1.4-1.8 2.5-3.7 2.5-4.3 0-2.2-2-1-4.2 2.4-3.4 5.2-6.4 4.5-3.7-.8 3.1-6 7.4-8.2 9.9-5.2"></path></svg>